<?xml version="1.0" encoding="utf-8"?>
<!-- Generator: Adobe Illustrator 17.0.0, SVG Export Plug-In . SVG Version: 6.00 Build 0)  -->
<!DOCTYPE svg PUBLIC "-//W3C//DTD SVG 1.1//EN" "http://www.w3.org/Graphics/SVG/1.1/DTD/svg11.dtd">
<svg version="1.1" id="Var2" xmlns="http://www.w3.org/2000/svg" xmlns:xlink="http://www.w3.org/1999/xlink" x="0px" y="0px"
	 width="2028.519px" height="1671.379px" viewBox="0 0 2028.519 1671.379" enable-background="new 0 0 2028.519 1671.379"
	 xml:space="preserve">
<path fill="#3B5998" d="M841.294,253.75h0.124c70.037,0,126.813-56.776,126.813-126.813v-0.062C968.23,56.804,911.427,0,841.356,0h0
	C771.284,0,714.48,56.804,714.48,126.875v0.062C714.48,196.974,771.257,253.75,841.294,253.75z"/>
<path id="facebook_3_" fill="#FFFFFF" d="M853.292,207.396v-70.322h23.604l3.535-27.407h-27.139V92.17
	c0-7.934,2.202-13.342,13.581-13.342l14.513-0.006V54.308c-2.51-0.332-11.125-1.079-21.148-1.079
	c-20.924,0-35.249,12.771-35.249,36.227v20.21h-23.665v27.407h23.665v70.322H853.292z"/>
</svg>
