<?xml version="1.0" encoding="utf-8"?>
<!-- Generator: Adobe Illustrator 17.0.0, SVG Export Plug-In . SVG Version: 6.00 Build 0)  -->
<!DOCTYPE svg PUBLIC "-//W3C//DTD SVG 1.1//EN" "http://www.w3.org/Graphics/SVG/1.1/DTD/svg11.dtd">
<svg version="1.1" id="Var2" xmlns="http://www.w3.org/2000/svg" xmlns:xlink="http://www.w3.org/1999/xlink" x="0px" y="0px"
	 width="2028.519px" height="1671.379px" viewBox="0 0 2028.519 1671.379" enable-background="new 0 0 2028.519 1671.379"
	 xml:space="preserve">
<path fill="#4B78BA" d="M126.794,253.75h0.123c70.037,0,126.813-56.776,126.813-126.813v-0.062C253.73,56.804,196.927,0,126.856,0h0
	C56.784,0-0.02,56.804-0.02,126.875v0.062C-0.02,196.974,56.757,253.75,126.794,253.75z"/>
<path id="vk_3_" fill="#FFFFFF" d="M174.388,130.511c-4.687-5.051-11.533-8.398-18.882-10.034v-0.679
	c5.25-2.256,9.833-5.785,12.912-10.584c3.076-4.799,4.698-10.274,4.698-16.429c0-5.307-1.074-9.993-3.303-14.058
	c-2.231-4.065-5.584-7.311-10.101-9.739c-4.178-2.258-8.64-3.806-13.41-4.513c-4.772-0.706-11.776-1.125-21.034-1.125H79.906V190.4
	h51.29c8.751,0,15.963-1.201,21.637-2.782c5.674-1.58,10.882-4.44,15.624-8.165c4.009-3.105,7.198-7.133,9.57-11.875
	c2.371-4.742,3.473-10.298,3.473-16.563C181.499,142.432,179.073,135.564,174.388,130.511z M111.406,86.45h3.022
	c5.645,0,9.893,0.119,12.745,0.203c2.85,0.085,5.321,0.617,7.41,1.52c2.202,0.962,3.824,2.532,4.869,4.677
	c1.045,2.146,1.567,4.244,1.567,6.277c0,2.766-0.48,5.2-1.44,7.287c-0.96,2.09-2.71,3.728-5.25,4.914
	c-2.316,1.074-4.56,1.904-6.733,2.016c-2.173,0.114-5.97,0.407-11.39,0.407h-4.8V86.45z M146.99,158.541
	c-1.328,2.402-3.43,4.221-6.31,5.463c-3.275,1.411-6.493,2.593-9.654,2.706c-3.163,0.114-8.864,0.59-17.107,0.59h-2.514v-32.55
	h6.663c5.645,0,10.147,0.104,13.507,0.189c3.359,0.084,5.997,0.525,7.918,1.258c3.161,1.13,5.533,2.809,7.113,5.011
	c1.581,2.202,2.372,5.258,2.372,9.155C148.979,153.41,148.315,156.141,146.99,158.541z"/>
</svg>
