<?xml version="1.0" encoding="utf-8"?>
<!-- Generator: Adobe Illustrator 17.0.0, SVG Export Plug-In . SVG Version: 6.00 Build 0)  -->
<!DOCTYPE svg PUBLIC "-//W3C//DTD SVG 1.1//EN" "http://www.w3.org/Graphics/SVG/1.1/DTD/svg11.dtd">
<svg version="1.1" id="Слой_1" xmlns="http://www.w3.org/2000/svg" xmlns:xlink="http://www.w3.org/1999/xlink" x="0px" y="0px"
	 width="595.28px" height="841.89px" viewBox="0 0 595.28 841.89" enable-background="new 0 0 595.28 841.89" xml:space="preserve">
<path fill="#4B78BA" d="M91.297,599.619c-2.429-1.886-5.638-3.172-9.224-3.578c-0.052-0.007-0.105-0.012-0.158-0.018
	c-0.289-0.031-0.578-0.06-0.872-0.079c-0.072-0.005-0.141-0.014-0.213-0.018c-0.364-0.023-0.75-0.035-1.166-0.035
	s-0.802,0.013-1.166,0.035c-0.072,0.004-0.142,0.013-0.213,0.018c-0.294,0.019-0.583,0.048-0.872,0.079
	c-0.053,0.006-0.105,0.012-0.158,0.018c-3.586,0.407-6.795,1.693-9.224,3.579c-5.445,3.683-8.365,8.769-8.365,8.769
	c3.258,5.534,7.265,8.622,10.835,10.347c0.109,0.056,0.224,0.104,0.335,0.159c0.091,0.042,0.183,0.086,0.273,0.127
	c1.389,0.655,2.912,1.154,4.536,1.469c0.169,0.035,0.335,0.068,0.496,0.098c0.109,0.018,0.215,0.04,0.325,0.056
	c1.303,0.216,2.292,0.252,2.806,0.252c0.255,0,0.393-0.009,0.393-0.009s0.138,0.009,0.393,0.009c0.514,0,1.503-0.036,2.806-0.252
	c0.109-0.017,0.216-0.038,0.325-0.056c0.161-0.029,0.327-0.063,0.496-0.098c1.624-0.315,3.147-0.813,4.536-1.469
	c0.089-0.04,0.18-0.084,0.27-0.125c0.111-0.055,0.228-0.103,0.337-0.16c3.57-1.725,7.576-4.813,10.834-10.347
	C99.662,608.388,96.742,603.302,91.297,599.619z M75.992,600.51c2.198,0,3.979,1.782,3.979,3.979s-1.781,3.979-3.979,3.979
	s-3.979-1.782-3.979-3.979S73.795,600.51,75.992,600.51z M87.392,615.764l-0.024,0.011l-0.042,0.022l-0.063,0.029
	c-0.066,0.03-0.132,0.061-0.197,0.092l-0.08,0.038l-0.112,0.052l-0.031,0.014l-0.031,0.015c-1.157,0.546-2.421,0.955-3.797,1.222
	c-0.142,0.029-0.282,0.058-0.375,0.075l-0.171,0.03l-0.146,0.025c-1.088,0.18-1.886,0.207-2.266,0.207
	c-0.106,0-0.175-0.002-0.181-0.002c0,0,0,0,0,0l-0.163-0.017l-0.237,0.015c-0.028,0.001-0.099,0.003-0.206,0.003
	c-0.379,0-1.178-0.027-2.31-0.214l-0.103-0.018l-0.126-0.022c-0.135-0.025-0.275-0.053-0.459-0.091
	c-1.335-0.259-2.598-0.667-3.755-1.213l-0.031-0.015l-0.031-0.014l-0.116-0.054l-0.079-0.037c-0.065-0.031-0.13-0.062-0.196-0.092
	l-0.041-0.018l-0.043-0.022l-0.043-0.021c-3.254-1.572-6.048-4.031-8.324-7.323c1.188-1.597,3.321-4.095,6.268-6.089l0.089-0.061
	l0.085-0.066c0.171-0.132,0.353-0.256,0.533-0.38c-0.525,1.208-0.82,2.539-0.82,3.94c0,5.465,4.431,9.896,9.896,9.896
	c5.465,0,9.896-4.43,9.896-9.896c0-1.401-0.295-2.732-0.82-3.94c0.18,0.125,0.363,0.248,0.533,0.38l0.085,0.066l0.089,0.06
	c2.948,1.994,5.082,4.493,6.268,6.089C93.439,611.733,90.646,614.192,87.392,615.764z"/>
</svg>
