<?xml version="1.0" encoding="utf-8"?>
<!-- Generator: Adobe Illustrator 17.0.0, SVG Export Plug-In . SVG Version: 6.00 Build 0)  -->
<!DOCTYPE svg PUBLIC "-//W3C//DTD SVG 1.1//EN" "http://www.w3.org/Graphics/SVG/1.1/DTD/svg11.dtd">
<svg version="1.1" id="Слой_1" xmlns="http://www.w3.org/2000/svg" xmlns:xlink="http://www.w3.org/1999/xlink" x="0px" y="0px"
	 width="595.28px" height="841.89px" viewBox="0 0 595.28 841.89" enable-background="new 0 0 595.28 841.89" xml:space="preserve">
<path fill="#727272" d="M244.516,507.105c0.044,0,0.076,0,0.107,0c5.021,0,10.042-0.002,15.064,0.002
	c0.946,0.001,1.659,0.43,2.133,1.244c0.206,0.353,0.296,0.744,0.296,1.154c-0.001,1.419,0,2.837,0,4.256c0,0.68,0,1.36,0,2.04
	c0,0.031,0,0.063,0,0.099c-0.533,0-1.06,0-1.6,0c0-0.031,0-0.064,0-0.097c0-2.077,0-4.155,0-6.232c0-0.289-0.093-0.532-0.33-0.709
	c-0.123-0.092-0.262-0.147-0.414-0.151c-0.282-0.006-0.564-0.002-0.856-0.002c0,0.037,0,0.073,0,0.109c0,4.483,0,8.965,0,13.448
	c0,0.76-0.286,1.39-0.863,1.881c-0.41,0.349-0.893,0.532-1.432,0.555c-0.192,0.008-0.384,0.002-0.576,0.002
	c-2.232,0-4.464,0.001-6.696,0c-0.846-0.001-1.519-0.351-2.009-1.037c-0.269-0.377-0.405-0.805-0.423-1.269
	c-0.002-0.048-0.001-0.096-0.001-0.144c0-3.088,0-6.176-0.002-9.264c0-0.056-0.014-0.117-0.04-0.166
	c-0.772-1.523-1.547-3.045-2.32-4.569c-0.024-0.047-0.037-0.105-0.038-0.159c-0.004-0.299-0.002-0.597-0.002-0.896
	C244.516,507.172,244.516,507.143,244.516,507.105z M257.312,518.302c-1.068,0-2.13,0-3.192,0c0-0.536,0-1.063,0-1.598
	c1.066,0,2.128,0,3.19,0c0-0.538,0-1.067,0-1.601c-0.533,0-1.06,0-1.589,0c0-0.535,0-1.064,0-1.601c0.534,0,1.063,0,1.59,0
	c0-0.536,0-1.063,0-1.598c-1.066,0-2.129,0-3.189,0c0-0.538,0-1.066,0-1.601c1.067,0,2.127,0,3.188,0c0-0.535,0-1.064,0-1.594
	c-3.575,0-7.145,0-10.723,0c0.017,0.036,0.03,0.067,0.045,0.098c0.615,1.209,1.231,2.418,1.844,3.629
	c0.024,0.047,0.038,0.105,0.038,0.159c0.003,0.467,0.002,0.933,0.002,1.4c0,2.744,0,5.488,0,8.232c0,0.14,0.012,0.277,0.073,0.405
	c0.159,0.332,0.432,0.476,0.792,0.476c2.357,0,4.714,0,7.072,0c0.027,0,0.053,0,0.08-0.002c0.419-0.024,0.73-0.296,0.77-0.713
	c0.028-0.288,0.009-0.58,0.011-0.871c0-0.004-0.007-0.008-0.015-0.018c-0.522,0-1.049,0-1.576,0c0-0.535,0-1.064,0-1.598
	c0.533,0,1.06,0,1.59,0C257.312,519.37,257.312,518.843,257.312,518.302z"/>
</svg>
