<?xml version="1.0" encoding="utf-8"?>
<!-- Generator: Adobe Illustrator 17.0.0, SVG Export Plug-In . SVG Version: 6.00 Build 0)  -->
<!DOCTYPE svg PUBLIC "-//W3C//DTD SVG 1.1//EN" "http://www.w3.org/Graphics/SVG/1.1/DTD/svg11.dtd">
<svg version="1.1" id="Слой_1" xmlns="http://www.w3.org/2000/svg" xmlns:xlink="http://www.w3.org/1999/xlink" x="0px" y="0px"
	 width="512px" height="512px" viewBox="0 0 512 512" enable-background="new 0 0 512 512" xml:space="preserve">
<path fill="#565656" d="M58.198-204.104c19.859,1.256,40.93,2.411,61.971,3.963c27.254,2.011,54.45,5.397,81.734,6.295
	c45.879,1.51,90.324-6.627,133.046-23.735c23.597-9.449,45.328-22.3,66.709-35.862c17.598-11.162,35.608-21.576,55.681-27.79
	c16.815-5.205,33.983-7.376,50.597-0.43c20.916,8.745,43.232,12.41,64.613,19.38c18.874,6.152,37.497,12.705,54.136,23.913
	c25.551,17.211,37.332,41.372,36.584,71.895c-0.162,6.611-0.692,13.215-1.146,19.816c-0.865,12.567-0.229,24.976,4.329,36.868
	c5.607,14.627,16.53,24.582,29.875,31.785c10.934,5.902,22.411,10.803,33.692,16.052c11.788,5.485,23.404,11.277,33.246,19.947
	c18.575,16.363,25.345,37.303,22.069,61.323c-1.607,11.786-5.52,23.24-7.718,34.97c-1.274,6.797-1.905,13.876-1.594,20.772
	c0.456,10.117,5.721,18.326,13.325,24.689c13.192,11.038,21.301,25.291,26.738,41.202c3.858,11.291,7.753,22.661,10.293,34.288
	c3.239,14.826,0.47,29.52-3.829,43.896c-7.239,24.205-20.307,45.085-36.518,64.191c-2.42,2.852-4.565,5.937-6.883,8.878
	c-11.159,14.161-13.063,29.752-5.926,46.017c6.648,15.151,14.149,29.934,21.472,44.782c10.328,20.944,17.568,42.863,20.446,66.046
	c3.556,28.652,6.033,57.399,3.891,86.315c-1.442,19.46-4.96,38.523-11.595,56.948c-7.76,21.548-22.661,37.359-40.745,50.509
	c-12.409,9.023-25.17,17.563-37.642,26.501c-16.541,11.853-30.248,26.206-40.155,44.244c-20.09,36.578-51.413,58.347-91.781,67.156
	c-19.209,4.192-38.648,7.403-58.063,10.564c-21.405,3.485-42.871,6.64-64.368,9.512c-35.251,4.709-69.624,13.695-104.363,20.905
	c-24.498,5.085-49.208,9.269-73.508,15.157c-32.152,7.792-63.887,17.297-96.006,25.238c-27.16,6.715-54.489,12.899-81.973,18.11
	c-22.693,4.303-45.797,6.091-68.953,5.54c-7.32-0.174-14.67-1.226-21.901-2.484c-7.801-1.357-13.678-5.856-17.302-12.991
	c-2.199-4.33-4.166-8.777-6.29-13.146c-7.176-14.758-19.174-22.948-35.201-25.227c-6.527-0.928-13.181-1.6-19.755-1.442
	c-19.089,0.457-37.87-1.849-56.531-5.451c-21.387-4.128-42.858-7.923-64.071-12.822c-25.334-5.851-48.755-16.048-67.836-34.44
	c-17.187-16.565-26.496-37.043-30.025-60.461c-3.192-21.186-0.383-42.04,2.614-62.961c3.057-21.341,6.44-42.684,8.203-64.148
	c2.035-24.774-3.855-48.8-9.549-72.762c-4.718-19.851-9.575-39.73-12.885-59.841c-6.805-41.343,1.512-79.529,26.253-113.823
	c10.144-14.06,20.146-28.236,29.771-42.655c16.23-24.312,22.117-51.509,21.175-80.387c-1.027-31.488-5.031-62.632-11.133-93.527
	c-3.796-19.218-7.006-38.514-7.662-58.162c-1.161-34.773,12.779-62.19,39.569-83.921c13.751-11.154,27.272-22.737,39.78-35.244
	c15.894-15.893,26.853-35.541,38.428-54.666c9.739-16.092,19.396-32.329,30.454-47.507c21.712-29.799,51.668-45.881,88.331-49.157
	C28.482-202.745,42.722-203.203,58.198-204.104z M62.673-113.237c-14.153,1.147-27.463,2.105-40.747,3.341
	c-9.373,0.872-17.186,4.889-22.914,12.564c-1.791,2.4-3.799,4.665-5.364,7.204c-11.251,18.25-22.279,36.639-33.635,54.823
	C-56.078-9.539-74.795,14.055-98.206,33.67c-9.954,8.34-19.85,16.749-29.807,25.086c-2.354,1.971-3.771,4.271-3.415,7.441
	c0.778,6.936,1.303,13.912,2.377,20.803c2.437,15.634,5.556,31.171,7.642,46.847c2.976,22.375,5.445,44.822,7.812,67.272
	c2.09,19.813,1.953,39.678-0.366,59.469c-3.746,31.968-14.521,61.541-32.017,88.461c-11.003,16.93-22.831,33.344-34.752,49.651
	c-8.176,11.185-12.676,23.378-11.014,37.069c1.737,14.311,4.103,28.601,7.187,42.683c6.448,29.436,14.133,58.599,16.332,88.834
	c1.904,26.181,0.199,52.132-3.587,78.028c-0.262,1.794-0.053,4.135,0.916,5.554c6.677,9.78,13.118,19.788,20.584,28.948
	c11.329,13.9,25.062,24.998,42.119,31.368c20.1,7.508,40.375,6.262,60.674,0.882c25.426-6.739,48.66-18.447,70.684-32.445
	c25.046-15.919,49.408-32.913,74.417-48.893c11.3-7.22,23.097-13.888,35.3-19.411c13.764-6.229,28.34-7.014,42.322-0.017
	c5.759,2.882,11.028,6.792,16.36,10.466c7.682,5.293,16.012,8.665,25.328,6.715c6.378-1.335,12.847-3.367,18.594-6.385
	c21.16-11.112,37.056-28.102,50.635-47.394c6.069-8.622,8.886-18.355,8.161-28.956c-0.588-8.591-1.384-17.167-2.002-25.756
	c-2.097-29.171,6.907-53.558,30.911-71.442c16.715-12.453,35.753-19.849,55.942-23.703c22.779-4.348,43.674-12.442,62.708-25.722
	c9.816-6.848,20.308-12.694,31.801-16.391c8.286-2.665,16.624-5.178,24.988-7.587c18.043-5.197,35.489-11.67,50.863-22.817
	c19.845-14.389,28.773-33.695,26.873-58.204c-1.235-15.923-5.278-31.183-10.45-46.13c-7.084-20.476-12.134-41.312-9.837-63.038
	c1.737-16.436,5.188-32.687,7.66-49.052c2.287-15.144,4.791-30.283,6.285-45.513c1.877-19.139-2.161-37.739-7.076-56.118
	c-6.024-22.525-7.758-45.08-1.847-67.984c2.547-9.868,5.145-19.927,5.818-30.026c0.993-14.903,0.817-29.942,0.178-44.882
	c-0.875-20.479-4.64-40.583-9.95-60.391c-0.612-2.285-1.613-3.54-3.967-4.228c-17.189-5.02-34.287-10.36-51.513-15.249
	c-20.764-5.892-20.723-5.603-39.365,5.622c-19.429,11.699-38.567,24.01-58.666,34.446c-58.33,30.285-120.917,44.092-186.371,45.79
	c-29.155,0.756-58.07-2.166-87.014-5.262C107.551-110.32,84.723-111.537,62.673-113.237z"/>
<path fill="#565656" d="M224.791,234.467c0.749-13.176,0.921-24.572,2.144-35.853c2.171-20.013-2.145-38.611-10.517-56.607
	c-3.146-6.762-5.674-13.81-8.529-20.71c-7.532-18.204-6.511-36.339,1.016-54.158c2.982-7.059,6.392-14.159,10.887-20.305
	c6.825-9.334,17.743-11.882,28.397-14.318c5.212-1.192,10.452-2.265,15.683-3.377c10.356-2.201,19.051-7.596,27.573-13.641
	c18.722-13.28,37.898-25.861,59.1-34.985c8.615-3.707,17.408-6.923,26.826-7.608c4.181-0.304,8.552-0.176,12.631,0.708
	c10.289,2.229,14.625,9.944,16.642,19.467c2.195,10.361-0.658,20.265-2.507,30.306c-1.211,6.579-2.559,13.317-2.346,19.935
	c0.376,11.647,7.531,19.715,16.439,26.374c3.099,2.317,6.224,4.6,9.388,6.826c7.01,4.931,8.746,11.629,7.101,19.749
	c-1.499,7.402-5.454,13.555-9.166,19.907c-3.07,5.253-6.042,10.61-8.472,16.177c-2.848,6.521-1.707,12.953,2.113,18.875
	c2.095,3.248,4.383,6.37,6.521,9.591c6.856,10.327,4.887,20.547-5.518,27.389c-3.405,2.239-7.077,4.297-10.908,5.625
	c-20.229,7.01-37.495,19.017-54.408,31.674c-14.164,10.6-26.51,23.152-38.708,35.876c-8.681,9.055-17.829,17.548-29.883,21.996
	c-12.298,4.539-24.759,4.475-37.036,0.155c-13.541-4.766-20.043-15.505-22.442-28.91
	C225.524,247.417,225.318,240.019,224.791,234.467z"/>
<path fill="#565656" d="M88.482,298.395c0,1.748-0.074,3.5,0.012,5.243c0.445,8.953,2.514,11.651,11.136,14.644
	c11.614,4.032,14.583,11.444,7.626,21.827c-10.094,15.065-17.807,31.134-22.526,48.576c-2.401,8.875-3.924,17.987-5.864,26.988
	c-3.185,14.773-10.895,25.518-26.277,29.379c-7.894,1.982-14.97-0.227-20.088-6.056c-5.549-6.319-10.16-13.498-14.844-20.526
	c-3.033-4.55-5.46-9.504-8.163-14.274c-5.307-9.368-13.43-15.916-21.818-22.328c-6.72-5.137-13.709-10.232-19.264-16.509
	c-8.66-9.788-11.866-22.026-11.568-35.019c0.057-2.471,1.284-5.055,2.478-7.32c1.205-2.287,2.779-4.512,4.637-6.301
	c20.711-19.945,15.142-15.588,25.747-39.073c5.493-12.164,11.279-24.198,20.204-34.335c4.176-4.743,8.848-8.701,15.648-9.333
	c4.798-0.446,8.943,0.84,11.59,4.608c3.112,4.429,5.573,9.347,8.017,14.203c1.672,3.322,2.714,6.956,4.249,10.354
	c3.691,8.166,10.532,11.592,19.067,12.277c2.24,0.18,4.498,0.117,6.742,0.26c7.752,0.497,11.269,3.44,12.659,11.161
	c0.68,3.779,0.677,7.681,0.982,11.527C88.736,298.377,88.609,298.386,88.482,298.395z"/>
</svg>
