<?xml version="1.0" encoding="utf-8"?>
<!-- Generator: Adobe Illustrator 17.0.0, SVG Export Plug-In . SVG Version: 6.00 Build 0)  -->
<!DOCTYPE svg PUBLIC "-//W3C//DTD SVG 1.1//EN" "http://www.w3.org/Graphics/SVG/1.1/DTD/svg11.dtd">
<svg version="1.1" id="Слой_1" xmlns="http://www.w3.org/2000/svg" xmlns:xlink="http://www.w3.org/1999/xlink" x="0px" y="0px"
	 width="800px" height="1000px" viewBox="0 0 800 1000" enable-background="new 0 0 800 1000" xml:space="preserve">
<g>
	<g>
		<path fill="#4B78BA" d="M-1687.25,1099.16c0-185.776,0-371.552,0-557.328c0.187-0.308,0.491-0.597,0.544-0.927
			c2.358-14.5,10.425-24.91,22.509-32.933c59.529-39.525,118.933-79.239,178.397-118.862c31.082-20.711,62.141-41.458,93.333-62.002
			c9.112-6.002,19.459-7.835,30.17-6.084c23.094,3.774,38.729,22.339,38.754,45.769c0.047,43.63,0.013,87.26,0.014,130.889
			c0,1.442,0,2.883,0,4.529c9.814,0,19.056,0.111,28.292-0.084c2.094-0.044,4.474-0.683,6.202-1.831
			c43.774-29.07,87.474-58.252,131.197-87.398c41.869-27.91,83.773-55.769,125.613-83.722c12.475-8.335,25.837-10.948,40.288-6.692
			c19.278,5.678,32.081,23.543,32.111,44.798c0.061,43.38,0.019,86.76,0.019,130.139c0,1.463,0,2.926,0,4.844
			c30.455,0,60.5,0,90.89,0c0,108.301,0,216.142,0,323.982c0.76-2.441,0.982-4.904,1.202-7.366
			c1.86-20.776,3.735-41.552,5.577-62.33c1.896-21.4,3.745-42.804,5.643-64.204c1.853-20.901,3.76-41.797,5.609-62.699
			c1.872-21.151,3.681-42.308,5.555-63.459c1.874-21.15,3.809-42.295,5.693-63.445c1.906-21.398,3.774-42.8,5.674-64.199
			c1.601-18.04,3.235-36.077,4.833-54.118c1.895-21.399,3.75-42.802,5.652-64.201c1.847-20.777,3.75-41.55,5.595-62.327
			c1.911-21.524,3.772-43.052,5.675-64.576c1.596-18.041,3.231-36.078,4.831-54.118c1.644-18.539,3.264-37.08,4.899-55.62
			c1.624-18.414,3.212-36.832,4.896-55.241c1.024-11.188,1.355-22.527,3.486-33.509c4.272-22.02,22.629-36.014,45.991-36.073
			c29.253-0.073,58.506-0.034,87.76-0.011c14.25,0.011,28.516-0.297,42.748,0.235c21.227,0.793,39.028,16.897,42.011,37.979
			c1.345,9.501,1.592,19.164,2.205,28.762c1.401,21.946,2.71,43.897,4.077,65.845c1.383,22.198,2.799,44.393,4.187,66.591
			c1.638,26.188,3.257,52.378,4.893,78.566c1.363,21.822,2.749,43.643,4.106,65.466c1.365,21.947,2.691,43.896,4.061,65.842
			c1.378,22.072,2.804,44.142,4.18,66.214c1.368,21.948,2.681,43.899,4.052,65.847c1.378,22.073,2.824,44.142,4.192,66.215
			c1.839,29.679,3.605,59.363,5.454,89.041c1.64,26.313,3.384,52.62,5.02,78.934c1.853,29.804,3.607,59.614,5.461,89.418
			c1.637,26.313,3.396,52.618,5.02,78.932c2.101,34.046,4.089,68.099,6.188,102.145c1.877,30.429,3.914,60.849,5.735,91.282
			c1.083,18.092-8.766,33.812-25.482,39.481c-6.364,2.158-13.438,3.108-20.19,3.111c-362.29,0.144-724.58,0.127-1086.87,0.127
			c-1.125,0-2.253,0.048-3.375-0.018c-18.221-1.059-31.844-9.409-39.984-25.874
			C-1684.776,1108.604-1685.75,1103.752-1687.25,1099.16z M-1460.082,593.459c-30.384,0-60.426,0-90.48,0
			c0,45.444,0,90.616,0,135.817c30.282,0,60.313,0,90.48,0C-1460.082,683.931-1460.082,638.854-1460.082,593.459z
			 M-1232.793,729.374c0-45.542,0-90.626,0-135.858c-30.259,0-60.387,0-90.447,0c0,45.494,0,90.657,0,135.858
			C-1293,729.374-1263.05,729.374-1232.793,729.374z M-1005.491,729.37c0-45.542,0-90.625,0-135.853c-30.265,0-60.392,0-90.441,0
			c0,45.497,0,90.663,0,135.853C-1065.696,729.37-1035.746,729.37-1005.491,729.37z M-1460.141,956.667c0-45.53,0-90.613,0-135.87
			c-30.235,0-60.274,0-90.405,0c0,45.421,0,90.594,0,135.87C-1520.32,956.667-1490.36,956.667-1460.141,956.667z M-1232.851,820.846
			c-30.319,0-60.359,0-90.37,0c0,45.468,0,90.636,0,135.772c30.267,0,60.225,0,90.37,0
			C-1232.851,911.332-1232.851,866.253-1232.851,820.846z M-1096.03,956.539c30.347,0,60.388,0,90.358,0c0-45.452,0-90.616,0-135.76
			c-30.269,0-60.221,0-90.358,0C-1096.03,866.089-1096.03,911.17-1096.03,956.539z"/>
	</g>
</g>
</svg>
