<?xml version="1.0" encoding="utf-8"?>
<!-- Generator: Adobe Illustrator 17.0.0, SVG Export Plug-In . SVG Version: 6.00 Build 0)  -->
<!DOCTYPE svg PUBLIC "-//W3C//DTD SVG 1.1//EN" "http://www.w3.org/Graphics/SVG/1.1/DTD/svg11.dtd">
<svg version="1.1" id="Var2" xmlns="http://www.w3.org/2000/svg" xmlns:xlink="http://www.w3.org/1999/xlink" x="0px" y="0px"
	 width="2028.519px" height="1671.379px" viewBox="0 0 2028.519 1671.379" enable-background="new 0 0 2028.519 1671.379"
	 xml:space="preserve">
<path fill="#686868" d="M1901.543,253.75h0.124c70.037,0,126.813-56.776,126.813-126.813v-0.062
	C2028.48,56.804,1971.677,0,1901.606,0h0c-70.071,0-126.875,56.804-126.875,126.875v0.062
	C1774.73,196.974,1831.507,253.75,1901.543,253.75z"/>
<g id="instagram_3_">
	<path fill="#FFFFFF" d="M1901.605,73.537c17.372,0,19.43,0.066,26.29,0.379c6.343,0.289,9.788,1.349,12.081,2.24
		c3.037,1.18,5.204,2.59,7.481,4.867c2.277,2.277,3.687,4.444,4.867,7.481c0.891,2.293,1.951,5.738,2.24,12.081
		c0.313,6.86,0.379,8.918,0.379,26.29c0,17.372-0.066,19.43-0.379,26.29c-0.289,6.343-1.349,9.788-2.24,12.081
		c-1.18,3.037-2.59,5.204-4.867,7.481c-2.277,2.277-4.444,3.687-7.481,4.867c-2.293,0.891-5.738,1.951-12.081,2.24
		c-6.859,0.313-8.917,0.379-26.29,0.379c-17.373,0-19.431-0.066-26.29-0.379c-6.343-0.289-9.788-1.349-12.081-2.24
		c-3.037-1.18-5.204-2.59-7.481-4.867c-2.277-2.277-3.687-4.444-4.867-7.481c-0.891-2.293-1.951-5.738-2.24-12.081
		c-0.313-6.861-0.379-8.918-0.379-26.29c0-17.372,0.066-19.43,0.379-26.29c0.289-6.343,1.349-9.788,2.24-12.081
		c1.18-3.037,2.59-5.204,4.867-7.481c2.277-2.277,4.444-3.687,7.481-4.867c2.293-0.891,5.738-1.951,12.081-2.24
		C1882.176,73.603,1884.233,73.537,1901.605,73.537 M1901.605,61.814c-17.669,0-19.885,0.075-26.824,0.391
		c-6.925,0.316-11.655,1.416-15.793,3.024c-4.278,1.663-7.907,3.887-11.524,7.504c-3.617,3.617-5.842,7.245-7.504,11.524
		c-1.608,4.139-2.708,8.868-3.024,15.793c-0.317,6.939-0.391,9.155-0.391,26.825c0,17.67,0.075,19.885,0.391,26.825
		c0.316,6.925,1.416,11.654,3.024,15.793c1.663,4.278,3.887,7.907,7.504,11.524c3.617,3.617,7.245,5.842,11.524,7.504
		c4.138,1.608,8.868,2.708,15.793,3.024c6.939,0.317,9.155,0.391,26.824,0.391c17.67,0,19.885-0.075,26.825-0.391
		c6.925-0.316,11.654-1.416,15.793-3.024c4.278-1.663,7.907-3.887,11.524-7.504c3.617-3.617,5.842-7.245,7.504-11.524
		c1.608-4.139,2.708-8.868,3.024-15.793c0.317-6.939,0.391-9.155,0.391-26.825s-0.075-19.885-0.391-26.825
		c-0.316-6.925-1.416-11.654-3.024-15.793c-1.663-4.278-3.887-7.907-7.504-11.524c-3.617-3.617-7.245-5.842-11.524-7.504
		c-4.139-1.608-8.868-2.708-15.793-3.024C1921.49,61.889,1919.275,61.814,1901.605,61.814L1901.605,61.814z"/>
	<path fill="#FFFFFF" d="M1901.605,93.465c-18.452,0-33.41,14.958-33.41,33.41s14.958,33.41,33.41,33.41
		c18.452,0,33.41-14.958,33.41-33.41S1920.057,93.465,1901.605,93.465z M1901.605,148.562c-11.977,0-21.687-9.71-21.687-21.687
		s9.71-21.687,21.687-21.687s21.687,9.71,21.687,21.687S1913.583,148.562,1901.605,148.562z"/>
	<circle fill="#FFFFFF" cx="1936.335" cy="92.145" r="7.807"/>
</g>
</svg>
