<?xml version="1.0" encoding="utf-8"?>
<!-- Generator: Adobe Illustrator 17.0.0, SVG Export Plug-In . SVG Version: 6.00 Build 0)  -->
<!DOCTYPE svg PUBLIC "-//W3C//DTD SVG 1.1//EN" "http://www.w3.org/Graphics/SVG/1.1/DTD/svg11.dtd">
<svg version="1.1" id="Слой_1" xmlns="http://www.w3.org/2000/svg" xmlns:xlink="http://www.w3.org/1999/xlink" x="0px" y="0px"
	 width="634px" height="402px" viewBox="0 0 634 402" enable-background="new 0 0 634 402" xml:space="preserve">
<g>
	<polygon fill="#4B78B9" points="102.149,163.833 155.172,163.833 128.661,215.065 83.161,200.018 	"/>
	<polygon fill="#4B78B9" points="208.144,163 181.7,216.5 234.955,216.5 262.133,163 	"/>
	<path fill="#4B78B9" d="M410.917,97.5l-39,34h-306l-39,81.5l92,37.5h250l61.5-122.5l75.5-17.5l13-23.5L410.917,97.5z M69.917,205
		l26.5-50.5h74l-37,71.5L69.917,205z M166.917,225.5l36-71.5h73.5l-37,71.5H166.917z M345.75,225.5h-72.5l36-71.5h73.5L345.75,225.5
		z"/>
	<polygon fill="#4B78B9" points="314.477,163 288.033,216.5 341.288,216.5 368.467,163 	"/>
	<path fill="#4B78B9" d="M118.75,260c0,0-33.333,16.667-33.333,56.667c-6,0-6,0-6,0S63.75,314,63.75,298.333s0-22,0-22
		S64.75,260,80.417,260S118.75,260,118.75,260z"/>
	<path fill="#4B78B9" d="M182.417,259.667h65c0,0-32.333,17.333-32.333,49C215.083,282.333,184.75,260.333,182.417,259.667z"/>
	<path fill="#4B78B9" d="M150.75,260.333c-31.112,0-56.333,25.221-56.333,56.333s25.221,56.333,56.333,56.333
		s56.333-25.221,56.333-56.333C207.083,285.555,181.862,260.333,150.75,260.333z M150.917,343.167c-14.636,0-26.5-11.864-26.5-26.5
		c0-14.635,11.864-26.5,26.5-26.5s26.5,11.865,26.5,26.5S165.552,343.167,150.917,343.167z"/>
	<circle fill="#4B78B9" cx="150.917" cy="316.667" r="17.75"/>
	<path fill="#4B78B9" d="M279.25,260.333c-31.112,0-56.333,25.221-56.333,56.333s25.221,56.333,56.333,56.333
		s56.333-25.221,56.333-56.333C335.583,285.555,310.362,260.333,279.25,260.333z M279.417,343.167c-14.636,0-26.5-11.864-26.5-26.5
		c0-14.635,11.864-26.5,26.5-26.5s26.5,11.865,26.5,26.5S294.052,343.167,279.417,343.167z"/>
	<circle fill="#4B78B9" cx="279.417" cy="316.667" r="17.75"/>
	<path fill="#4B78B9" d="M513.25,260.333c-31.112,0-56.333,25.221-56.333,56.333s25.221,56.333,56.333,56.333
		s56.333-25.221,56.333-56.333C569.583,285.555,544.362,260.333,513.25,260.333z M513.417,343.167c-14.636,0-26.5-11.864-26.5-26.5
		c0-14.635,11.864-26.5,26.5-26.5s26.5,11.865,26.5,26.5S528.052,343.167,513.417,343.167z"/>
	<circle fill="#4B78B9" cx="513.417" cy="316.667" r="17.75"/>
	<polygon fill="#4B78B9" points="395.75,216.667 395.75,249.5 417.917,249.5 417.917,174.167 	"/>
	<path fill="#4B78B9" d="M91.083,119.667h271.333c0,0-8.667-13-23.667-22.667c-1.333,0.333-6,1-6,1l-8.333-6.333l1-4.333l-16.333-13
		l-7.667,2.333l-14.333-9.333l-8,2.333l-1-3l-15-12L258.75,55l-0.333-5.333l-15-11.667l-9.333,3l-13.333-6.667l-16,11.333
		l-0.333,5.667l-2,2.667l-5-2l-15,10.667l-2.667,5l-11.333-1L153.75,78.333l0.333,4.333l-5,0.333l-16.667,14.667l-5.667-0.333
		l-15.333,12L111.083,112l-4,2l-5.667-2.667L91.083,119.667z"/>
	<path fill="#4B78B9" d="M608.75,250.667c0,0-4,0-9,0c0-11.667-4-25.667-4-25.667s-27.333-65.333-32.333-76.333
		c-9.333-15-21-13.667-21-13.667s-81.667,0-94,0s-14,14.333-14,14.333v111H312.083c36.333,24,32.667,56.667,32.667,56.667
		s95.667,0,103,0c0-8.333,6.667-65,66.333-65c59.667,0,63.667,64.667,63.667,64.667s4.667,0,8.667,0c13,0,15.333-15,15.333-15
		v-15.333c0,0,2,0,6.667,0s6.667-9,6.667-9s0-5,0-14.667C615.083,253,608.75,250.667,608.75,250.667z M566.167,203.75
		c0,0-52.5,0-64.5,0c-11.5-7-20-21.5-20-21.5v-28.5c0-4.25,3.75-3.75,3.75-3.75s49.75,0,57,0s6.75,5,6.75,5s17.75,41.5,19.5,45
		C568.667,203.25,566.167,203.75,566.167,203.75z"/>
</g>
</svg>
