<?xml version="1.0" encoding="utf-8"?>
<!-- Generator: Adobe Illustrator 17.0.0, SVG Export Plug-In . SVG Version: 6.00 Build 0)  -->
<!DOCTYPE svg PUBLIC "-//W3C//DTD SVG 1.1//EN" "http://www.w3.org/Graphics/SVG/1.1/DTD/svg11.dtd">
<svg version="1.1" id="Слой_1" xmlns="http://www.w3.org/2000/svg" xmlns:xlink="http://www.w3.org/1999/xlink" x="0px" y="0px"
	 width="131.25px" height="117px" viewBox="0 0 131.25 117" enable-background="new 0 0 131.25 117" xml:space="preserve">
<g>
	<path fill="#FFFFFF" d="M120.671,37.966H85.544L67.892,53.058h52.779c5.416,0,8.829-3.379,8.829-7.546
		C129.5,41.344,126.087,37.966,120.671,37.966z"/>
	<path fill="#FFFFFF" d="M51.714,52.488c-1.774-2.075-2.826-4.608-2.961-7.133c-0.154-2.88,0.916-5.521,2.934-7.247l0.167-0.142
		H10.329c-5.416,0-8.829,3.379-8.829,7.546c0,4.168,3.413,7.546,8.829,7.546h41.924C52.071,52.87,51.885,52.688,51.714,52.488z"/>
	<path fill="#FFFFFF" d="M9.421,62.056l8.923,42.699l0.037-0.001c0.638,5.763,3.964,10.16,7.983,10.16h78.272
		c4.019,0,7.345-4.398,7.983-10.16l0.037,0.001l8.923-42.699C121.579,62.056,9.421,62.056,9.421,62.056z M38.833,108.053
		c-2.35,0-4.255-1.317-4.255-2.941l-5-32.504c0.001-1.625,1.905-2.941,4.255-2.941s4.255,1.317,4.255,2.941l5,32.504
		C43.088,106.736,41.183,108.053,38.833,108.053z M56.667,108.053c-2.35,0-4.255-1.317-4.255-2.941l-2-32.504
		c0-1.625,1.905-2.941,4.255-2.941c2.35,0,4.255,1.317,4.255,2.941l2,32.504C60.922,106.736,59.017,108.053,56.667,108.053z
		 M78.588,105.112c0,1.624-1.905,2.941-4.255,2.941s-4.255-1.317-4.255-2.941l2-32.504c0-1.624,1.905-2.941,4.255-2.941
		s4.255,1.316,4.255,2.941L78.588,105.112z M96.422,105.112c0,1.624-1.905,2.941-4.255,2.941s-4.255-1.317-4.255-2.941l5-32.504
		c0-1.624,1.905-2.941,4.255-2.941s4.254,1.316,4.255,2.941L96.422,105.112z"/>
	<path fill="#FFFFFF" d="M107.577,4.724c-2.493-2.916-6.326-3.731-8.561-1.82l-44.73,38.244c-2.235,1.911-2.026,5.824,0.467,8.74
		s6.326,3.731,8.561,1.82l44.73-38.244C110.28,11.554,110.07,7.64,107.577,4.724z M61.565,48.294
		c-2.191,0.167-4.103-1.474-4.27-3.665s1.474-4.103,3.665-4.27s4.103,1.474,4.27,3.665S63.756,48.127,61.565,48.294z"/>
</g>
</svg>
