<?xml version="1.0" encoding="utf-8"?>
<!-- Generator: Adobe Illustrator 17.0.0, SVG Export Plug-In . SVG Version: 6.00 Build 0)  -->
<!DOCTYPE svg PUBLIC "-//W3C//DTD SVG 1.1//EN" "http://www.w3.org/Graphics/SVG/1.1/DTD/svg11.dtd">
<svg version="1.1" id="Слой_1" xmlns="http://www.w3.org/2000/svg" xmlns:xlink="http://www.w3.org/1999/xlink" x="0px" y="0px"
	 width="70.866px" height="68.031px" viewBox="0 0 70.866 68.031" enable-background="new 0 0 70.866 68.031" xml:space="preserve">
<g>
	<path fill="#4B78B9" d="M34.068,36.15c2.833-0.042,3.958-0.667,8.125,5.5s6,8.083,12,11.25s5.625,8.75,2.125,11.875
		c-3.84,3.429-12.75,0.5-15.75-0.5s-8.5,0.083-11,1.25s-13.174,2.909-16.5-2.875c-2.875-5,3.667-11,7.5-14.667
		C24.401,44.317,27.567,36.246,34.068,36.15z"/>
	<path fill="#4B78B9" d="M54.991,16.238c-0.635,7.244-6.234,12.671-9.783,12.36c-3.546-0.311-8.119-6.629-7.484-13.873
		s3.704-13.896,9.87-13.356C54.686,1.99,55.626,8.994,54.991,16.238z"/>
	<path fill="#4B78B9" d="M67.774,42.311c-3.07,5.774-9.949,8.121-13.014,6.491c-3.062-1.628-4.967-8.644-1.897-14.419
		s8.111-10.117,13.436-7.285C72.423,30.355,70.844,36.537,67.774,42.311z"/>
	<path fill="#4B78B9" d="M16.438,36.655c0.443,6.328-3.907,11.788-7.194,12.018c-3.284,0.23-8.356-4.57-8.799-10.898
		s1.421-12.488,7.133-12.888C14.146,24.427,15.995,30.327,16.438,36.655z"/>
	<path fill="#4B78B9" d="M30.915,15.083c0.335,7.264-4.492,13.388-8.051,13.552c-3.556,0.164-8.929-5.489-9.264-12.753
		s1.821-14.266,8.005-14.551C28.716,1.003,30.58,7.819,30.915,15.083z"/>
</g>
</svg>
