<?xml version="1.0" encoding="utf-8"?>
<!-- Generator: Adobe Illustrator 17.0.0, SVG Export Plug-In . SVG Version: 6.00 Build 0)  -->
<!DOCTYPE svg PUBLIC "-//W3C//DTD SVG 1.1//EN" "http://www.w3.org/Graphics/SVG/1.1/DTD/svg11.dtd">
<svg version="1.1" id="Слой_1" xmlns="http://www.w3.org/2000/svg" xmlns:xlink="http://www.w3.org/1999/xlink" x="0px" y="0px"
	 width="210px" height="215.43px" viewBox="0 0 210 215.43" enable-background="new 0 0 210 215.43" xml:space="preserve">
<g>
	<path fill="#4B78B9" d="M128.853,163.092c-14.242,0.29-23.578-6.137-28.075-19.67c-0.729-2.195-1.209-4.474-1.841-6.854
		c-10.536,2.763-20.768,5.445-31.136,8.164c6.113,26.995,21.473,43.549,49.64,46.455c0,8.42,0,16.344,0,24.245
		c6.813,0,13.292,0,20.044,0c0-8.101,0-16.044,0-23.863c0.551-0.31,0.826-0.56,1.137-0.621c0.768-0.148,1.555-0.191,2.33-0.308
		c2.247-0.338,4.46-0.755,6.632-1.264C139.182,182.517,132.641,173.463,128.853,163.092z"/>
	<g>
		<path fill="#4B78B9" d="M209.485,70.436c-34.724,0-62.873,28.149-62.873,62.874c0,34.724,28.149,62.874,62.873,62.874
			s62.874-28.15,62.874-62.874S244.21,70.436,209.485,70.436z M203.913,168.965c-0.734,0.734-1.843,1.841-3.524,1.841
			c-1.679,0-2.786-1.107-3.518-1.839c-10.877-10.871-21.75-21.744-32.621-32.621c-2.465-2.465-2.465-4.57,0.002-7.039
			c2.83-2.843,5.669-5.681,8.515-8.517c0.742-0.74,1.864-1.858,3.543-1.858c1.693,0,2.798,1.105,3.604,1.911
			c6.831,6.824,13.659,13.653,20.483,20.485c11.63-11.643,23.267-23.279,34.907-34.916l5.955-5.953
			c0.96-0.962,2.052-2.052,3.739-2.052c1.683,0,2.758,1.073,3.703,2.018l1.809,1.807c2.204,2.2,4.409,4.403,6.605,6.609
			c2.354,2.368,2.351,4.57-0.015,6.936L203.913,168.965z"/>
		<path fill="#4B78B9" d="M138.573,86.348c-6.676-2.766-13.354-5.525-19.984-8.398c-4.129-1.79-7.301-4.78-8.661-9.328
			c-3.807-12.723,6.831-25.028,20.196-23.498c9.425,1.078,15.432,6.624,19.708,14.531c1.572,2.908,2.863,5.968,4.337,9.076
			c7.711-6.615,16.602-11.888,26.328-15.423c-7.033-20.035-21.037-31.847-43.075-34.611c0-6.499,0-12.627,0-18.699
			c-6.897,0-13.456,0-20.195,0c0,6.308,0,12.362,0,18.582c-1.226,0.257-2.302,0.503-3.386,0.708
			C100.525,21.811,89,27.387,81.884,39.484c-11.025,18.742-12.009,37.759-0.041,56.521c6.002,9.408,15.469,14.423,25.482,18.49
			c5.951,2.418,11.923,4.786,17.884,7.181C126.984,108.756,131.66,96.752,138.573,86.348z"/>
	</g>
</g>
</svg>
