<?xml version="1.0" encoding="utf-8"?>
<!-- Generator: Adobe Illustrator 17.0.0, SVG Export Plug-In . SVG Version: 6.00 Build 0)  -->
<!DOCTYPE svg PUBLIC "-//W3C//DTD SVG 1.1//EN" "http://www.w3.org/Graphics/SVG/1.1/DTD/svg11.dtd">
<svg version="1.1" id="Слой_1" xmlns="http://www.w3.org/2000/svg" xmlns:xlink="http://www.w3.org/1999/xlink" x="0px" y="0px"
	 width="595.28px" height="841.89px" viewBox="0 0 595.28 841.89" enable-background="new 0 0 595.28 841.89" xml:space="preserve">
<path fill="#555555" d="M539.216,721.011c-0.04,8.679-2.064,18.33-6.242,27.605c-2.242,4.977-3.967,10.205-5.669,15.404
	c-1.624,4.961,0.224,9.187,3.613,12.782c2.626,2.786,5.534,5.307,8.171,8.083c4.263,4.488,6.755,9.475,4.095,15.833
	c-2.737,6.542-7.74,10.51-14.634,9.995c-9.571-0.715-19.12-2.308-28.552-4.167c-15.352-3.026-30.596-6.948-46.42-4.41
	c-8.697,1.395-17.263,3.659-25.981,4.852c-20.471,2.799-40.891,2.321-60.983-2.886c-19.554-5.067-38.613-1.864-57.749,2.469
	c-10.324,2.338-20.608,5.539-31.49,3.685c-11.153-1.9-16.207-14.268-9.232-23.167c2.144-2.736,4.573-5.35,7.265-7.535
	c7.354-5.97,8.151-13.153,4.83-21.488c-3.072-7.709-6.877-15.298-8.65-23.318c-4.06-18.372-1.06-36.521,4.9-54.036
	c11.802-34.688,33.245-61.222,67.311-76.297c15.916-7.044,32.957-9.028,50.192-9.533c21.897-0.641,43.807-0.015,64.727,6.98
	c34.683,11.597,56.674,36.675,70.561,69.583C535.755,686.788,538.831,702.918,539.216,721.011z"/>
<path fill="#555555" d="M510.347,494.122c-1.281,2.996-3.079,8.752-6.035,13.834c-11.157,19.179-26.461,34.991-42.255,50.309
	c-1.153,1.118-4.254,0.981-6.171,0.44c-18.05-5.097-36.458-8.749-55.147-7.227c-16.158,1.316-32.156,4.775-48.165,7.62
	c-3.132,0.557-5.07,0.301-7.334-2.073c-15.41-16.157-30.904-32.243-41.774-52.008c-2.056-3.738-3.668-7.881-4.617-12.036
	c-2.123-9.295,5.481-15.948,14.349-12.381c4.707,1.893,8.897,5.117,13.229,7.885c4.761,3.042,9.268,6.506,14.151,9.324
	c7.257,4.189,14.749,4.183,21.573-0.885c5.594-4.155,10.552-9.165,16.139-13.331c5.154-3.843,10.424-7.868,16.26-10.378
	c9.094-3.912,17.997-0.75,26.378,3.307c8.829,4.274,17.563,8.755,26.23,13.349c10.751,5.698,20.868,5.196,30.957-1.832
	c4.875-3.396,10.158-6.51,15.693-8.586C502.738,476.104,510.729,482.131,510.347,494.122z"/>
<path fill="#555555" d="M405.365,561.063c17.896,0.302,35.988,2.594,53.664,7.857c6.462,1.924,11.336,5.64,13.67,12.052
	c3.094,8.503-1.654,14.147-10.462,12.403c-8.308-1.646-16.498-3.907-24.826-5.423c-29.165-5.306-57.999-3.359-86.506,4.474
	c-0.801,0.22-1.582,0.519-2.39,0.704c-4.186,0.963-8.641,1.633-11.468-2.325c-2.922-4.091-2.235-9.178,0.737-12.61
	c3.222-3.721,7.466-7.467,12.005-8.975C367.598,563.302,386.13,561.275,405.365,561.063z"/>
<text transform="matrix(1 0 0 1 314.2363 721.8454)" fill="#FFFFFF" font-family="'SegoeUI-BoldItalic'" font-size="76.3624">20 кг</text>
</svg>
