<?xml version="1.0" encoding="utf-8"?>
<!-- Generator: Adobe Illustrator 17.0.0, SVG Export Plug-In . SVG Version: 6.00 Build 0)  -->
<!DOCTYPE svg PUBLIC "-//W3C//DTD SVG 1.1//EN" "http://www.w3.org/Graphics/SVG/1.1/DTD/svg11.dtd">
<svg version="1.1" id="Слой_1" xmlns="http://www.w3.org/2000/svg" xmlns:xlink="http://www.w3.org/1999/xlink" x="0px" y="0px"
	 width="176px" height="215.43px" viewBox="0 0 176 215.43" enable-background="new 0 0 176 215.43" xml:space="preserve">
<g>
	<path fill="#4B78B9" d="M91.964,29.137c7.356,0.794,14.701,2.058,22.072,2.239c6.483,0.159,13.104-0.322,19.472-1.533
		c12.399-2.357,21.766-9.514,28.516-20.117c1.391-2.185,2.626-4.47,3.999-6.668c2.582-4.131,5.55-4.076,8.155,0.136
		c1.104,1.784,2.145,3.607,3.226,5.405c8.646,14.376,21.632,21.932,38.114,22.587c9.42,0.375,18.912-1.077,28.372-1.707
		c2.835-0.189,6.14-2.025,8.22,1.101c2.14,3.216-0.565,5.668-2.464,7.778c-9.168,10.188-9.296,22.273-6.99,34.586
		c2.836,15.143,6.448,30.138,9.503,45.242c2.184,10.797,3.952,21.754,1.508,32.698c-3.967,17.766-14.933,30.205-31.351,37.38
		c-8.297,3.626-17.272,5.781-26.05,8.203c-9.398,2.592-17.351,6.77-22.186,15.81c-2.217,4.146-5.767,4.21-7.941,0.146
		c-4.971-9.294-13.133-13.54-22.833-16.082c-8.214-2.152-16.569-4.202-24.342-7.516c-17.268-7.362-28.888-20.112-32.648-38.867
		c-2.321-11.579-0.204-23.13,2.157-34.521c2.852-13.762,6.136-27.438,8.784-41.237c1.037-5.406,1.163-11.046,1.143-16.578
		c-0.022-5.776-1.742-11.177-5.445-15.813c-1.617-2.025-3.344-4.033-4.527-6.306c-0.699-1.343-0.98-3.418-0.429-4.737
		c0.462-1.106,2.403-1.593,3.689-2.355C91.78,28.655,91.872,28.896,91.964,29.137z M113.592,47.826
		c3.2,18.311-1.211,35.216-4.926,52.208c-2.212,10.118-4.508,20.23-6.267,30.431c-3.861,22.397,6.298,36.431,24.804,44.215
		c3.507,1.475,7.229,2.481,10.91,3.49c11.16,3.059,22.647,5.27,31.946,13.132c7.997-6.656,17.488-9.289,27.071-11.838
		c6.064-1.613,12.175-3.309,17.937-5.743c13.538-5.717,26.3-19.368,22.972-39.312c-2.068-12.394-4.566-24.724-7.18-37.017
		c-2.723-12.804-5.829-25.536-5.484-38.751c0.091-3.502,0.607-6.994,0.961-10.856c-21.928,0.747-41.256-4.561-56.276-21.589
		C155.067,43.254,135.699,48.466,113.592,47.826z"/>
	<path fill="#4B78B9" d="M170.851,160.556c-15.842-18.388-31.381-36.424-47.144-54.721c5.435-4.679,10.718-9.227,16.35-14.076
		c9.047,10.481,17.949,20.795,27.224,31.54c10.655-18.575,21.062-36.717,31.621-55.124c6.193,3.534,12.161,6.939,18.726,10.685
		C202.063,106.043,186.56,133.119,170.851,160.556z"/>
</g>
</svg>
