<?xml version="1.0" encoding="utf-8"?>
<!-- Generator: Adobe Illustrator 17.0.0, SVG Export Plug-In . SVG Version: 6.00 Build 0)  -->
<!DOCTYPE svg PUBLIC "-//W3C//DTD SVG 1.1//EN" "http://www.w3.org/Graphics/SVG/1.1/DTD/svg11.dtd">
<svg version="1.1" id="Слой_1" xmlns="http://www.w3.org/2000/svg" xmlns:xlink="http://www.w3.org/1999/xlink" x="0px" y="0px"
	 width="800px" height="1000px" viewBox="0 0 800 1000" enable-background="new 0 0 800 1000" xml:space="preserve">
<path fill="#4B77B6" d="M393.8,661.936L334,46l-51,5c0,0-46,5-46,61s10,363,10,363l-92.212,29.12C127.318,469.331,84.768,447,37,447
	c-82.843,0-150,67.157-150,150s67.157,150,150,150c64.586,0,119.634-40.821,140.762-98.068L250,621v79.355
	c-27.483,27.189-44.516,64.92-44.516,106.634c0,82.843,67.157,150,150,150s150-67.157,150-150
	C505.484,737.391,458.08,678.871,393.8,661.936z M37.167,665.167c-38.292,0-69.333-31.042-69.333-69.333S-1.125,526.5,37.167,526.5
	s69.333,31.042,69.333,69.333S75.458,665.167,37.167,665.167z M355.651,875.156c-38.292,0-69.333-31.042-69.333-69.333
	s31.042-69.333,69.333-69.333s69.333,31.042,69.333,69.333S393.942,875.156,355.651,875.156z"/>
<polygon fill="#4B77B6" points="432.333,546.333 527,508.333 425,475.667 "/>
<path fill="#4B77B6" d="M740,252c-66.629-79.785-52-161-52-161s-46,66-26,132c8.798,29.034,0.586,32.475-10.997,30.596l-0.038-0.394
	c-2.452-0.396-4.859-0.804-7.24-1.217c-2.589-0.669-5.205-1.391-7.724-1.984c-0.954-0.225-1.855-0.178-2.711,0.086
	C592.683,242.34,565,233,565,233l-169-52l26,251c0,0,90,29,150,46c37.09,10.378,71.365,16.639,102.721,19.895
	C715,503,897,440,740,252z"/>
<path fill="#4B77B6" d="M199.036,370.938l-6.306-241.017C81.632,114.644,7.021,155.51-14.933,169.687L-15,169.667
	c0,0-0.524,0.343-1.459,1.019c-3.432,2.273-5.207,3.648-5.207,3.648s0.046,0.111,0.128,0.308
	c-23.131,19.121-97.965,95.081-62.846,254.953c11.21-37.833,87.768-107.343,248.256-68.511
	C176.826,365.738,188.704,369.565,199.036,370.938z"/>
</svg>
