<?xml version="1.0" encoding="utf-8"?>
<!-- Generator: Adobe Illustrator 17.0.0, SVG Export Plug-In . SVG Version: 6.00 Build 0)  -->
<!DOCTYPE svg PUBLIC "-//W3C//DTD SVG 1.1//EN" "http://www.w3.org/Graphics/SVG/1.1/DTD/svg11.dtd">
<svg version="1.1" id="Слой_1" xmlns="http://www.w3.org/2000/svg" xmlns:xlink="http://www.w3.org/1999/xlink" x="0px" y="0px"
	 width="800px" height="1000px" viewBox="0 0 800 1000" enable-background="new 0 0 800 1000" xml:space="preserve">
<path fill="#4B78BA" d="M145,517c0-10.667,0-21.333,0-32c0.284-1.287,0.733-2.562,0.828-3.863
	c1.734-23.538,6.311-46.533,15.057-68.436c35.925-89.967,101.327-144.844,196.514-163.73c9.746-1.934,19.728-2.676,29.601-3.971
	c9.333,0,18.667,0,28,0c1.29,0.27,2.569,0.707,3.871,0.786c20.361,1.235,40.406,4.622,59.607,11.386
	c95.885,33.781,154.346,100.457,174.637,200.227c1.848,9.088,2.616,18.395,3.885,27.601c0,10.667,0,21.333,0,32
	c-0.296,1.453-0.754,2.894-0.865,4.361c-1.924,25.396-7.208,50.099-17.166,73.516c-37.015,87.035-101.843,140.127-194.887,158.212
	c-9.585,1.863-19.383,2.633-29.082,3.911c-9.333,0-18.667,0-28,0c-1.283-0.278-2.555-0.626-3.85-0.822
	c-13.632-2.059-27.439-3.309-40.874-6.26c-97.428-21.399-177.299-105.984-193.305-204.329C147.426,536.095,146.314,526.531,145,517z
	 M384.75,389.501c-28.615-1.669-56.973-3.323-85.616-4.994c-11.22,33.626-16.749,68.398-17.914,104.093c34.874,0,69.23,0,103.53,0
	C384.75,455.265,384.75,422.332,384.75,389.501z M520.821,488.752c-1.352-36.088-6.736-70.891-18.021-104.216
	c-28.938,1.678-57.267,3.321-85.559,4.961c0,33.159,0,66.083,0,99.255C451.716,488.752,485.948,488.752,520.821,488.752z
	 M281.595,521.244c1.679,33.475,7.229,65.558,17.565,96.216c28.945-1.689,57.155-3.334,85.556-4.991c0-30.301,0-60.685,0-91.225
	C350.349,521.244,316.272,521.244,281.595,521.244z M417.205,612.458c28.786,1.684,57.005,3.335,85.639,5.01
	c10.268-30.957,15.952-63.015,17.499-96.134c-34.663,0-68.852,0-103.138,0C417.205,551.929,417.205,582.186,417.205,612.458z
	 M266.366,380.192c-14.911-2.828-29.136-5.327-43.253-8.336c-3.689-0.786-5.286,0.354-7.18,3.137
	c-16.292,23.934-27.694,50.001-33.68,78.294c-2.452,11.59-3.669,23.442-5.487,35.437c24.823,0,48.385,0,72.331,0
	C250.303,451.794,255.463,415.709,266.366,380.192z M535.544,380.046c11.034,35.714,16.089,71.813,17.354,108.554
	c24.093,0,47.755,0,71.422,0c-0.478-33.456-13.473-74.571-33.438-106.181c-7.135-11.297-7.135-11.296-20.354-8.636
	c-0.489,0.098-0.988,0.146-1.479,0.234C558.119,375.983,547.19,377.95,535.544,380.046z M266.418,621.931
	c-10.199-33.134-15.334-66.577-16.99-100.623c-24.09,0-47.661,0-71.242,0c0,1.306-0.097,2.311,0.014,3.292
	c3.836,33.914,14.502,65.472,32.613,94.459c7.318,11.713,7.314,11.715,21.105,9.048c0.327-0.063,0.661-0.083,0.989-0.142
	C243.844,625.998,254.782,624.027,266.418,621.931z M624.036,521.177c-24.054,0-47.503,0-71.499,0
	c-1.584,34.219-6.89,67.756-16.908,100.688c1.509,0.407,2.436,0.731,3.391,0.904c13.586,2.462,27.2,4.78,40.743,7.454
	c2.804,0.554,4.29,0.051,5.648-2.317c5.789-10.095,12.239-19.854,17.413-30.25C614.727,573.741,621.521,548.289,624.036,521.177z
	 M384.57,723.112c0-26.445,0-52.122,0-78.471c-24.371,1.285-48.273,2.545-73.241,3.861
	C328.499,681.516,347.749,710.614,384.57,723.112z M417.271,723.085c36.946-12.403,56.12-41.57,73.388-74.59
	c-25.067-1.315-49.067-2.575-73.388-3.851C417.271,671.146,417.271,696.722,417.271,723.085z M311.316,353.487
	c25.238,1.31,49.251,2.557,73.409,3.811c0-26.596,0-52.136,0-78.444C347.834,291.401,328.6,320.384,311.316,353.487z M417.14,357.33
	c24.504-1.289,48.488-2.55,72.843-3.83c-15.249-35.232-45.346-69.046-72.843-73.769C417.14,305.215,417.14,330.675,417.14,357.33z
	 M495.526,298.23c5.359,8.497,10.766,16.461,15.53,24.793c4.774,8.349,8.906,17.065,13.616,26.196
	c11.197-1.859,22.703-3.769,34.662-5.754C548.452,329.651,515.814,306.607,495.526,298.23z M277.329,349.209
	c4.7-9.133,8.827-17.866,13.6-26.23c4.732-8.292,10.115-16.213,15.252-24.359c-18.564,6.549-55.913,33.57-63.031,44.975
	C254.798,345.508,266.217,347.384,277.329,349.209z M241.956,658.558c19.347,19.163,39.988,33.824,62.684,44.457
	c-8.543-15.851-17.07-31.765-25.76-47.59c-0.603-1.099-2.53-2.314-3.652-2.153C264.586,654.794,253.985,656.602,241.956,658.558z
	 M560.002,658.556c-12.116-1.968-22.884-3.786-33.689-5.351c-0.968-0.14-2.607,1.113-3.205,2.143
	c-8.92,15.348-17.719,30.765-26.53,46.176c-0.206,0.361-0.225,0.829-0.569,2.186C519.954,692.313,540.703,677.8,560.002,658.556z"/>
</svg>
