<?xml version="1.0" encoding="utf-8"?>
<!-- Generator: Adobe Illustrator 17.0.0, SVG Export Plug-In . SVG Version: 6.00 Build 0)  -->
<!DOCTYPE svg PUBLIC "-//W3C//DTD SVG 1.1//EN" "http://www.w3.org/Graphics/SVG/1.1/DTD/svg11.dtd">
<svg version="1.1" id="Слой_1" xmlns="http://www.w3.org/2000/svg" xmlns:xlink="http://www.w3.org/1999/xlink" x="0px" y="0px"
	 width="295px" height="215.43px" viewBox="0 0 295 215.43" enable-background="new 0 0 295 215.43" xml:space="preserve">
<g>
	<path fill="#4B78B9" d="M232.781,39.504c11.362-3.142,22.084-6.107,32.156-8.893c16.213,28.365,32.838,57.451,49.717,86.983
		c-2.28,2.558-5.599,6.284-8.8,9.876c-22.076-15.737-36.148-16.366-43.535,9.872c-6.475,0.82-13.313,0.242-18.676,2.781
		c-5.118,2.423-8.7,8.092-13.749,13.124c-0.856-0.276-3.216-1.134-5.629-1.798c-12.704-3.496-21.506,1.366-24.591,14.15
		c-1.067,4.422-2.471,6.646-7.427,7.569c-15.228,2.837-19.832,12.728-13.141,26.851c1.177,2.484,2.566,4.867,3.828,7.242
		c-5.547,6.572-11.029,8.22-17.969,5.498c-5.673-2.225-8.621-7.079-7.662-13.857c0.362-2.561,1.743-5.229,3.352-7.313
		c3.898-5.051,8.292-9.715,12.308-14.679c2.233-2.761,6.891-5.721,2.447-9.514c-4.172-3.56-6.294,1.33-8.504,3.814
		c-7.36,8.269-14.493,16.741-21.834,25.028c-6.349,7.167-14.07,7.802-21.44,1.978c-6.985-5.52-8.272-12.507-2.689-19.43
		c7.345-9.108,15.279-17.74,22.954-26.583c1.115-1.285,2.672-2.446,3.157-3.945c0.482-1.491,0.481-4.086-0.426-4.823
		c-0.985-0.801-3.413-0.407-4.92,0.196c-1.251,0.501-2.085,2.055-3.091,3.154c-9.053,9.898-18.083,19.817-27.16,29.693
		c-5.394,5.868-11.459,6.394-17.407,1.609c-7.682-6.18-9.703-12.805-4.484-19.162c11.61-14.143,23.822-27.793,35.792-41.642
		c0.835-0.966,2.178-1.793,2.444-2.889c0.523-2.155,0.455-4.454,0.632-6.694c-2.111,0.576-4.977,0.466-6.218,1.833
		c-13.88,15.291-27.545,30.778-41.183,46.286c-3.613,4.108-7.082,8.171-13.423,6.358c-6.715-1.919-11.4-6.235-12.596-13.03
		c-0.552-3.133,0.128-7.615,2.095-9.887c22.435-25.915,44.808-51.912,68.206-76.945c6.13-6.558,16.056-9.414,23.667-14.78
		c8.792-6.199,18.385-7.31,28.49-6.248c2.045,0.215,4.59,1.924,5.69,3.698c3.357,5.413,5.919,11.312,9.153,16.808
		c9.465,16.088,36.843,16.621,46.845,0.658c1.64-2.617,1.467-7.292,0.422-10.45C238.081,47.46,235.008,43.438,232.781,39.504z"/>
	<path fill="#4B78B9" d="M25.505,119.671c2.892-3.967,5.56-7.496,8.092-11.12c14.467-20.711,25.257-43.31,33.847-66.973
		c1.49-4.103,3.111-5.684,7.663-5.024c10.03,1.454,19.347-0.778,27.923-6.434c12.071-7.959,24.111-16.009,36.611-23.251
		c4.915-2.848,10.966-4.781,16.616-5.104c12.934-0.74,25.944-0.029,38.915-0.315c6.772-0.149,11.438,2.54,14.53,8.342
		c7.498,14.073,15.049,28.118,22.42,42.258c3.015,5.783,1.461,9.964-4.375,13.152c-10.81,5.905-24.875,1.894-30.768-8.851
		c-3.169-5.778-5.891-11.829-9.435-17.359c-1.309-2.042-4.314-3.972-6.692-4.168c-6.762-0.556-13.603-0.331-20.404-0.113
		c-2.241,0.072-4.678,0.639-6.644,1.693c-18.983,10.177-37.01,21.237-50.736,38.762c-15.067,19.236-31.846,37.127-47.689,55.766
		c-2.835,3.336-4.928,4.321-8.892,1.611C39.846,128.001,32.778,124.084,25.505,119.671z"/>
	<path fill="#4B78B9" d="M247.765,184.612c-0.102,7.751-4.586,13.711-10.974,15.804c-6.062,1.986-10.579-0.185-14.329-5.204
		c-4.696-6.284-9.888-12.196-14.672-18.417c-4.526-5.886-3.485-11.905,2.677-17.228c5.609-4.846,11.84-4.764,16.957,0.526
		c5.9,6.099,11.726,12.282,17.302,18.674C246.427,180.715,247.197,183.476,247.765,184.612z"/>
	<path fill="#4B78B9" d="M253.335,143.715c1.616,0.738,4.341,1.48,6.456,3.048c4.937,3.66,9.491,7.833,14.372,11.575
		c4.039,3.097,4.489,7.012,3.062,11.37c-2.993,9.142-16.67,17.153-24.966,5.83c-2.737-3.736-6.249-6.932-9.576-10.202
		c-3.505-3.445-5.363-7.419-3.079-12.005C242.148,148.221,246.096,144.447,253.335,143.715z"/>
	<path fill="#4B78B9" d="M282.465,123.628c9.168-0.042,18.784,7.967,18.835,15.687c0.055,8.298-6.416,15.572-13.792,15.506
		c-8.837-0.08-17.949-9.265-18.118-18.264C269.234,128.301,273.921,123.667,282.465,123.628z"/>
	<path fill="#4B78B9" d="M193.732,178.259c2.999,1.364,5.327,1.787,6.697,3.163c4.167,4.186,8.486,8.387,11.764,13.245
		c3.611,5.352,1.529,11.676-3.848,14.808c-6.491,3.78-12.406,2.906-16.218-2.463c-2.335-3.29-5.181-6.394-6.692-10.04
		c-1.412-3.408-2.969-8.264-1.555-10.956C185.678,182.593,190.404,180.708,193.732,178.259z"/>
</g>
</svg>
