<?xml version="1.0" encoding="utf-8"?>
<!-- Generator: Adobe Illustrator 17.0.0, SVG Export Plug-In . SVG Version: 6.00 Build 0)  -->
<!DOCTYPE svg PUBLIC "-//W3C//DTD SVG 1.1//EN" "http://www.w3.org/Graphics/SVG/1.1/DTD/svg11.dtd">
<svg version="1.1" id="Слой_1" xmlns="http://www.w3.org/2000/svg" xmlns:xlink="http://www.w3.org/1999/xlink" x="0px" y="0px"
	 width="283.486px" height="211.489px" viewBox="0 0 283.486 211.489" enable-background="new 0 0 283.486 211.489"
	 xml:space="preserve">
<g>
	<path fill="#686868" d="M21.16,8.495c3.868-0.641,7.735-1.836,11.604-1.842c73.177-0.111,146.354-0.111,219.531,0
		c3.862,0.006,7.723,1.204,11.584,1.847c0.277,0.586,0.554,1.172,0.831,1.759c-1.254,0.784-2.71,1.365-3.734,2.381
		c-37.178,36.903-74.316,73.847-111.461,110.783c-5.691,5.659-8.302,5.66-14.006-0.012C98.364,86.475,61.228,49.529,24.049,12.627
		c-1.023-1.015-2.493-1.58-3.755-2.356C20.583,9.68,20.872,9.088,21.16,8.495z"/>
	<path fill="#686868" d="M23.363,205.37c28.764-29.285,57.039-58.072,85.933-87.489c5.83,6.006,11.16,11.711,16.722,17.18
		c10.246,10.074,22.649,10.061,32.922,0.118c2.872-2.781,5.726-5.583,8.516-8.446c2.677-2.748,5.26-5.587,8.268-8.796
		c28.781,29.318,57.055,58.118,85.721,87.318c-3.06,0.369-6.582,1.157-10.106,1.164c-43.312,0.085-86.625,0.055-129.937,0.055
		c-29.186,0-58.372,0.038-87.558-0.049C30.312,206.413,26.783,205.73,23.363,205.37z"/>
	<path fill="#686868" d="M11.008,193.552c-0.44-3.259-1.258-6.517-1.263-9.776C9.666,132.176,9.679,80.576,9.722,28.977
		c0.002-2.483,0.471-4.966,0.785-8.062c29.092,29.691,57.684,58.873,85.706,87.472c-27.073,27.526-55.517,56.445-83.962,85.364
		C11.837,193.685,11.423,193.618,11.008,193.552z"/>
	<path fill="#686868" d="M188.771,107.823c27.741-28.224,56.4-57.383,85.138-86.622c1.937,4.97,2.911,123.145,1.373,163.911
		c-0.107,2.845-0.91,5.665-1.469,8.971C244.768,164.622,216.268,135.714,188.771,107.823z"/>
</g>
</svg>
