<?xml version="1.0" encoding="utf-8"?>
<!-- Generator: Adobe Illustrator 17.0.0, SVG Export Plug-In . SVG Version: 6.00 Build 0)  -->
<!DOCTYPE svg PUBLIC "-//W3C//DTD SVG 1.1//EN" "http://www.w3.org/Graphics/SVG/1.1/DTD/svg11.dtd">
<svg version="1.1" id="Слой_1" xmlns="http://www.w3.org/2000/svg" xmlns:xlink="http://www.w3.org/1999/xlink" x="0px" y="0px"
	 width="595.28px" height="841.89px" viewBox="0 0 595.28 841.89" enable-background="new 0 0 595.28 841.89" xml:space="preserve">
<path fill="#4B78BA" d="M96.753,543.971c-1.148-0.158-1.648,0.646-1.523,1.848c0.125,1.202,4.879,5.804,4.879,5.804
	s-5.338-3.282-6.067-5.144c-0.563-1.438-0.38-4.146,1.557-4.146v-7.271c0-1.105-0.755-2-1.859-2s-1.906,0.895-1.906,2
	c0,0.155,0.045,10.996,0.059,14.188c0.002,0.552,0.236,1.134,0.633,1.578c0.13,0.145,0.28,0.313,0.443,0.494l12.865,11.133v-2.893
	V558.5v-1.25v-1v-4.083C105.833,552.167,97.901,544.129,96.753,543.971z M124.923,533.063c-1.105,0-1.859,0.895-1.859,2v7.271
	c1.938,0,2.12,2.708,1.557,4.146c-0.728,1.862-6.067,5.144-6.067,5.144s4.754-4.602,4.879-5.804
	c0.125-1.202-0.375-2.006-1.523-1.848s-9.081,8.196-9.081,8.196v4.083v1v1.25v1.063v2.893l12.865-11.133
	c0.163-0.181,0.313-0.349,0.443-0.494c0.398-0.444,0.631-1.027,0.633-1.578c0.013-3.191,0.059-14.033,0.059-14.188
	C126.829,533.958,126.027,533.063,124.923,533.063z M116.164,539.833c0-3.774-3.059-6.833-6.833-6.833
	c-3.774,0-6.833,3.059-6.833,6.833s3.059,6.833,6.833,6.833C113.105,546.667,116.164,543.607,116.164,539.833z"/>
</svg>
