<?xml version="1.0" encoding="utf-8"?>
<!-- Generator: Adobe Illustrator 17.0.0, SVG Export Plug-In . SVG Version: 6.00 Build 0)  -->
<!DOCTYPE svg PUBLIC "-//W3C//DTD SVG 1.1//EN" "http://www.w3.org/Graphics/SVG/1.1/DTD/svg11.dtd">
<svg version="1.1" id="Слой_1" xmlns="http://www.w3.org/2000/svg" xmlns:xlink="http://www.w3.org/1999/xlink" x="0px" y="0px"
	 width="175px" height="215.43px" viewBox="81.58 0 175 215.43" enable-background="new 81.58 0 175 215.43" xml:space="preserve">
<g>
	<path fill="#5FA3DE" d="M254.64,181.504c-3.416,0.165-5.968,0.288-9.532,0.46c0,5.84,0.205,11.68-0.044,17.501
		c-0.485,11.35-11.522,17.995-21.017,12.699c-4.866-2.714-7.324-7.056-7.361-12.664c-0.038-5.68-0.008-11.36-0.008-17.396
		c-31.329,0-62.046,0-93.718,0c0,5.221,0.045,10.453-0.01,15.684c-0.105,10.029-5.417,15.872-14.342,15.857
		c-8.873-0.016-14.02-5.842-14.101-16.021c-0.041-5.083-0.007-10.166-0.007-15.537c-3.307-0.225-5.999-0.409-9.429-0.642
		c0-4.748,0-9.425,0-14.102c0-12.245,0.124-24.493-0.08-36.735c-0.057-3.394,0.881-5.555,3.972-7.023
		c2.485-1.181,4.631-3.126,7.165-4.142c8.576-3.438,12.02-9.488,11.433-18.747c-0.396-6.254,0.641-12.603,1.091-18.906
		c0.733-10.261,7.212-17.246,17.386-17.339c29.228-0.268,58.462-0.282,87.69,0.023c10.091,0.105,16.549,7.258,17.245,17.532
		c0.601,8.865,0.879,17.766,1.907,26.579c0.283,2.427,2.257,5.269,4.302,6.758c5.404,3.935,13.518,5.999,16.338,11.126
		c2.94,5.346,1.05,13.399,1.099,20.27C254.699,158.157,254.64,169.575,254.64,181.504z M115.161,112.351
		c36.461,0,72.468,0,109.195,0c-0.732-10.908-1.159-21.507-2.276-32.034c-0.526-4.955-4.456-7.433-9.307-7.449
		c-28.626-0.095-57.253-0.103-85.88-0.002c-5.093,0.018-9.007,2.601-9.527,7.907C116.352,91.139,115.882,101.558,115.161,112.351z
		 M208.411,162.649c0-9.948,0.048-19.208-0.022-28.467c-0.032-4.143-2.399-6.024-6.435-6.023
		c-21.536,0.005-43.073-0.116-64.604,0.197c-2.066,0.03-5.776,2.659-5.862,4.237c-0.542,9.949-0.274,19.942-0.274,30.056
		C157.193,162.649,182.419,162.649,208.411,162.649z M231.273,133.792c-6.348-0.02-11.82,5.427-11.768,11.713
		c0.053,6.341,5.521,11.572,11.967,11.448c6.244-0.12,11.251-5.139,11.316-11.34C242.855,139.144,237.661,133.811,231.273,133.792z
		 M96.796,145.128c-0.16,6.506,4.877,11.752,11.358,11.83c6.263,0.076,11.348-4.718,11.649-10.979
		c0.311-6.484-4.655-11.942-11.078-12.176C102.353,133.571,96.954,138.697,96.796,145.128z"/>
	<path fill="#5FA3DE" d="M232.753,1.435c-25.631-0.019-51.263-0.008-76.894-0.008c-16.237,0-32.474-0.035-48.71,0.018
		c-11.68,0.526-13.046,8.072-13.046,12.699c0,25.478,0,82.169,0,98.376c4.508-2.21,6.595-5.493,6.532-10.994
		c-0.086-7.478,0.634-15.005,1.55-22.444c1.598-12.976,11.382-21.962,24.458-22.06c29.238-0.22,58.479-0.221,87.717-0.002
		c13.51,0.101,23.44,9.683,24.672,23.179c0.754,8.259,1.111,16.555,1.837,24.817c0.14,1.597,0.721,3.736,1.865,4.559
		c1.074,0.773,2.187,1.504,3.325,2.224c0-17.107,0-72.543,0-97.655C246.058,9.483,244.672,1.86,232.753,1.435z"/>
</g>
</svg>
