<?xml version="1.0" encoding="utf-8"?>
<!-- Generator: Adobe Illustrator 17.0.0, SVG Export Plug-In . SVG Version: 6.00 Build 0)  -->
<!DOCTYPE svg PUBLIC "-//W3C//DTD SVG 1.1//EN" "http://www.w3.org/Graphics/SVG/1.1/DTD/svg11.dtd">
<svg version="1.1" id="Слой_1" xmlns="http://www.w3.org/2000/svg" xmlns:xlink="http://www.w3.org/1999/xlink" x="0px" y="0px"
	 width="70.667px" height="69.333px" viewBox="0 0 70.667 69.333" enable-background="new 0 0 70.667 69.333" xml:space="preserve">
<path fill="#FFFFFF" d="M3.5,17.89c0.148,1.489,0.225,2.989,0.456,4.465c0.878,5.614,3.056,10.756,5.939,15.599
	c6.822,11.461,16.043,20.36,28.253,25.943c5.351,2.447,10.942,3.864,16.92,3.318c7.694-0.703,13.523-6.517,14.132-14.204
	c0.152-1.922-0.138-2.461-1.831-3.321c-5.023-2.551-10.049-5.097-15.076-7.642c-0.317-0.16-0.656-0.276-0.977-0.43
	c-1.011-0.484-1.824-0.2-2.615,0.537c-2.246,2.093-4.521,4.156-6.8,6.215c-1.368,1.236-2.098,1.29-3.616,0.307
	c-6.448-4.175-11.79-9.447-15.844-15.994c-1.013-1.635-0.929-2.499,0.449-3.877c1.995-1.995,4.004-3.975,6-5.969
	c1.6-1.598,1.716-2.392,0.647-4.35c-2.512-4.602-5.028-9.202-7.542-13.803c-1.909-3.493-1.953-3.524-5.863-2.826
	C11.47,2.689,7.66,4.778,5.429,9.173C4.04,11.912,3.593,14.849,3.5,17.89z"/>
<path fill="#686868" d="M3.5,17.89c0.093-3.041,0.54-5.978,1.93-8.717c2.23-4.395,6.041-6.484,10.701-7.316
	c3.911-0.698,3.955-0.667,5.863,2.826c2.514,4.601,5.03,9.201,7.542,13.803c1.069,1.958,0.953,2.752-0.647,4.35
	c-1.996,1.994-4.005,3.974-6,5.969c-1.378,1.378-1.462,2.242-0.449,3.877c4.055,6.548,9.396,11.82,15.844,15.994
	c1.518,0.983,2.248,0.929,3.616-0.307c2.278-2.059,4.554-4.122,6.8-6.215c0.79-0.737,1.604-1.021,2.615-0.537
	c0.321,0.154,0.66,0.269,0.977,0.43c5.027,2.544,10.053,5.09,15.076,7.642c1.694,0.86,1.984,1.399,1.831,3.321
	c-0.609,7.687-6.438,13.501-14.132,14.204c-5.978,0.546-11.568-0.87-16.92-3.318c-12.21-5.584-21.431-14.482-28.253-25.943
	c-2.883-4.843-5.061-9.985-5.939-15.599C3.725,20.879,3.648,19.379,3.5,17.89z"/>
</svg>
