<?xml version="1.0" encoding="utf-8"?>
<!-- Generator: Adobe Illustrator 17.0.0, SVG Export Plug-In . SVG Version: 6.00 Build 0)  -->
<!DOCTYPE svg PUBLIC "-//W3C//DTD SVG 1.1//EN" "http://www.w3.org/Graphics/SVG/1.1/DTD/svg11.dtd">
<svg version="1.1" id="Слой_1" xmlns="http://www.w3.org/2000/svg" xmlns:xlink="http://www.w3.org/1999/xlink" x="0px" y="0px"
	 width="595.28px" height="841.89px" viewBox="0 0 595.28 841.89" enable-background="new 0 0 595.28 841.89" xml:space="preserve">
<g>
	<g>
		<path fill="#4B78BA" d="M174.958,140.784l9.333,29.418l2.396-1.452l-11.156-28.169L174.958,140.784z M209.25,150.067
			c0,0-4.917-9.333-7-14.16c-1.917,2.007-4.25,2.593-7.25,3.343c1.25,4.75,3.167,12.067,3.167,12.067l-5.7-13.599
			c0,0-0.717-2.718-6.217-1.651c-3.39,0.657-9.625,4.819-9.625,4.819s7.292,17.181,9.292,21.931c0.417-1,3.708-4.692,6.396-6.692
			c2.321-1.727,5.771-3.475,7.271-2.392c1.5,1.083-0.417,2.5-1,3.25c-0.583,0.75-1.623,0.543-1.24,0.017
			c2.337-3.206-1.01-1.667-2.094-0.75c-1.083,0.917-2.417,2.4,0,3.067c3.583,1,10.083-1.5,12.75-4.12S209.25,150.067,209.25,150.067
			z"/>
	</g>
</g>
</svg>
