<?xml version="1.0" encoding="utf-8"?>
<!-- Generator: Adobe Illustrator 17.0.0, SVG Export Plug-In . SVG Version: 6.00 Build 0)  -->
<!DOCTYPE svg PUBLIC "-//W3C//DTD SVG 1.1//EN" "http://www.w3.org/Graphics/SVG/1.1/DTD/svg11.dtd">
<svg version="1.1" id="Слой_1" xmlns="http://www.w3.org/2000/svg" xmlns:xlink="http://www.w3.org/1999/xlink" x="0px" y="0px"
	 width="595.28px" height="841.89px" viewBox="0 0 595.28 841.89" enable-background="new 0 0 595.28 841.89" xml:space="preserve">
<g>
	<path fill="#4B78BA" d="M53.58,390.694l-0.454,2.177l-6.917,4.684c-0.633-0.689-1.533-1.128-2.542-1.128
		c-1.912,0-3.461,1.55-3.461,3.461s1.55,3.461,3.461,3.461s3.461-1.55,3.461-3.461c0-0.142-0.025-0.278-0.042-0.416l7.641-4.004
		l2.132,0.63l10.136-4.717l-4.908-2.198l0.38-5.293L53.58,390.694z"/>
	<path fill="#4B78BA" d="M43.667,393.193c1.646,0,3.152,0.6,4.32,1.588l2.126-1.44c-1.661-1.635-3.937-2.648-6.446-2.648
		c-5.07,0-9.195,4.125-9.195,9.195s4.125,9.195,9.195,9.195s9.195-4.125,9.195-9.195c0-0.642-0.067-1.269-0.193-1.874l-2.34,1.226
		c0.021,0.213,0.033,0.429,0.033,0.648c0,3.692-3.003,6.695-6.695,6.695s-6.695-3.003-6.695-6.695S39.975,393.193,43.667,393.193z"
		/>
	<path fill="#4B78BA" d="M57.408,397.277c-0.173,0.081-0.36,0.121-0.548,0.121c-0.124,0-0.248-0.018-0.368-0.053l-0.416-0.123
		c0.185,0.86,0.287,1.751,0.287,2.666c0,7-5.695,12.695-12.695,12.695s-12.695-5.695-12.695-12.695s5.695-12.695,12.695-12.695
		c3.323,0,6.343,1.294,8.608,3.391l0.032-0.156c0.064-0.305,0.235-0.578,0.482-0.767l1.184-0.906
		c-2.712-2.512-6.327-4.062-10.307-4.062c-8.379,0-15.195,6.816-15.195,15.195s6.816,15.195,15.195,15.195
		s15.195-6.816,15.195-15.195c0-1.075-0.116-2.123-0.329-3.135L57.408,397.277z"/>
</g>
</svg>
