<?xml version="1.0" encoding="utf-8"?>
<!-- Generator: Adobe Illustrator 17.0.0, SVG Export Plug-In . SVG Version: 6.00 Build 0)  -->
<!DOCTYPE svg PUBLIC "-//W3C//DTD SVG 1.1//EN" "http://www.w3.org/Graphics/SVG/1.1/DTD/svg11.dtd">
<svg version="1.1" id="Слой_1" xmlns="http://www.w3.org/2000/svg" xmlns:xlink="http://www.w3.org/1999/xlink" x="0px" y="0px"
	 width="800px" height="1000px" viewBox="0 0 800 1000" enable-background="new 0 0 800 1000" xml:space="preserve">
<path fill="#4B78B9" d="M818.762,496.809c-1.681-1.171-3.353-2.356-5.052-3.5c-0.394-0.265-0.472-0.547-0.433-0.982
	c0.088-0.994,0.128-1.992,0.178-2.989c0.009-0.172,0.013-0.365-0.052-0.518c-0.259-0.617,0.04-0.956,0.509-1.32
	c1.417-1.101,2.798-2.25,4.194-3.378c0.781-0.632,0.877-1.105,0.38-1.977c-1.503-2.633-3.01-5.264-4.515-7.896
	c-0.4-0.699-0.847-0.902-1.62-0.671c-0.485,0.145-0.952,0.35-1.423,0.539c-1.458,0.582-2.918,1.163-4.37,1.76
	c-0.292,0.12-0.499,0.101-0.782-0.073c-1.133-0.698-2.29-1.359-3.448-2.016c-0.253-0.144-0.393-0.288-0.438-0.602
	c-0.279-1.932-0.589-3.86-0.889-5.789c-0.007-0.047-0.029-0.098-0.019-0.141c0.158-0.683-0.234-1.027-0.782-1.277h-10.204
	c-0.793,0.244-1.058,0.814-1.155,1.607c-0.234,1.906-0.546,3.802-0.842,5.7c-0.022,0.142-0.136,0.316-0.259,0.39
	c-1.192,0.72-2.403,1.41-3.59,2.139c-0.263,0.162-0.461,0.19-0.74,0.071c-1.708-0.727-3.422-1.438-5.135-2.153
	c-1.094-0.456-1.757-0.229-2.345,0.801c-1.1,1.925-2.199,3.851-3.299,5.776c-0.365,0.638-0.729,1.277-1.094,1.915
	c-0.476,0.833-0.357,1.452,0.423,2.05c0.91,0.699,1.826,1.389,2.74,2.083v0c0.63,0.478,1.255,0.961,1.888,1.435
	c0.259,0.194,0.375,0.387,0.321,0.71c-0.103,0.619-0.172,1.238-0.203,1.857v0c-0.019,0.375-0.019,0.75,0.002,1.125
	c0.002,0.041,0.001,0.081,0.003,0.122c0.027,0.401,0.075,0.802,0.16,1.204c0.025,0.118-0.156,0.319-0.287,0.426
	c-1.512,1.237-3.034,2.463-4.552,3.694c-0.728,0.59-0.829,1.097-0.368,1.905c1.54,2.703,3.083,5.405,4.628,8.106
	c0.152,0.266,0.371,0.438,0.625,0.527c0,0.002,0.001,0.004,0.002,0.005c0.017,0.006,0.038,0.005,0.055,0.01
	c0.082,0.024,0.166,0.043,0.255,0.047c0.019,0.001,0.035,0.01,0.055,0.01c0.082,0,0.167-0.008,0.253-0.025
	c0.232-0.045,0.463-0.113,0.682-0.2c1.828-0.725,3.652-1.462,5.484-2.178c0.077-0.03,0.174-0.043,0.27-0.042
	c0.103,0.001,0.207,0.02,0.281,0.062c1.214,0.687,2.419,1.39,3.609,2.117c0.183,0.112,0.366,0.354,0.4,0.56
	c0.286,1.736,0.542,3.477,0.809,5.216c0.029,0.191,0.059,0.381,0.089,0.572c0.128,0.826,0.505,1.172,1.343,1.175
	c0.34,0.001,0.679,0.001,1.019,0.002c-0.001-0.001-0.002-0.001-0.003-0.002c2.871,0.008,5.742,0.01,8.614,0
	c0.771-0.003,1.258-0.464,1.377-1.237c0.295-1.914,0.578-3.83,0.891-5.741c0.032-0.195,0.195-0.429,0.365-0.532
	c1.205-0.733,2.423-1.445,3.65-2.139c0.142-0.08,0.39-0.067,0.553-0.004c1.832,0.716,3.657,1.451,5.484,2.179
	c0.953,0.38,1.433,0.217,1.935-0.662c1.521-2.659,3.041-5.319,4.558-7.981c0.101-0.178,0.193-0.366,0.256-0.56
	C819.393,497.544,819.258,497.154,818.762,496.809z M795.115,499.092c-0.139,0.001-0.274-0.013-0.412-0.019
	c-1.115-0.05-2.184-0.325-3.161-0.781c-0.001,0-0.001-0.001-0.002-0.001c-0.242-0.113-0.478-0.237-0.708-0.372
	c-0.008-0.005-0.015-0.01-0.023-0.014c-0.222-0.131-0.438-0.271-0.648-0.421c-0.016-0.012-0.032-0.024-0.048-0.036
	c-0.199-0.144-0.393-0.296-0.58-0.457c-0.026-0.022-0.051-0.047-0.077-0.069c-0.174-0.153-0.344-0.312-0.506-0.479
	c-0.035-0.036-0.067-0.074-0.102-0.111c-0.148-0.158-0.293-0.32-0.43-0.488c-0.043-0.053-0.082-0.109-0.124-0.164
	c-0.122-0.158-0.242-0.317-0.354-0.483c-0.049-0.073-0.092-0.149-0.138-0.223c-0.097-0.154-0.193-0.308-0.281-0.468
	c-0.051-0.094-0.095-0.192-0.142-0.288c-0.073-0.147-0.148-0.293-0.213-0.445c-0.049-0.115-0.089-0.235-0.133-0.352
	c-0.052-0.139-0.108-0.276-0.153-0.418c-0.044-0.139-0.076-0.282-0.113-0.423c-0.033-0.126-0.071-0.25-0.098-0.378
	c-0.036-0.171-0.058-0.346-0.083-0.519c-0.015-0.104-0.037-0.206-0.048-0.31c-0.03-0.281-0.046-0.565-0.046-0.852
	c-0.009-4.636,3.984-8.623,8.611-8.596c4.654,0.027,8.553,3.938,8.56,8.586C803.671,495.161,799.783,499.063,795.115,499.092z
	 M740.897,509.082c0.173-1.118,0.338-2.237,0.52-3.353c0.019-0.114,0.114-0.25,0.213-0.311c0.704-0.428,1.415-0.844,2.132-1.249
	c0.041-0.023,0.097-0.032,0.155-0.032c0.056,0,0.111,0.011,0.158,0.028c0.003,0.001,0.007,0.001,0.01,0.002
	c1.07,0.418,2.135,0.847,3.202,1.273c0.001,0,0.001,0,0.001,0c0.122,0.049,0.228,0.076,0.326,0.093
	c0.025,0.004,0.05,0.008,0.074,0.01c0.023,0.002,0.05,0.01,0.073,0.01c0.068,0,0.13-0.01,0.189-0.03
	c0.001,0,0.001-0.001,0.002-0.001c0.078-0.027,0.148-0.079,0.216-0.142c0.017-0.016,0.035-0.034,0.052-0.053
	c0.067-0.074,0.132-0.159,0.197-0.273c0.888-1.553,1.776-3.106,2.662-4.661c0.059-0.104,0.112-0.214,0.149-0.327
	c0.028-0.085,0.043-0.162,0.047-0.234c0.011-0.216-0.088-0.382-0.305-0.533c-0.982-0.684-1.958-1.376-2.95-2.044
	c-0.23-0.155-0.276-0.319-0.253-0.573c0.052-0.58,0.075-1.163,0.104-1.745c0.003-0.05,0.004-0.104,0.001-0.155
	c-0.003-0.052-0.012-0.102-0.031-0.147c-0.151-0.36,0.023-0.558,0.297-0.771c0.828-0.643,1.634-1.314,2.449-1.973
	c0.088-0.071,0.154-0.139,0.208-0.205c0.244-0.278,0.248-0.539,0.014-0.949c-0.878-1.538-1.758-3.074-2.637-4.611
	c-0.234-0.408-0.495-0.527-0.946-0.392c-0.283,0.085-0.556,0.205-0.831,0.315c-0.852,0.34-1.704,0.679-2.552,1.028
	c-0.17,0.07-0.292,0.059-0.456-0.042c-0.662-0.408-1.337-0.794-2.013-1.177c-0.148-0.084-0.23-0.168-0.256-0.351
	c-0.163-1.128-0.344-2.254-0.519-3.381c-0.004-0.027-0.017-0.057-0.011-0.082c0.092-0.399-0.137-0.6-0.457-0.746h-5.959
	c-0.463,0.142-0.618,0.475-0.675,0.938c-0.136,1.113-0.319,2.22-0.492,3.329c-0.013,0.083-0.08,0.184-0.151,0.228
	c-0.696,0.421-1.403,0.823-2.096,1.249c-0.154,0.094-0.269,0.111-0.432,0.042c-0.997-0.424-1.998-0.84-2.999-1.257
	c-0.639-0.267-1.026-0.134-1.37,0.468c-0.855,1.497-1.71,2.995-2.565,4.492c-0.278,0.486-0.208,0.848,0.247,1.197
	c0.898,0.689,1.797,1.376,2.703,2.055c0.151,0.113,0.219,0.226,0.188,0.415c-0.139,0.837-0.201,1.674-0.022,2.516
	c0.015,0.069-0.091,0.186-0.168,0.249c-0.883,0.723-1.772,1.438-2.658,2.157c-0.425,0.345-0.484,0.641-0.215,1.113
	c0.899,1.579,1.801,3.156,2.702,4.734c0.155,0.271,0.419,0.395,0.727,0.336c0.135-0.026,0.27-0.066,0.398-0.117
	c1.068-0.423,2.133-0.854,3.203-1.272c0.093-0.036,0.238-0.036,0.322,0.011c0.709,0.401,1.412,0.812,2.108,1.236
	c0.107,0.065,0.214,0.207,0.234,0.327c0.185,1.125,0.349,2.253,0.525,3.38c0.075,0.482,0.295,0.685,0.784,0.686
	c1.875,0.007,3.749,0.007,5.624,0C740.543,509.802,740.828,509.533,740.897,509.082z M739.349,500.08
	c-0.105,0.053-0.205,0.115-0.314,0.16c-0.581,0.244-1.213,0.386-1.874,0.39c-2.717,0.016-5.03-2.283-5.035-5.006
	c-0.005-2.708,2.327-5.036,5.029-5.02c2.139,0.012,3.986,1.437,4.686,3.364c0.093,0.255,0.168,0.517,0.222,0.786
	c0.052,0.283,0.09,0.57,0.091,0.865c0,0.32-0.036,0.632-0.096,0.937c-0.02,0.101-0.055,0.197-0.081,0.297
	c-0.052,0.199-0.108,0.396-0.184,0.585c-0.045,0.112-0.101,0.218-0.153,0.326c-0.081,0.165-0.166,0.327-0.264,0.482
	c-0.068,0.107-0.141,0.211-0.217,0.313c-0.105,0.141-0.217,0.277-0.336,0.407c-0.087,0.096-0.176,0.19-0.27,0.279
	c-0.128,0.12-0.265,0.23-0.404,0.336c-0.102,0.078-0.202,0.159-0.31,0.229C739.683,499.911,739.516,499.995,739.349,500.08z
	 M790.487,519.8c-3.297-0.012-5.756-2.134-6.265-5.407c-0.105-0.675-0.208-1.35-0.31-2.026c-0.091-0.598-0.182-1.196-0.274-1.794
	c-0.011-0.006-0.022-0.013-0.033-0.019c-0.521,0.207-1.041,0.415-1.562,0.623c-0.66,0.263-1.319,0.527-1.979,0.788
	c-0.514,0.204-1.046,0.36-1.581,0.463c-0.396,0.076-0.799,0.115-1.198,0.115c-0.13,0-0.255-0.017-0.383-0.025
	c-1.163,4.415-5.234,7.77-9.986,7.799c-5.62,0.034-10.405-4.723-10.416-10.356c-0.011-5.508,4.656-10.247,10.127-10.373
	c-0.653-2.411,0.123-4.807,2.258-6.539l1.407-1.14c0.465-0.376,0.93-0.753,1.395-1.13c0.001-0.14,0.004-0.278,0.009-0.415
	c-0.986-0.748-1.93-1.472-2.779-2.123c-2.605-2-3.332-5.057-1.984-7.931h-6.201c-0.958,0.294-1.278,0.984-1.396,1.942
	c-0.282,2.303-0.66,4.594-1.017,6.887c-0.027,0.172-0.164,0.382-0.313,0.471c-1.37,0.828-2.759,1.624-4.126,2.458
	c-0.19,0.801-0.656,1.546-1.405,2.152l-0.705,0.574c-0.307,0.251-0.614,0.501-0.924,0.75l0,0.007c0.376,0.26,0.75,0.522,1.125,0.784
	l0.716,0.5c1.383,0.964,1.918,2.558,1.395,4.159c-0.097,0.297-0.226,0.586-0.395,0.882c-0.887,1.556-1.775,3.11-2.664,4.665
	c-1,1.749-2.472,2.01-3.26,2.01c-0.517,0-1.035-0.107-1.585-0.326l-0.78-0.312c-0.167-0.067-0.334-0.133-0.501-0.2
	c-0.266,1.669-0.376,3.339-0.019,5.018c0.03,0.143-0.189,0.385-0.347,0.514c-1.827,1.495-3.666,2.976-5.5,4.463
	c-0.879,0.713-1.001,1.326-0.445,2.302c1.861,3.266,3.725,6.53,5.591,9.793c0.321,0.561,0.868,0.817,1.505,0.695
	c0.28-0.054,0.559-0.137,0.824-0.242c2.209-0.876,4.413-1.766,6.626-2.631c0.193-0.075,0.492-0.075,0.666,0.024
	c1.466,0.831,2.922,1.68,4.36,2.557c0.221,0.135,0.442,0.428,0.483,0.677c0.383,2.327,0.723,4.662,1.085,6.993
	c0.155,0.997,0.61,1.416,1.622,1.42c3.878,0.014,7.757,0.014,11.635,0c0.932-0.003,1.52-0.561,1.664-1.494
	c0.357-2.312,0.698-4.627,1.076-6.936c0.039-0.236,0.235-0.518,0.441-0.643c1.456-0.886,2.927-1.746,4.411-2.585
	c0.172-0.097,0.471-0.081,0.668-0.005c2.213,0.865,4.418,1.753,6.625,2.633c1.152,0.459,1.731,0.262,2.338-0.8
	c1.837-3.213,3.674-6.427,5.507-9.643c0.003-0.005,0.004-0.011,0.007-0.016c-0.149,0-0.298,0.001-0.447,0.001
	C793.676,519.809,792.082,519.806,790.487,519.8z"/>
</svg>
