<svg xmlns="http://www.w3.org/2000/svg" viewBox="0 0 253.05 126.94"><defs><style>.cls-1{fill:#ffc815;}.cls-1,.cls-2,.cls-3{fill-rule:evenodd;}.cls-2{fill:#a3cd3b;}.cls-3{fill:#0093d7;}</style></defs><title>Ресурс 9</title><g id="Слой_2" data-name="Слой 2"><g id="_3" data-name="3"><g id="Meter"><g id="Shape_2" data-name="Shape 2"><path class="cls-1" d="M49.18,27.3A125.71,125.71,0,0,0,0,126.94H55.59c0-25.34,9.77-42.65,28.43-57.29Z"/></g><g id="Shape_3" data-name="Shape 3"><path class="cls-2" d="M128.05,0A126.41,126.41,0,0,0,55.14,23L89.7,66c12.16-7.85,26.29-12.2,38.35-12.2s23.7,2.28,38.39,12.2L201,23A126.2,126.2,0,0,0,128.05,0Z"/></g><g id="Shape_4" data-name="Shape 4"><path class="cls-3" d="M205.26,27.3,171.58,69.65c17.09,13.89,27.49,31.95,27.49,57.29h54A126.86,126.86,0,0,0,205.26,27.3Z"/></g></g></g></g></svg>