<svg width="590" height="492" viewBox="0 0 590 492" fill="none" xmlns="http://www.w3.org/2000/svg">
<path d="M423.371 229.732C424.743 197.577 400.066 167.581 376.602 175.184C353.138 182.786 334.261 205.412 331.919 227.398C329.577 249.385 369.024 236.993 386.667 244.652C404.358 252.418 422.686 244.904 423.371 229.732Z" stroke="#5B5B5B" stroke-miterlimit="10"/>
<path d="M325.77 171.196C303.554 180.441 305.09 202.76 290.776 221.409C282.41 232.371 283.462 238.364 285.825 244.032C289.675 253.044 307.121 258.845 313.886 260.615C334.46 266.187 367.461 263.383 384.862 274.89C415.692 295.151 435.205 256.611 442.994 236.732C453.012 211.337 447.015 192.425 431.095 182.067C395.387 159.197 395.347 142.415 325.77 171.196Z" stroke="#5B5B5B" stroke-miterlimit="10"/>
<path d="M395.177 142.568C383.225 127.666 352.912 144.274 301.216 153.03C262.118 159.678 272.13 202.797 247.732 232.328C222.633 262.818 241.475 267.134 268.817 275.703C299.408 285.417 357.424 282.533 386.213 304.847C429.487 338.343 451.688 268.047 465.693 243.403C485.943 207.811 474.322 188.225 454.23 174.224C433.542 159.971 403.569 153.092 395.177 142.568Z" stroke="#5B5B5B" stroke-miterlimit="10"/>
<path d="M407.133 125.118C395.31 100.014 351.874 124.414 277.378 134.221C222.093 141.444 239.598 202.176 204.986 242.764C168.294 285.576 196.018 292.31 239.293 299.129C283.619 306.129 353.465 304.752 388.309 334.013C444.108 380.939 469.425 278.82 489.675 249.168C520.884 203.477 505.13 181.16 478.819 165.62C452.411 149.864 415.013 141.727 407.133 125.118Z" stroke="#5B5B5B" stroke-miterlimit="10"/>
<path d="M513.484 254.132C555.554 198.788 535.584 173.524 503.412 156.409C471.105 139.355 426.548 130.342 419.216 107.343C407.867 72.4186 350.869 104.394 253.924 115.213C182.528 123.195 207.562 201.189 162.76 252.575C114.963 307.752 151.577 317.067 210.152 321.65C268.862 326.172 349.716 326.011 390.483 362.069C458.461 422.237 487.213 288.728 513.484 254.132Z" stroke="#5B5B5B" stroke-miterlimit="10"/>
<path d="M223.101 104.273C152.09 124.23 154.944 197.707 113.232 252.293C71.4329 307.046 99.3806 324.14 150.057 342.254C178.648 352.455 224.143 346.967 268.455 346.8C317.444 346.623 359.738 356.422 383.495 396.368C429.969 474.649 512.13 304.636 535.36 260.741C567.91 199.353 544.954 169.544 509.922 147.055C474.757 124.625 429.075 110.116 420.88 80.4712C408.737 36.5207 328.424 74.7394 223.101 104.273Z" stroke="#5B5B5B" stroke-miterlimit="10"/>
<path d="M193.429 93.2805C122.763 124.095 103.244 194.047 64.8962 251.788C28.8662 306.036 47.5061 334.131 91.3007 362.553C121.713 382.298 181.474 369.031 240.228 364.371C302.108 359.486 355.286 367.67 377.696 429.962C410.127 520.56 538.831 320.402 558.489 266.708C582.944 199.869 555.732 164.841 517.766 137.191C479.801 109.541 433.085 89.4139 424.177 53.1004C410.957 0.575249 307.598 43.4852 193.429 93.2805Z" stroke="#5B5B5B" stroke-miterlimit="10"/>
<path d="M167.376 85.6412C96.7476 126.629 54.7157 193.443 19.7067 254.293C-11.0358 307.698 -2.72558 348.1 35.3031 385.33C66.133 415.448 141.523 393.488 214.677 384.258C289.321 374.752 356.297 380.266 374.382 465.447C396.041 567.35 569.022 338.168 584.246 274.907C601.664 202.805 569.193 162.843 528.507 130.15C487.772 97.3494 440.003 71.9362 430.456 29.1185C416.8 -31.9863 289.619 14.5799 167.376 85.6412Z" stroke="#5B5B5B" stroke-miterlimit="10"/>
</svg>
