<svg width="18" height="18" viewBox="0 0 18 18" fill="none" xmlns="http://www.w3.org/2000/svg">
<path fill-rule="evenodd" clip-rule="evenodd" d="M1.92879 0.514719C1.53827 0.124194 0.905103 0.124194 0.514578 0.514719C0.124054 0.905243 0.124054 1.53841 0.514578 1.92893L7.58565 9L0.514578 16.0711C0.124054 16.4616 0.124054 17.0948 0.514578 17.4853C0.905103 17.8758 1.53827 17.8758 1.92879 17.4853L8.99986 10.4142L16.0709 17.4853C16.4615 17.8758 17.0946 17.8758 17.4851 17.4853C17.8757 17.0948 17.8757 16.4616 17.4851 16.0711L10.4141 9L17.4851 1.92893C17.8757 1.53841 17.8757 0.905243 17.4851 0.514719C17.0946 0.124194 16.4615 0.124195 16.0709 0.514719L8.99986 7.58579L1.92879 0.514719Z" fill="white"/>
</svg>
