<svg width="79" height="80" viewBox="0 0 79 80" fill="none" xmlns="http://www.w3.org/2000/svg">
<rect x="1" y="1.13818" width="77.2478" height="77.2478" rx="38.6239" fill="#333335"/>
<rect x="1" y="1.13818" width="77.2478" height="77.2478" rx="38.6239" stroke="#E2E4E9" stroke-width="1.37942"/>
<path d="M52.0388 39.7617H49.5558V31.0713H29.6921V47.6886L31.8808 45.9691H39.6239V48.4521H32.7399L27.2091 52.7973V29.8299C27.2091 29.5006 27.3399 29.1848 27.5727 28.952C27.8056 28.7192 28.1213 28.5884 28.4506 28.5884H50.7973C51.1265 28.5884 51.4423 28.7192 51.6751 28.952C51.908 29.1848 52.0388 29.5006 52.0388 29.8299V39.7617ZM42.2869 48.5402C42.0454 47.6703 42.0454 46.751 42.2869 45.881L41.0765 45.182L42.3179 43.0318L43.5296 43.7307C44.1616 43.0864 44.9574 42.6267 45.8313 42.4011V41.0032H48.3143V42.4011C49.202 42.6295 49.994 43.0963 50.616 43.7307L51.8277 43.0318L53.0692 45.182L51.8587 45.881C52.1002 46.751 52.1002 47.6703 51.8587 48.5402L53.0692 49.2392L51.8277 51.3894L50.616 50.6905C49.994 51.3236 49.2007 51.7917 48.3143 52.0201V53.418H45.8313V52.0201C44.9574 51.7945 44.1616 51.3348 43.5296 50.6905L42.3179 51.3894L41.0765 49.2392L42.2869 48.5402V48.5402ZM47.0728 49.6936C47.7313 49.6936 48.3629 49.432 48.8285 48.9663C49.2942 48.5007 49.5558 47.8691 49.5558 47.2106C49.5558 46.5521 49.2942 45.9205 48.8285 45.4549C48.3629 44.9892 47.7313 44.7277 47.0728 44.7277C46.4143 44.7277 45.7827 44.9892 45.3171 45.4549C44.8515 45.9205 44.5899 46.5521 44.5899 47.2106C44.5899 47.8691 44.8515 48.5007 45.3171 48.9663C45.7827 49.432 46.4143 49.6936 47.0728 49.6936V49.6936Z" fill="#CDD0D5"/>
</svg>
