<svg width="20" height="20" viewBox="0 0 20 20" fill="none" xmlns="http://www.w3.org/2000/svg">
<path d="M6.98813 8.24628C7.97339 9.97718 9.40683 11.4106 11.1377 12.3959L12.0659 11.096C12.2152 10.887 12.4359 10.7399 12.6863 10.6826C12.9367 10.6254 13.1993 10.6618 13.4246 10.7852C14.9097 11.5967 16.5497 12.0848 18.2368 12.2174C18.5001 12.2382 18.7459 12.3576 18.9251 12.5516C19.1043 12.7456 19.2039 13.0001 19.2038 13.2642V17.9493C19.2039 18.2093 19.1075 18.46 18.9333 18.653C18.7591 18.846 18.5195 18.9676 18.2609 18.9941C17.7044 19.0518 17.1437 19.0802 16.5788 19.0802C7.59083 19.0802 0.303833 11.7932 0.303833 2.80518C0.303833 2.24028 0.332183 1.67958 0.389933 1.12308C0.41645 0.864458 0.537967 0.624872 0.730962 0.450691C0.923958 0.27651 1.17471 0.18012 1.43468 0.180176H6.11978C6.38392 0.180143 6.63837 0.279665 6.8324 0.458899C7.02642 0.638133 7.14577 0.88391 7.16663 1.14723C7.29917 2.83436 7.78726 4.47434 8.59883 5.95938C8.72217 6.18467 8.75866 6.44735 8.70138 6.69773C8.64411 6.94811 8.49705 7.16881 8.28803 7.31808L6.98813 8.24628V8.24628ZM4.34003 7.55643L6.33503 6.13158C5.76885 4.90947 5.38095 3.61246 5.18318 2.28018H2.41433C2.40803 2.45448 2.40488 2.62983 2.40488 2.80518C2.40383 10.634 8.75003 16.9802 16.5788 16.9802C16.7542 16.9802 16.9295 16.977 17.1038 16.9697V14.2008C15.7715 14.0031 14.4745 13.6152 13.2524 13.049L11.8276 15.044C11.2539 14.8211 10.6967 14.5579 10.1602 14.2565L10.0993 14.2218C8.03979 13.0497 6.33428 11.3442 5.16218 9.28472L5.12753 9.22383C4.82609 8.68727 4.56293 8.13008 4.34003 7.55643V7.55643Z" fill="white"/>
</svg>
