<svg width="17" height="23" viewBox="0 0 17 23" fill="none" xmlns="http://www.w3.org/2000/svg">
<path d="M16.6593 22.6H14.5902V20.5308C14.5902 19.7077 14.2632 18.9182 13.6811 18.3362C13.0991 17.7541 12.3096 17.4271 11.4865 17.4271H5.27904C4.45589 17.4271 3.66645 17.7541 3.08439 18.3362C2.50234 18.9182 2.17534 19.7077 2.17534 20.5308V22.6H0.106201V20.5308C0.106201 19.1589 0.651196 17.8432 1.62129 16.8731C2.59139 15.903 3.90712 15.358 5.27904 15.358H11.4865C12.8584 15.358 14.1741 15.903 15.1442 16.8731C16.1143 17.8432 16.6593 19.1589 16.6593 20.5308V22.6ZM8.38275 13.2888C7.56758 13.2888 6.76039 13.1283 6.00728 12.8163C5.25416 12.5044 4.56986 12.0471 3.99345 11.4707C3.41704 10.8943 2.9598 10.21 2.64785 9.45691C2.3359 8.70379 2.17534 7.8966 2.17534 7.08144C2.17534 6.26627 2.3359 5.45908 2.64785 4.70596C2.9598 3.95284 3.41704 3.26854 3.99345 2.69213C4.56986 2.11572 5.25416 1.65849 6.00728 1.34653C6.76039 1.03458 7.56758 0.874023 8.38275 0.874023C10.0291 0.874023 11.6079 1.52802 12.7721 2.69213C13.9362 3.85625 14.5902 5.43513 14.5902 7.08144C14.5902 8.72774 13.9362 10.3066 12.7721 11.4707C11.6079 12.6349 10.0291 13.2888 8.38275 13.2888ZM8.38275 11.2197C9.48029 11.2197 10.5329 10.7837 11.309 10.0076C12.085 9.23156 12.521 8.17897 12.521 7.08144C12.521 5.9839 12.085 4.93131 11.309 4.15523C10.5329 3.37916 9.48029 2.94316 8.38275 2.94316C7.28521 2.94316 6.23263 3.37916 5.45655 4.15523C4.68047 4.93131 4.24448 5.9839 4.24448 7.08144C4.24448 8.17897 4.68047 9.23156 5.45655 10.0076C6.23263 10.7837 7.28521 11.2197 8.38275 11.2197Z" fill="#868C98"/>
</svg>
