<svg width="29" height="29" viewBox="0 0 29 29" fill="none" xmlns="http://www.w3.org/2000/svg">
<circle cx="14.2731" cy="14.1836" r="12.25" fill="url(#paint0_linear_2003_1910)"/>
<path d="M16.3458 13.0327C16.3515 13.1513 16.2606 13.2521 16.1429 13.2579C16.0252 13.2636 15.9252 13.1721 15.9195 13.0535C15.8842 12.3187 15.5454 11.9662 14.8452 11.9287C14.7275 11.9224 14.6372 11.8211 14.6434 11.7026C14.6497 11.584 14.7501 11.4929 14.8678 11.4992C15.7893 11.5486 16.3001 12.08 16.3458 13.0327Z" fill="white"/>
<path d="M17.2216 13.628C17.3394 13.6307 17.4371 13.5366 17.4398 13.4179C17.4587 12.5775 17.2089 11.8679 16.6899 11.2981C16.1699 10.7274 15.4528 10.4113 14.545 10.3464C14.4274 10.3379 14.3254 10.4272 14.317 10.5456C14.3087 10.6641 14.3972 10.7669 14.5148 10.7753C15.3188 10.8328 15.9334 11.1037 16.3755 11.5889C16.8179 12.0746 17.0296 12.676 17.0131 13.4081C17.0104 13.5269 17.1038 13.6253 17.2216 13.628Z" fill="white"/>
<path d="M18.5615 13.8528C18.5624 13.9715 18.4676 14.0685 18.3497 14.0694C18.2319 14.0703 18.1356 13.9747 18.1347 13.856C18.125 12.5475 17.7417 11.5305 16.9864 10.7862C16.2283 10.0419 15.286 9.66573 14.1538 9.65843C14.0359 9.65767 13.941 9.5608 13.9418 9.44205C13.9425 9.3233 14.0387 9.22765 14.1565 9.22841C15.3973 9.23641 16.4458 9.65495 17.2845 10.4785C18.1261 11.3077 18.551 12.4351 18.5615 13.8528Z" fill="white"/>
<path d="M15.3604 15.7473C15.2009 15.9489 14.8996 15.9234 14.8996 15.9234C12.7069 15.3596 12.1194 13.1222 12.1194 13.1222C12.1194 13.1222 12.0941 12.8212 12.2941 12.6579L12.6891 12.3415C12.8866 12.1885 13.0107 11.8186 12.8107 11.4563C12.6993 11.2547 12.4764 10.895 12.3119 10.668C12.1372 10.4282 11.732 9.93835 11.7295 9.9358C11.5345 9.70109 11.2459 9.64752 10.9421 9.80569C10.9421 9.80569 10.9395 9.80824 10.937 9.80824C10.6483 9.97151 10.38 10.1909 10.1293 10.469L10.1242 10.4741C9.93686 10.7011 9.82799 10.9256 9.80267 11.145C9.7976 11.1706 9.79507 11.2037 9.7976 11.242C9.79507 11.3389 9.81026 11.4333 9.84065 11.5277L9.85077 11.5354C9.94446 11.8747 10.1825 12.4385 10.6965 13.3799C11.0307 13.9896 11.3725 14.4998 11.7118 14.9284C11.889 15.1555 12.0916 15.3876 12.3245 15.6249L12.4157 15.7167C12.6511 15.9514 12.8816 16.1555 13.1069 16.3341C13.5323 16.676 14.0361 17.0204 14.6438 17.3571C15.5781 17.875 16.1377 18.1148 16.4744 18.2092L16.482 18.2194C16.5757 18.25 16.6694 18.2628 16.7656 18.2628C16.8036 18.2653 16.8365 18.2628 16.8618 18.2577C17.0796 18.2322 17.3024 18.1225 17.5278 17.9337L17.5328 17.9286C17.8088 17.676 18.0266 17.403 18.1886 17.1148C18.1886 17.1148 18.1911 17.1122 18.1911 17.1097C18.3481 16.8035 18.2949 16.5127 18.062 16.3162C18.062 16.3162 17.5733 15.9055 17.3353 15.7295C17.1125 15.5637 16.753 15.3417 16.5529 15.2269C16.1934 15.0254 15.8263 15.1504 15.6743 15.3494L15.3604 15.7473Z" fill="white"/>
<path fill-rule="evenodd" clip-rule="evenodd" d="M14.5805 6.1958C18.3532 6.21365 20.0471 7.45352 20.4674 7.8413C21.8574 9.0582 22.6297 11.7573 22.1106 16.0203C21.654 19.7869 19.0465 20.4551 18.1718 20.6793C18.0861 20.7012 18.0171 20.7189 17.9683 20.7349C17.7328 20.8114 15.649 21.3369 12.9423 21.1073C12.6436 21.4568 12.246 21.916 11.9599 22.2273C11.8735 22.3211 11.7925 22.4138 11.7152 22.5023C11.3236 22.9506 11.024 23.2935 10.5673 23.1508C10.1141 23.0105 10.1394 22.3166 10.1394 22.3166L10.142 20.6048H10.1394C6.17939 19.4822 6.23763 15.3468 6.28321 13.1375C6.32625 10.9282 6.75162 9.14749 7.95938 7.93059C10.1293 5.92537 14.5805 6.1958 14.5805 6.1958ZM17.7226 19.4869C18.466 19.313 20.5423 18.8276 20.9257 15.7142C21.3637 12.1528 20.7636 9.7215 19.5888 8.70359C19.2343 8.37959 17.705 7.4127 14.5122 7.39739C14.5122 7.39739 10.7319 7.14738 8.89621 8.82094C7.87582 9.8363 7.53147 11.3466 7.49349 13.1911L7.48936 13.379C7.44651 15.2652 7.37099 18.5896 10.6078 19.495C10.6078 19.495 10.5952 22.1099 10.5926 22.3395C10.5926 22.5003 10.618 22.61 10.7091 22.6329C10.7749 22.6508 10.8737 22.6151 10.9572 22.5309C11.4915 21.9875 13.2057 19.9057 13.2057 19.9057C15.5047 20.0588 17.3328 19.5996 17.5303 19.5358C17.5757 19.5212 17.6412 19.5059 17.7226 19.4869Z" fill="white"/>
<defs>
<linearGradient id="paint0_linear_2003_1910" x1="14.2731" y1="1.93359" x2="14.2731" y2="26.4336" gradientUnits="userSpaceOnUse">
<stop stop-color="#665CAC"/>
<stop offset="1" stop-color="#484178"/>
</linearGradient>
</defs>
</svg>
