<svg width="29" height="29" viewBox="0 0 29 29" fill="none" xmlns="http://www.w3.org/2000/svg">
<path d="M24.8619 14.6304C24.8619 20.4294 20.1609 25.1304 14.3619 25.1304C12.1501 25.1304 10.098 24.4465 8.40551 23.2786L4.81648 24.1758L5.75698 20.649C4.56275 18.9447 3.86194 16.8694 3.86194 14.6304C3.86194 8.83138 8.56295 4.13037 14.3619 4.13037C20.1609 4.13037 24.8619 8.83138 24.8619 14.6304Z" fill="url(#paint0_linear_212_3079)"/>
<path fill-rule="evenodd" clip-rule="evenodd" d="M14.3618 26.8804C21.1273 26.8804 26.6118 21.3959 26.6118 14.6304C26.6118 7.86488 21.1273 2.38037 14.3618 2.38037C7.59633 2.38037 2.11182 7.86488 2.11182 14.6304C2.11182 16.8274 2.69019 18.8893 3.70298 20.6722L2.11182 26.8804L8.51232 25.3962C10.2505 26.3426 12.2434 26.8804 14.3618 26.8804ZM14.3618 24.9958C20.0865 24.9958 24.7272 20.355 24.7272 14.6304C24.7272 8.90573 20.0865 4.26499 14.3618 4.26499C8.63717 4.26499 3.99643 8.90573 3.99643 14.6304C3.99643 16.8407 4.68826 18.8894 5.86718 20.5718L4.93874 24.0534L8.48176 23.1677C10.1525 24.3206 12.1783 24.9958 14.3618 24.9958Z" fill="white"/>
<path d="M11.2993 8.94259C11.0081 8.35758 10.5613 8.40938 10.1099 8.40938C9.30323 8.40938 8.04541 9.37562 8.04541 11.1739C8.04541 12.6477 8.69483 14.261 10.8832 16.6743C12.9951 19.0033 15.77 20.2082 18.0737 20.1671C20.3775 20.1261 20.8514 18.1437 20.8514 17.4742C20.8514 17.1775 20.6673 17.0294 20.5404 16.9892C19.7554 16.6124 18.3075 15.9104 17.978 15.7785C17.6486 15.6466 17.4766 15.825 17.3696 15.9221C17.0709 16.2068 16.4787 17.0459 16.2759 17.2346C16.0731 17.4233 15.7708 17.3278 15.645 17.2565C15.1821 17.0707 13.9269 16.5124 12.9264 15.5425C11.689 14.343 11.6164 13.9303 11.3832 13.563C11.1967 13.2691 11.3336 13.0888 11.4019 13.01C11.6685 12.7024 12.0366 12.2274 12.2017 11.9914C12.3668 11.7554 12.2357 11.3971 12.1571 11.1739C11.8189 10.2141 11.5323 9.41059 11.2993 8.94259Z" fill="white"/>
<defs>
<linearGradient id="paint0_linear_212_3079" x1="23.5494" y1="6.75537" x2="3.86194" y2="25.1304" gradientUnits="userSpaceOnUse">
<stop stop-color="#5BD066"/>
<stop offset="1" stop-color="#27B43E"/>
</linearGradient>
</defs>
</svg>
