<svg width="35" height="23" viewBox="0 0 35 23" fill="none" xmlns="http://www.w3.org/2000/svg">
<path d="M27.6345 15.4272C26.9476 13.9952 24.4903 12.0074 22.1162 10.0868C20.792 9.01636 19.5408 8.00429 18.7431 7.20661C18.5433 7.00536 18.2443 6.94117 17.9804 7.03598C17.4889 7.21392 17.1856 7.35098 16.9464 7.45742C16.5819 7.62073 16.4594 7.67617 15.9679 7.72573C15.8609 7.7363 15.7575 7.77041 15.6652 7.82563C15.5729 7.88084 15.494 7.95579 15.4341 8.0451C14.4031 9.58654 13.3356 9.45529 12.6224 9.21617C12.3949 9.14036 12.3541 9.0426 12.3323 8.94929C12.1791 8.30911 12.9477 6.81867 13.9437 5.82261C16.3135 3.45136 17.5356 2.85779 20.1168 4.01135C23.0451 5.32092 25.9793 6.34617 26.0085 6.35636C26.099 6.38804 26.1948 6.40154 26.2905 6.3961C26.3862 6.39066 26.4799 6.36637 26.5662 6.32464C26.6525 6.28291 26.7298 6.22455 26.7935 6.15291C26.8572 6.08127 26.9061 5.99776 26.9374 5.90717C27.0687 5.52654 26.8689 5.11092 26.4883 4.97823C26.4591 4.96804 23.5833 3.96323 20.7133 2.67842C17.3693 1.1836 15.5347 2.16798 12.9141 4.7901C11.9166 5.78761 10.5617 7.80592 10.9117 9.28617C11.0619 9.91617 11.5053 10.3829 12.1644 10.6001C13.8167 11.1455 15.3246 10.6234 16.4476 9.13304C16.9113 9.06161 17.1636 8.95661 17.5427 8.78598C17.7115 8.70978 17.8816 8.63685 18.0532 8.56723C18.8874 9.35036 20.0132 10.2618 21.1988 11.2199C23.3426 12.9539 25.7736 14.9197 26.3205 16.0572C26.5903 16.6187 26.3001 16.9847 26.1032 17.1524C25.8144 17.4004 25.4192 17.4791 25.2049 17.3289C24.9686 17.167 24.6609 17.1568 24.4174 17.3026C24.2975 17.374 24.2007 17.4784 24.1384 17.6033C24.0761 17.7281 24.0509 17.8682 24.0659 18.007C24.1155 18.4707 23.6911 18.7362 23.5074 18.828C23.0407 19.0643 22.5536 19.0235 22.3713 18.8543C22.1671 18.6647 21.874 18.6093 21.6144 18.7055C21.3549 18.8032 21.174 19.0424 21.1477 19.3195C21.104 19.7978 20.7496 20.2572 20.2873 20.4365C20.0642 20.5211 19.7404 20.5722 19.4502 20.3067C19.3612 20.2265 19.2541 20.1692 19.1379 20.1397C19.0218 20.1103 18.9003 20.1095 18.7838 20.1375C18.6672 20.166 18.5595 20.2228 18.4702 20.303C18.3809 20.3831 18.3128 20.4841 18.2719 20.5969C18.2442 20.6699 18.1815 20.8449 17.499 20.8449C17.0134 20.8449 16.1398 20.5167 15.7126 20.2338C15.2007 19.8969 11.9909 17.5024 9.21862 15.1807C8.82925 14.8525 8.1555 14.1496 7.5605 13.5283C7.03256 12.9771 6.54987 12.4769 6.30193 12.2669C5.99131 12.0044 5.53193 12.0438 5.27381 12.353C5.01425 12.6607 5.05212 13.1215 5.35987 13.3811C5.58594 13.5722 6.02344 14.0344 6.50612 14.5375C7.15656 15.2171 7.82881 15.92 8.28094 16.2992C10.9964 18.5728 14.2601 21.0272 14.9105 21.4544C15.4472 21.8074 16.6036 22.3032 17.4991 22.3032C18.218 22.3032 18.7708 22.1383 19.1542 21.8161C19.6676 22.0159 20.2509 22.0174 20.8124 21.7986C21.4759 21.5419 22.0213 21.0242 22.3305 20.3972C22.9051 20.5197 23.5628 20.4336 24.1607 20.1332C24.7455 19.8387 25.1684 19.388 25.3784 18.8615C25.9588 18.8922 26.5567 18.6865 27.0511 18.2622C27.8883 17.5462 28.1186 16.432 27.6345 15.4272Z" fill="white"/>
<path d="M14.5827 3.3446H8.02021C7.61771 3.3446 7.29102 3.67129 7.29102 4.07379C7.29102 4.47629 7.61771 4.80298 8.02021 4.80298H14.5827C14.9852 4.80298 15.3119 4.47629 15.3119 4.07379C15.3119 3.67129 14.9852 3.3446 14.5827 3.3446ZM29.7713 13.8752C29.5452 13.5413 29.0931 13.4494 28.7592 13.6769L26.6271 15.109C26.2932 15.3335 26.2042 15.7871 26.4288 16.121C26.4959 16.2203 26.5863 16.3015 26.6921 16.3577C26.7978 16.4139 26.9158 16.4433 27.0355 16.4434C27.1741 16.4434 27.3155 16.404 27.441 16.3194L29.573 14.8874C29.9069 14.6627 29.9958 14.2092 29.7713 13.8752ZM25.2446 17.3549C24.7225 16.9436 22.3877 14.5534 20.944 13.0484C20.6654 12.7567 20.2031 12.7465 19.9129 13.0265C19.6212 13.3051 19.6125 13.7674 19.891 14.0576C20.2658 14.4484 23.5718 17.8945 24.3404 18.5012C24.4687 18.6024 24.6275 18.6574 24.791 18.6572C25.0054 18.6572 25.2198 18.561 25.3656 18.3787C25.615 18.0636 25.5611 17.6042 25.2446 17.3549ZM22.3308 18.8175C21.4573 18.119 19.2625 15.7871 18.7666 15.2475C18.4925 14.95 18.0331 14.9325 17.7356 15.2038C17.4395 15.4765 17.4191 15.9388 17.6918 16.2349C17.7181 16.2625 20.3373 19.0903 21.4193 19.9565C21.5487 20.0593 21.7091 20.1153 21.8743 20.1155C22.0873 20.1155 22.3001 20.0207 22.4445 19.8428C22.6955 19.5277 22.6444 19.0684 22.3308 18.8175ZM19.4288 20.2861C18.389 19.4097 16.2613 17.1449 15.8456 16.7C15.57 16.4055 15.1077 16.3894 14.8146 16.665C14.52 16.9407 14.5054 17.4015 14.7796 17.6961C15.3775 18.3363 17.4133 20.4947 18.4881 21.4017C18.6194 21.5128 18.7858 21.5738 18.9577 21.5738C19.1648 21.5738 19.3719 21.4849 19.5163 21.3142C19.7758 21.005 19.7365 20.5457 19.4288 20.2861Z" fill="white"/>
<path d="M8.5225 2.08627C7.27269 0.90208 2.275 0.518516 0.77294 0.42958C0.565879 0.419395 0.374815 0.487891 0.229004 0.626455C0.156648 0.694637 0.0990065 0.7769 0.0596239 0.868185C0.0202413 0.95947 -4.93449e-05 1.05785 9.01134e-08 1.15727V14.2823C9.01134e-08 14.6848 0.32669 15.0115 0.72919 15.0115H5.10419C5.41919 15.0115 5.69919 14.8088 5.79688 14.5083C5.90331 14.1816 8.41606 6.47002 8.74706 2.67833C8.76606 2.45664 8.68437 2.23789 8.5225 2.08627ZM4.57187 13.5531H1.45831V1.93896C3.80188 2.12414 6.33062 2.52664 7.24937 2.97289C6.86294 6.16664 5.11437 11.841 4.57187 13.5531ZM34.2708 1.88646C28.5454 1.88646 25.3691 3.35208 25.2364 3.41333C25.0469 3.50227 24.9054 3.66708 24.8471 3.86689C24.7887 4.06671 24.8179 4.28109 24.9272 4.45896C25.8285 5.91002 28.6504 13.9688 29.1929 15.9346C29.2353 16.0884 29.3271 16.2241 29.454 16.3208C29.581 16.4175 29.7362 16.4698 29.8958 16.4698H34.2708C34.6733 16.4698 35 16.1431 35 15.7406V2.61558C35.0001 2.5198 34.9813 2.42494 34.9447 2.33644C34.908 2.24794 34.8543 2.16753 34.7866 2.09981C34.7189 2.03208 34.6385 1.97838 34.5499 1.94177C34.4614 1.90516 34.3666 1.88637 34.2708 1.88646ZM33.5417 15.0115H30.4412C29.75 12.7598 27.7083 6.88852 26.5694 4.4619C27.6821 4.08421 30.0723 3.43521 33.5417 3.35359V15.0115Z" fill="white"/>
</svg>
