<svg width="35" height="28" viewBox="0 0 35 28" fill="none" xmlns="http://www.w3.org/2000/svg">
<g clip-path="url(#clip0_132_2100)">
<path d="M27.1282 6.82422C27.1312 6.75854 27.1331 6.69226 27.1331 6.62597C27.1331 3.95499 24.83 1.6405 21.9885 1.6405C19.9113 1.6405 18.123 2.94823 17.3103 4.61483H17.3091C16.4971 2.94882 14.7087 1.6405 12.6309 1.6405C9.78994 1.6405 7.48627 3.95559 7.48627 6.62597C7.48627 6.69226 7.48873 6.75854 7.49178 6.82422C7.49178 6.82422 7.20056 9.99679 10.8108 13.4607C12.452 15.0694 14.288 16.5975 17.3091 18.9998C20.3302 16.5981 22.1662 15.0694 23.8074 13.4607C27.4176 9.99679 27.127 6.82422 27.127 6.82422H27.1282Z" stroke="white" stroke-width="2" stroke-linecap="round" stroke-linejoin="round"/>
<path d="M4.7399 18.9192C4.7399 18.9192 3.67146 16.8608 2.98421 16.3094C2.29759 15.7581 2.60241 14.986 3.86206 15.1702C5.12109 15.3538 6.83828 17.5228 7.67823 18.5155C8.51763 19.5082 9.47179 19.5818 9.47179 19.5818C12.5629 20.0231 13.4699 20.2336 15.1617 22.8069C17.3364 26.1146 15.6962 27.6592 13.4066 27.5121C11.117 27.365 9.89581 26.2622 9.89581 26.2622C9.89581 26.2622 6.64769 24.287 5.38866 23.7356C4.12964 23.1842 1.34338 17.5599 0.694623 16.0529C0.0458636 14.5459 0.541901 9.17927 1.45761 9.21576C2.37333 9.25217 2.86936 9.76707 2.86936 11.7155C2.86936 13.6638 3.05996 14.5823 3.05996 14.5823" stroke="white" stroke-width="2" stroke-linecap="round" stroke-linejoin="round"/>
<path d="M29.8798 18.9192C29.8798 18.9192 30.9482 16.8608 31.6349 16.3094C32.3216 15.7581 32.0167 14.986 30.757 15.1702C29.498 15.3538 27.7806 17.5228 26.9406 18.5155C26.1012 19.5082 25.147 19.5818 25.147 19.5818C22.0558 20.0231 21.1487 20.2336 19.457 22.8069C17.2821 26.1146 18.9224 27.6592 21.2121 27.5121C23.5018 27.365 24.723 26.2622 24.723 26.2622C24.723 26.2622 27.9713 24.287 29.2303 23.7356C30.4894 23.1842 33.2758 17.5599 33.924 16.0529C34.5727 14.5459 34.0767 9.17927 33.1609 9.21576C32.2452 9.25217 31.7491 9.76707 31.7491 11.7155C31.7491 13.6638 31.5585 14.5823 31.5585 14.5823" stroke="white" stroke-width="2" stroke-linecap="round" stroke-linejoin="round"/>
</g>
<defs>
<clipPath id="clip0_132_2100">
<rect width="35" height="27" fill="white" transform="translate(0 0.928589)"/>
</clipPath>
</defs>
</svg>
