<svg width="36" height="36" viewBox="0 0 36 36" fill="none" xmlns="http://www.w3.org/2000/svg">
<path d="M28.0704 10.3787C27.8362 9.77561 27.5563 9.34481 27.104 8.89246C26.6518 8.44012 26.2211 8.1601 25.6181 7.92585C25.1632 7.74815 24.4795 7.53813 23.2196 7.48159C21.8575 7.41966 21.4484 7.4062 17.9974 7.4062C17.5667 7.4062 17.1817 7.4062 16.8372 7.4062C14.4279 7.4062 13.9676 7.42235 12.7751 7.4762C11.5153 7.53274 10.8316 7.74276 10.3766 7.92047C9.77364 8.15471 9.34293 8.43474 8.8907 8.88708C8.43846 9.33942 8.1585 9.77022 7.92431 10.3733C7.74664 10.8284 7.53667 11.5123 7.48014 12.7724C7.41823 14.1348 7.40477 14.5414 7.40477 17.9932C7.40477 21.445 7.41823 21.8542 7.48014 23.2166C7.53667 24.4767 7.74933 25.1606 7.92431 25.6157C8.1585 26.2188 8.43846 26.6496 8.8907 27.1019C9.34293 27.5543 9.77364 27.8343 10.3766 28.0686C10.8316 28.2463 11.5153 28.4563 12.7751 28.5155C14.1372 28.5774 14.5464 28.5909 17.9974 28.5909C21.4484 28.5909 21.8575 28.5774 23.2196 28.5155C24.4795 28.459 25.1632 28.249 25.6181 28.0712C26.2211 27.837 26.6518 27.557 27.104 27.1046C27.5563 26.6523 27.8362 26.2242 28.0704 25.6211C28.2481 25.166 28.4581 24.4821 28.5146 23.222C28.5765 21.8596 28.59 21.4504 28.59 18.0012C28.59 14.5521 28.5765 14.1429 28.5146 12.7805C28.4581 11.5204 28.2454 10.8365 28.0704 10.3814V10.3787ZM17.9974 24.6383C14.3337 24.6383 11.3619 21.6684 11.3619 18.0012C11.3619 14.334 14.3337 11.3642 17.9974 11.3642C21.661 11.3642 24.6329 14.3367 24.6329 18.0012C24.6329 21.6658 21.6637 24.6383 17.9974 24.6383ZM24.894 12.6539C24.038 12.6539 23.3435 11.9592 23.3435 11.103C23.3435 10.2468 24.038 9.55213 24.894 9.55213C25.75 9.55213 26.4445 10.2468 26.4445 11.103C26.4445 11.9592 25.75 12.6539 24.894 12.6539Z" fill="white"/>
<path d="M17.9973 22.3094C20.376 22.3094 22.3043 20.3806 22.3043 18.0014C22.3043 15.6221 20.376 13.6934 17.9973 13.6934C15.6186 13.6934 13.6903 15.6221 13.6903 18.0014C13.6903 20.3806 15.6186 22.3094 17.9973 22.3094Z" fill="white"/>
<path d="M35.4677 8.08481C35.3573 6.67932 35.1177 5.73425 34.6251 4.73533C34.2213 3.9168 33.7745 3.30829 33.1257 2.68363C31.9682 1.57701 30.5523 0.903877 28.8645 0.661551C28.0461 0.54308 27.8846 0.508078 23.7014 0.5H18.0054C10.6996 0.5 8.56222 0.508078 8.14767 0.54308C6.64828 0.666936 5.7142 0.903877 4.69935 1.41007C3.91601 1.80048 3.29688 2.25013 2.68851 2.88288C1.57676 4.03527 0.903784 5.45153 0.661514 7.13974C0.54307 7.95827 0.508076 8.1252 0.5 12.304C0.5 13.6987 0.5 15.5323 0.5 17.9933C0.5 25.2954 0.508076 27.4305 0.54307 27.8452C0.664205 29.3045 0.893016 30.2227 1.37756 31.227C2.30357 33.1494 4.07214 34.5926 6.15567 35.1311C6.8771 35.3169 7.6739 35.4192 8.69682 35.4677C9.13021 35.4865 13.5476 35.5 17.9677 35.5C22.3878 35.5 26.8079 35.4946 27.2305 35.4731C28.4149 35.4165 29.1041 35.325 29.8632 35.1284C31.9602 34.5872 33.6964 33.1656 34.6413 31.2162C35.1151 30.2361 35.3573 29.283 35.4677 27.899C35.4919 27.5975 35.5 22.7886 35.5 17.9879C35.5 13.1871 35.4892 8.38638 35.465 8.08481H35.4677ZM30.8403 23.3298C30.7757 24.7057 30.5577 25.6454 30.24 26.4666C29.9089 27.3174 29.4675 28.0363 28.7487 28.7552C28.03 29.4741 27.3113 29.9157 26.4606 30.2469C25.6396 30.5673 24.6974 30.7854 23.3219 30.8473C21.9436 30.9093 21.5048 30.9254 17.9946 30.9254C14.4844 30.9254 14.0456 30.9093 12.6674 30.8473C11.2918 30.7854 10.3523 30.5673 9.5313 30.2469C8.68066 29.9157 7.96193 29.4741 7.24319 28.7552C6.52446 28.0363 6.08299 27.3148 5.75188 26.4666C5.43155 25.6454 5.2162 24.7057 5.15159 23.3298C5.08968 21.9513 5.07353 21.5124 5.07353 18.0013C5.07353 14.4903 5.08968 14.0514 5.15159 12.6729C5.21351 11.297 5.43155 10.3573 5.75188 9.53608C6.08299 8.68524 6.52446 7.96634 7.24319 7.24744C7.96193 6.52854 8.68336 6.08697 9.5313 5.75848C10.3523 5.43807 11.2918 5.21998 12.6674 5.15805C14.0456 5.09612 14.4871 5.07997 17.9919 5.07997H17.9973C21.5048 5.07997 21.9436 5.09612 23.3219 5.15805C24.6974 5.21998 25.6369 5.43807 26.4606 5.75848C27.3113 6.08697 28.03 6.52854 28.7487 7.24744C29.4675 7.96634 29.9089 8.68794 30.24 9.53608C30.5577 10.3573 30.7757 11.297 30.8403 12.6729C30.9022 14.0514 30.9184 14.493 30.9184 18.0013C30.9184 21.5097 30.9022 21.9513 30.8403 23.3298Z" fill="white"/>
</svg>
