<svg width="36" height="36" viewBox="0 0 36 36" fill="none" xmlns="http://www.w3.org/2000/svg">
<path d="M28.0704 10.3846C27.8362 9.78147 27.5563 9.35067 27.104 8.89832C26.6518 8.44598 26.2211 8.16596 25.6181 7.93171C25.1632 7.754 24.4795 7.54399 23.2196 7.48745C21.8575 7.42552 21.4484 7.41206 17.9974 7.41206C17.5667 7.41206 17.1817 7.41206 16.8372 7.41206C14.4279 7.41206 13.9676 7.42821 12.7751 7.48206C11.5153 7.5386 10.8316 7.74862 10.3766 7.92633C9.77364 8.16057 9.34293 8.4406 8.8907 8.89294C8.43846 9.34528 8.1585 9.77608 7.92431 10.3792C7.74664 10.8342 7.53667 11.5181 7.48014 12.7782C7.41823 14.1406 7.40477 14.5472 7.40477 17.999C7.40477 21.4508 7.41823 21.8601 7.48014 23.2225C7.53667 24.4826 7.74933 25.1665 7.92431 25.6215C8.1585 26.2247 8.43846 26.6555 8.8907 27.1078C9.34293 27.5601 9.77364 27.8402 10.3766 28.0744C10.8316 28.2521 11.5153 28.4621 12.7751 28.5214C14.1372 28.5833 14.5464 28.5968 17.9974 28.5968C21.4484 28.5968 21.8575 28.5833 23.2196 28.5214C24.4795 28.4648 25.1632 28.2548 25.6181 28.0771C26.2211 27.8429 26.6518 27.5628 27.104 27.1105C27.5563 26.6581 27.8362 26.23 28.0704 25.6269C28.2481 25.1719 28.4581 24.488 28.5146 23.2279C28.5765 21.8655 28.59 21.4562 28.59 18.0071C28.59 14.558 28.5765 14.1487 28.5146 12.7863C28.4581 11.5262 28.2454 10.8423 28.0704 10.3873V10.3846ZM17.9974 24.6441C14.3337 24.6441 11.3619 21.6743 11.3619 18.0071C11.3619 14.3399 14.3337 11.3701 17.9974 11.3701C21.661 11.3701 24.6329 14.3426 24.6329 18.0071C24.6329 21.6716 21.6637 24.6441 17.9974 24.6441ZM24.894 12.6598C24.038 12.6598 23.3435 11.9651 23.3435 11.1089C23.3435 10.2527 24.038 9.55799 24.894 9.55799C25.75 9.55799 26.4445 10.2527 26.4445 11.1089C26.4445 11.9651 25.75 12.6598 24.894 12.6598Z" fill="white"/>
<path d="M17.9973 22.3153C20.376 22.3153 22.3043 20.3865 22.3043 18.0072C22.3043 15.628 20.376 13.6992 17.9973 13.6992C15.6186 13.6992 13.6903 15.628 13.6903 18.0072C13.6903 20.3865 15.6186 22.3153 17.9973 22.3153Z" fill="white"/>
<path d="M35.4677 8.09067C35.3573 6.68518 35.1177 5.74011 34.6251 4.74118C34.2213 3.92266 33.7745 3.31415 33.1257 2.68949C31.9682 1.58286 30.5523 0.909737 28.8645 0.66741C28.0461 0.54894 27.8846 0.513937 23.7014 0.505859H18.0054C10.6996 0.505859 8.56222 0.513937 8.14767 0.54894C6.64828 0.672795 5.7142 0.909737 4.69935 1.41593C3.91601 1.80634 3.29688 2.25599 2.68851 2.88874C1.57676 4.04113 0.903784 5.45739 0.661514 7.1456C0.54307 7.96413 0.508076 8.13106 0.5 12.3098C0.5 13.7046 0.5 15.5382 0.5 17.9991C0.5 25.3012 0.508076 27.4364 0.54307 27.851C0.664205 29.3104 0.893016 30.2285 1.37756 31.2328C2.30357 33.1553 4.07214 34.5985 6.15567 35.137C6.8771 35.3228 7.6739 35.4251 8.69682 35.4735C9.13021 35.4924 13.5476 35.5059 17.9677 35.5059C22.3878 35.5059 26.8079 35.5005 27.2305 35.4789C28.4149 35.4224 29.1041 35.3308 29.8632 35.1343C31.9602 34.5931 33.6964 33.1714 34.6413 31.2221C35.1151 30.242 35.3573 29.2888 35.4677 27.9049C35.4919 27.6033 35.5 22.7945 35.5 17.9937C35.5 13.193 35.4892 8.39223 35.465 8.09067H35.4677ZM30.8403 23.3357C30.7757 24.7116 30.5577 25.6513 30.24 26.4725C29.9089 27.3233 29.4675 28.0422 28.7487 28.7611C28.03 29.48 27.3113 29.9216 26.4606 30.2528C25.6396 30.5732 24.6974 30.7913 23.3219 30.8532C21.9436 30.9151 21.5048 30.9313 17.9946 30.9313C14.4844 30.9313 14.0456 30.9151 12.6674 30.8532C11.2918 30.7913 10.3523 30.5732 9.5313 30.2528C8.68066 29.9216 7.96193 29.48 7.24319 28.7611C6.52446 28.0422 6.08299 27.3206 5.75188 26.4725C5.43155 25.6513 5.2162 24.7116 5.15159 23.3357C5.08968 21.9571 5.07353 21.5182 5.07353 18.0072C5.07353 14.4962 5.08968 14.0573 5.15159 12.6787C5.21351 11.3028 5.43155 10.3632 5.75188 9.54194C6.08299 8.6911 6.52446 7.9722 7.24319 7.2533C7.96193 6.5344 8.68336 6.09283 9.5313 5.76434C10.3523 5.44393 11.2918 5.22584 12.6674 5.16391C14.0456 5.10198 14.4871 5.08583 17.9919 5.08583H17.9973C21.5048 5.08583 21.9436 5.10198 23.3219 5.16391C24.6974 5.22584 25.6369 5.44393 26.4606 5.76434C27.3113 6.09283 28.03 6.5344 28.7487 7.2533C29.4675 7.9722 29.9089 8.6938 30.24 9.54194C30.5577 10.3632 30.7757 11.3028 30.8403 12.6787C30.9022 14.0573 30.9184 14.4989 30.9184 18.0072C30.9184 21.5156 30.9022 21.9571 30.8403 23.3357Z" fill="white"/>
</svg>
