<svg width="36" height="36" viewBox="0 0 36 36" fill="none" xmlns="http://www.w3.org/2000/svg">
<path fill-rule="evenodd" clip-rule="evenodd" d="M18 35.5C27.665 35.5 35.5 27.665 35.5 18C35.5 8.33502 27.665 0.5 18 0.5C8.33502 0.5 0.5 8.33502 0.5 18C0.5 27.665 8.33502 35.5 18 35.5ZM25.0365 9.35249C25.9318 8.95944 26.8891 9.75415 26.7332 10.761L24.4273 25.6577C24.2871 26.5632 23.3231 27.0353 22.5737 26.5654L15.8925 22.3756C15.1962 21.9389 15.0813 20.9276 15.6601 20.3308L21.6276 14.1783C21.8412 13.9581 21.5687 13.6026 21.3187 13.7753L13.0285 19.5029C12.4157 19.9263 11.6557 20.0418 10.9539 19.8183L7.27683 18.6474C6.611 18.4353 6.56404 17.4629 7.20602 17.1811L25.0365 9.35249Z" fill="white"/>
</svg>
