<svg width="208" height="86" viewBox="0 0 208 86" fill="none" xmlns="http://www.w3.org/2000/svg">
<g clip-path="url(#clip0_132_2082)">
<path d="M208 17.6892V26.3446H182.032V52.6892H173.438V26.3446H163.812V26.2311L166.507 17.6892H173.438V10.8878L182.032 8.18237V17.6892H208Z" fill="white"/>
<path d="M23.4607 32.4081C26.2115 31.4139 28.5901 29.588 30.2713 27.1802C31.9524 24.7724 32.8539 21.9003 32.8525 18.9567V18.0675C32.8537 16.1765 32.4848 14.3037 31.7669 12.5564C31.049 10.8091 29.9961 9.22143 28.6685 7.88427C27.3409 6.54711 25.7647 5.48665 24.0298 4.76356C22.295 4.04047 20.4357 3.66893 18.5582 3.67017H0V52.6892H8.64045V33.2784H13.9656L25.2357 52.6892H35.1629L23.4607 32.4081ZM8.64045 11.1621H17.6566C19.3855 11.2274 21.0219 11.965 22.2222 13.2201C23.4224 14.4752 24.093 16.1499 24.093 17.8925C24.093 19.6351 23.4224 21.3098 22.2222 22.5649C21.0219 23.82 19.3855 24.5576 17.6566 24.6229H8.64045V11.1621Z" fill="white"/>
<path d="M73.472 38.1406C73.6235 37.1547 73.6988 36.1584 73.6974 35.1608C73.7017 33.9866 73.5948 32.8146 73.378 31.6608C71.8378 23.1473 64.7846 16.6959 56.3132 16.6959C46.7054 16.6959 38.929 24.9635 38.929 35.1608C38.929 45.3581 46.7054 53.6257 56.3132 53.6257C59.6733 53.5829 62.9487 52.5579 65.7414 50.6754C68.5341 48.7929 70.7238 46.134 72.0444 43.0216L63.3194 40.9973C62.5794 42.2013 61.5528 43.2004 60.3327 43.904C59.1126 44.6077 57.7375 44.9937 56.3319 45.0271C52.4907 45.0271 49.2317 42.1892 48.0108 38.1406H73.472ZM47.8699 31.6608C48.9688 27.3946 52.3404 24.2919 56.3226 24.2919C60.3047 24.2919 63.6857 27.3946 64.7752 31.6608H47.8699Z" fill="white"/>
<path d="M97.1675 27.1488L103.948 23.1097C102.922 21.5422 101.602 20.1924 100.06 19.1367C98.6635 18.1981 97.116 17.5101 95.4864 17.1029C93.2902 16.4876 90.9925 16.3298 88.7337 16.6394C87.341 16.8288 85.9816 17.2141 84.6952 17.784C83.688 18.2519 82.7417 18.8428 81.8777 19.5434C80.8669 20.3249 80.0074 21.2868 79.3419 22.3813C78.9119 23.115 78.5743 23.8999 78.337 24.7178C77.9632 26.0062 77.8358 27.3544 77.9613 28.6907C78.06 29.9717 78.4453 31.2135 79.0883 32.3232C79.4126 32.8441 79.7903 33.3292 80.2153 33.7705C81.379 34.9979 82.7455 36.0125 84.2538 36.7691C85.6923 37.5172 87.2199 38.0767 88.7994 38.434C89.7386 38.6705 90.7248 38.9164 91.6921 39.1435C92.399 39.2977 93.0906 39.5162 93.7583 39.7962C94.2969 39.9799 94.7923 40.2729 95.214 40.657C95.6375 41.0918 95.9108 41.6523 95.9936 42.2556C96.0698 42.8681 95.9374 43.4884 95.6179 44.0151C95.4106 44.3578 95.1357 44.654 94.8102 44.8854C94.2955 45.2708 93.7071 45.5446 93.0821 45.6894C91.9909 46.009 90.8445 46.0896 89.7198 45.9259C88.5257 45.7466 87.3866 45.3006 86.3858 44.6205C85.6326 44.1062 84.972 43.4664 84.4323 42.7286L77.2288 45.8313C77.3756 46.1547 77.5386 46.4704 77.7171 46.7773C78.2051 47.6031 78.7918 48.3655 79.464 49.0475C80.6552 50.2007 82.0463 51.1241 83.5682 51.7719C84.7362 52.3062 85.9579 52.7122 87.2122 52.9827C88.7007 53.3344 90.2308 53.4745 91.7579 53.3989C93.5424 53.3289 95.2978 52.9213 96.9327 52.1976C98.7375 51.3852 100.341 50.1802 101.629 48.6692C102.134 48.0947 102.566 47.4592 102.915 46.7773C103.527 45.5059 103.848 44.1128 103.854 42.7002C103.947 41.6515 103.82 40.5949 103.484 39.5981C103.148 38.6012 102.609 37.686 101.901 36.911C100.81 35.6499 99.4986 34.6014 98.0316 33.8178C96.6943 33.0623 95.2924 32.4291 93.8428 31.9259C93.8428 31.9259 92.1899 31.2921 90.6966 30.8853L90.0485 30.7151L88.9591 30.4408C88.6022 30.3367 88.4144 30.2705 88.3205 30.2326C88.141 30.1745 87.9653 30.105 87.7945 30.0245C87.5079 29.9058 87.2314 29.7634 86.968 29.5989C86.7145 29.4464 86.4915 29.2475 86.3106 29.0124C86.0895 28.6929 85.9537 28.3216 85.9162 27.934C85.9078 27.7827 85.9078 27.6312 85.9162 27.4799C85.9192 27.3024 85.9349 27.1254 85.9631 26.9502C85.9939 26.7746 86.0346 26.6008 86.0852 26.4299C86.1365 26.2771 86.1993 26.1285 86.2731 25.9853C86.338 25.8674 86.4101 25.7537 86.4891 25.6448C86.552 25.558 86.6211 25.4758 86.6957 25.3988C86.6957 25.3988 86.752 25.3326 86.7614 25.3326C86.8393 25.2439 86.9241 25.1617 87.015 25.0867C87.1556 24.9691 87.3065 24.8646 87.4658 24.7745C87.6349 24.6705 87.7757 24.6042 87.8509 24.5664L88.1608 24.4056L88.5365 24.2637L88.7619 24.1975L89.1282 24.1124C89.5132 24.0272 89.9265 23.9799 89.9452 23.9705C90.3819 23.9238 90.8211 23.9049 91.2601 23.9137C92.0855 23.9234 92.9027 24.0803 93.6738 24.3772C94.1317 24.5597 94.5719 24.7845 94.9886 25.0488C95.2328 25.2002 95.4019 25.3232 95.4394 25.3515C95.8614 25.6437 96.2435 25.9903 96.5759 26.3826C96.7146 26.5381 96.8432 26.7024 96.9609 26.8745L97.1675 27.1488Z" fill="white"/>
<path d="M141.253 17.6609V52.661H132.678V49.407C131.557 50.7228 130.166 51.7787 128.602 52.502C127.038 53.2254 125.336 53.5991 123.615 53.5975H123.277C121.454 53.6 119.649 53.2408 117.965 52.5403C116.28 51.8399 114.749 50.812 113.459 49.5153C112.169 48.2187 111.145 46.6788 110.447 44.9835C109.748 43.2882 109.387 41.4709 109.386 39.6353V17.7839C109.386 17.7488 109.4 17.7151 109.425 17.6903C109.449 17.6654 109.483 17.6515 109.518 17.6515H117.97V37.4596C117.973 39.3998 118.74 41.2597 120.103 42.6307C121.466 44.0017 123.313 44.7718 125.24 44.7718H125.709C127.56 44.7718 129.335 44.0313 130.643 42.7133C131.952 41.3952 132.687 39.6075 132.687 37.7434V17.6609H141.253Z" fill="white"/>
<path d="M157.895 0H149.348V52.6893H157.895V0Z" fill="white"/>
<path d="M199.35 52.6893C204.127 52.6893 208 48.9412 208 44.3177C208 39.6942 204.127 35.946 199.35 35.946C194.573 35.946 190.7 39.6942 190.7 44.3177C190.7 48.9412 194.573 52.6893 199.35 52.6893Z" fill="#F8B806"/>
<path d="M4.12293 75.2312C4.12293 75.6001 4.12293 76.1204 4.17928 76.7258C4.17928 76.792 4.2638 77.6718 4.36711 78.2299C4.57718 79.323 5.08066 80.3372 5.82284 81.1623C6.88065 82.1844 8.29221 82.751 9.758 82.7421C10.95 82.6479 12.0883 82.2033 13.0316 81.4633C13.9749 80.7234 14.6817 79.7208 15.0644 78.5799C15.0589 79.6677 14.8143 80.7407 14.3483 81.722C13.8822 82.7033 13.2063 83.5685 12.3689 84.2556C11.4482 84.9206 10.3692 85.3285 9.24146 85.438C7.43722 85.6035 5.63792 85.0726 4.20746 83.9529C3.316 83.2005 2.61705 82.2435 2.16944 81.1623C1.86857 80.5017 1.65087 79.8057 1.5214 79.0907C1.23807 77.8234 1.1998 76.5131 1.4087 75.2312C1.65517 73.6168 2.33745 72.1017 3.38098 70.8515C3.98209 70.1131 4.72269 69.5022 5.55988 69.0542C7.07766 68.2927 8.81264 68.0918 10.4624 68.4866C11.1261 68.5957 11.7633 68.83 12.3407 69.1772C13.2551 69.7863 13.9731 70.6509 14.4069 71.665C14.7003 72.3015 14.9026 72.9767 15.008 73.6704C15.0917 74.1957 15.1263 74.7278 15.1113 75.2596L4.12293 75.2312ZM9.61713 74.1907C9.983 74.1903 10.3469 74.1362 10.6972 74.0299C11.0892 73.9533 11.453 73.7701 11.7491 73.5001C11.9472 73.2774 12.0952 73.0141 12.1827 72.7284C12.2702 72.4426 12.2953 72.1412 12.2562 71.8447C12.1869 71.251 11.9106 70.7013 11.4767 70.2934C10.9393 69.836 10.2906 69.5309 9.59736 69.4095C8.90413 69.2882 8.19131 69.3549 7.53215 69.6028C6.40637 70.0529 5.49071 70.9144 4.96819 72.015C4.59791 72.6816 4.35875 73.4139 4.2638 74.1718L9.61713 74.1907Z" fill="#F8B806"/>
<path d="M74.5614 75.2312C74.5614 75.6001 74.5614 76.1204 74.6178 76.7258C74.6178 76.792 74.7023 77.6718 74.8056 78.2299C75.0189 79.3163 75.5222 80.3235 76.2613 81.1434C77.3191 82.1654 78.7307 82.7321 80.1965 82.7231C81.3885 82.629 82.5267 82.1844 83.47 81.4444C84.4134 80.7045 85.1202 79.7019 85.5028 78.561C85.4973 79.6487 85.2528 80.7218 84.7867 81.7031C84.3207 82.6844 83.6448 83.5496 82.8074 84.2366C81.8867 84.9017 80.8077 85.3096 79.6799 85.4191C77.8757 85.5846 76.0764 85.0537 74.6459 83.9339C73.7617 83.1977 73.0632 82.2608 72.6079 81.2002C72.307 80.5395 72.0893 79.8436 71.9599 79.1285C71.6765 77.8613 71.6383 76.5509 71.8472 75.2691C72.0936 73.6547 72.7759 72.1396 73.8194 70.8893C74.4206 70.151 75.1612 69.5401 75.9983 69.092C77.5161 68.3305 79.2511 68.1296 80.9009 68.5245C81.5645 68.6335 82.2018 68.8678 82.7792 69.215C83.6936 69.8242 84.4116 70.6888 84.8454 71.7028C85.1387 72.3394 85.3411 73.0146 85.4465 73.7082C85.5301 74.2336 85.5647 74.7656 85.5498 75.2974L74.5614 75.2312ZM80.0556 74.1907C80.4215 74.1903 80.7853 74.1362 81.1357 74.0299C81.5277 73.9533 81.8915 73.7701 82.1875 73.5001C82.3857 73.2774 82.5336 73.0141 82.6212 72.7284C82.7087 72.4426 82.7338 72.1412 82.6947 71.8447C82.6253 71.251 82.3491 70.7013 81.9152 70.2934C81.3777 69.836 80.7291 69.5309 80.0358 69.4095C79.3426 69.2882 78.6298 69.3549 77.9706 69.6028C76.8448 70.0529 75.9292 70.9144 75.4067 72.015C75.0364 72.6816 74.7972 73.4139 74.7023 74.1718L80.0556 74.1907Z" fill="#F8B806"/>
<path d="M18.793 78.3245C18.9982 78.9698 19.2429 79.6016 19.5255 80.2164C20.3802 82.0421 20.9249 83.234 22.174 83.9056C23.087 84.3847 24.1421 84.5125 25.1418 84.2651C25.6315 84.1298 26.078 83.8691 26.4379 83.5083C26.6581 83.2768 26.8305 83.0035 26.9451 82.7043C27.0739 82.3701 27.1315 82.0124 27.1141 81.6543C27.1213 81.1435 26.9916 80.6402 26.7384 80.1975C26.5191 79.8629 26.2347 79.5766 25.9026 79.3556C25.4163 78.9981 24.8899 78.6996 24.3341 78.4664C23.395 78.0124 22.8314 77.7759 22.4088 77.5205C21.7056 77.2393 21.0322 76.8875 20.399 76.4705C19.8392 76.0573 19.3773 75.5242 19.0466 74.9097C18.7662 74.3106 18.6208 73.6564 18.6208 72.9941C18.6208 72.3318 18.7662 71.6777 19.0466 71.0786C19.9857 68.9975 22.3994 68.2407 24.1087 68.307C25.2512 68.3491 26.3583 68.7164 27.3019 69.3664L28.8704 68.2975V74.5786L26.6915 70.3786C25.9799 69.8228 25.1199 69.4935 24.2214 69.4326C23.5385 69.3648 22.8506 69.4961 22.2398 69.811C21.8664 69.9851 21.5432 70.252 21.3006 70.5867C21.1477 70.796 21.0303 71.0293 20.9531 71.2772C20.8714 71.5854 20.8491 71.9065 20.8873 72.2232C20.9107 72.5216 21.0041 72.8101 21.1597 73.0651C21.2867 73.2495 21.442 73.4124 21.6199 73.5475C21.8897 73.7762 22.1824 73.976 22.4933 74.1435C23.4325 74.6353 23.9772 74.8908 24.9822 75.3448C25.6101 75.6245 26.2216 75.9404 26.8136 76.2908C27.7141 76.7155 28.4905 77.3671 29.0676 78.1827C29.5243 78.9356 29.7497 79.8077 29.7156 80.6894C29.7063 81.5239 29.4831 82.3418 29.0676 83.0638C27.5649 85.5894 24.0524 85.5232 23.7237 85.5138C23.1616 85.4809 22.6044 85.3889 22.0613 85.2394C21.5364 85.1219 21.0389 84.9035 20.5962 84.5962C20.4513 84.4956 20.3161 84.3816 20.1924 84.2556L18.746 85.5138L18.793 78.3245Z" fill="#F8B806"/>
<path d="M53.3359 73.2921C53.3359 72.5637 53.3359 72.2043 53.2702 71.9488C53.2533 71.1655 52.941 70.4181 52.3967 69.8583C51.97 69.5411 51.4526 69.3718 50.9222 69.3759C50.1767 69.2773 49.4218 69.4666 48.8091 69.9056C48.4845 70.1508 48.2288 70.4768 48.0671 70.8516C47.6163 71.8637 48.1798 72.4786 47.6821 73.3489C47.5127 73.6665 47.2411 73.9167 46.9119 74.0583C46.6658 74.1498 46.3998 74.1726 46.1419 74.1243C45.884 74.076 45.6438 73.9584 45.4468 73.784C45.2214 73.5316 45.0676 73.2228 45.0015 72.8899C44.9354 72.557 44.9595 72.2124 45.0711 71.8921C45.1936 71.4375 45.4372 71.0254 45.7755 70.7002C46.9195 69.5226 48.3946 68.7269 50.0018 68.4205C50.941 68.2975 53.3265 67.9664 54.9325 69.6597C55.7516 70.5745 56.1977 71.7671 56.1816 72.9988L56.2286 83.0543L59.3842 81.8435C58.4797 82.9362 57.487 83.9518 56.4164 84.88C56.1566 85.128 55.8291 85.2921 55.4759 85.3511C55.1228 85.4101 54.7602 85.3613 54.4348 85.211C54.0416 84.9406 53.7331 84.563 53.5451 84.1225C53.3572 83.6819 53.2977 83.1966 53.3735 82.7232C53.1293 82.884 52.7442 83.1394 52.284 83.461C51.5362 84.0801 50.72 84.6102 49.8516 85.0408C49.2769 85.2901 48.655 85.4096 48.0296 85.3908C47.385 85.3822 46.754 85.2028 46.2001 84.8707C45.6461 84.5386 45.1888 84.0655 44.8739 83.4989C44.3686 82.5521 44.2249 81.4518 44.4701 80.4056C44.583 79.8004 44.8162 79.2245 45.1557 78.7124C45.6919 77.9737 46.3976 77.3765 47.2125 76.9718C47.8227 76.651 48.4498 76.3637 49.0908 76.111C49.8609 75.7799 50.2178 75.6475 51.0725 75.307C51.6172 75.0894 52.4155 74.7583 53.3735 74.361C53.3453 74.0867 53.3453 73.7272 53.3359 73.2921ZM53.3359 75.3732C52.1901 75.8083 51.2509 76.2245 50.5184 76.5556C49.6827 76.8655 48.9212 77.3489 48.2831 77.9745C47.8901 78.3883 47.5891 78.8817 47.4003 79.4218C47.2794 79.8169 47.2224 80.2289 47.2312 80.6421C47.1918 81.2108 47.3157 81.7789 47.5881 82.2786C47.8026 82.6679 48.1304 82.9815 48.5273 83.1773C48.7828 83.2761 49.0523 83.3336 49.3256 83.3475C49.6376 83.3841 49.9528 83.3841 50.2648 83.3475C51.3941 83.0263 52.4331 82.4432 53.2984 81.6448L53.3359 75.3732Z" fill="#F8B806"/>
<path d="M37.4451 64.7029V68.865H41.1361V70.0853H37.4451V81.3799C37.3798 81.6979 37.4062 82.0279 37.521 82.3313C37.6358 82.6347 37.8343 82.8986 38.0932 83.0921C38.4273 83.2593 38.8064 83.3124 39.1732 83.2435C39.456 83.2044 39.7295 83.1147 39.9809 82.9786C40.3763 82.7647 40.7452 82.5043 41.0797 82.2029L41.5118 81.8435C41.3427 82.1367 41.0985 82.5435 40.7698 83.007C40.4802 83.4469 40.1466 83.8558 39.7743 84.2272C39.3646 84.6382 38.8755 84.9602 38.3373 85.1732C38.1495 85.2521 37.9545 85.3123 37.755 85.3529C37.1098 85.4777 36.4415 85.3599 35.8767 85.0218C35.5371 84.769 35.2538 84.4472 35.0451 84.0774C34.8365 83.7076 34.707 83.2978 34.6651 82.8745C34.6269 82.64 34.6081 82.4027 34.6088 82.1651V70.0664H31.7913L37.4451 64.7029Z" fill="#F8B806"/>
<path d="M65.2916 64.7029V68.865H68.9826V70.0853H65.2916V81.3799C65.2264 81.6979 65.2527 82.0279 65.3675 82.3313C65.4823 82.6347 65.6808 82.8986 65.9397 83.0921C66.2738 83.2593 66.653 83.3124 67.0197 83.2435C67.3025 83.2044 67.576 83.1147 67.8274 82.9786C68.2211 82.7665 68.587 82.5059 68.9169 82.2029L69.3583 81.8435C69.1892 82.1367 68.9451 82.5435 68.6163 83.007C68.3267 83.4469 67.9932 83.8558 67.6208 84.2272C67.2111 84.6382 66.7221 84.9602 66.1839 85.1732C65.9956 85.2508 65.8007 85.3109 65.6016 85.3529C64.9563 85.4777 64.2881 85.3599 63.7232 85.0218C63.3836 84.769 63.1003 84.4472 62.8917 84.0774C62.683 83.7076 62.5536 83.2978 62.5117 82.8745C62.4734 82.64 62.4546 82.4027 62.4553 82.1651V70.0664H59.6096L65.2916 64.7029Z" fill="#F8B806"/>
</g>
<defs>
<clipPath id="clip0_132_2082">
<rect width="208" height="85.4286" fill="white"/>
</clipPath>
</defs>
</svg>
