<svg width="65" height="37" viewBox="0 0 65 37" fill="none" xmlns="http://www.w3.org/2000/svg">
<g clip-path="url(#clip0_0_1)">
<path d="M61.5103 15.7103C62.7728 15.7103 63.667 15.4883 64.3333 15.0103V12.8419C63.6495 13.3029 62.8254 13.5931 61.6681 13.5931C59.7218 13.5931 58.9153 12.1248 58.9153 9.80272C58.9153 7.36115 59.8972 6.11476 61.6857 6.11476C62.7377 6.11476 63.7722 6.47331 64.3158 6.81479V4.56103C63.7371 4.2537 62.7377 4.03174 61.37 4.03174C57.8808 4.03174 56.0748 6.47331 56.0748 9.88809C56.0923 13.6273 57.8632 15.7103 61.5103 15.7103ZM44.4498 14.72V12.5516C43.6081 13.1151 42.1703 13.6102 40.8553 13.6102C38.8564 13.6102 38.1024 12.6882 37.9797 10.8101H44.5725V9.41002C44.5725 5.5001 42.8016 4.03174 40.0838 4.03174C36.7523 4.03174 35.1743 6.50746 35.1743 9.90517C35.1743 13.8151 37.1556 15.7103 40.6273 15.7103C42.3632 15.7103 43.6432 15.2493 44.4498 14.72ZM19.4288 4.23663V8.67584H15.7817V4.23663H13.0464V15.4883H15.7817V10.793H19.4288V15.4883H22.1641V4.23663H19.4288ZM34.4904 13.3712H33.2806V4.23663H25.3202V5.19277C25.3202 7.94167 25.1448 11.493 24.1805 13.3712H23.3038V18.0494H25.8287V15.4883H31.948V18.0494H34.4729V13.3712H34.4904ZM53.1641 15.4883H56.2677L51.8842 9.4271L55.7416 4.23663H52.9888L49.1313 9.4271V4.23663H46.396V15.4883H49.1313V9.95639L53.1641 15.4883ZM40.0137 6.11476C41.3638 6.11476 41.7846 7.20749 41.7846 8.62462V8.84658H37.9797C38.0498 7.05382 38.7161 6.11476 40.0137 6.11476ZM30.5453 13.3712H26.6878C27.4418 11.6809 27.6522 8.60755 27.6522 6.66112V6.31964H30.5453V13.3712Z" fill="white"/>
<path d="M10.767 15.488H7.97909V2.05078H6.73418C4.45476 2.05078 3.26245 3.16058 3.26245 4.81675C3.26245 6.69488 4.08655 7.56565 5.78734 8.67546L7.19006 9.59745L3.15725 15.488H0.158936L3.78847 10.2292C1.70193 8.7779 0.527149 7.36076 0.527149 4.97042C0.527149 1.98248 2.66629 -0.0493164 6.71664 -0.0493164H10.7495L10.767 15.488Z" fill="#FC3F1D"/>
</g>
<path d="M9.43964 27L10.8558 29.7907L13.8461 30.3286L11.731 32.5913L12.163 35.7144L9.43964 34.3222L6.71629 35.7144L7.14827 32.5913L5.03316 30.3286L8.0235 29.7907L9.43964 27Z" fill="#FFCC00"/>
<path d="M20.8867 27L22.3028 29.7907L25.2931 30.3286L23.178 32.5913L23.61 35.7144L20.8867 34.3222L18.1633 35.7144L18.5953 32.5913L16.4802 30.3286L19.4705 29.7907L20.8867 27Z" fill="#FFCC00"/>
<path d="M32.3334 27L33.7496 29.7907L36.7399 30.3286L34.6248 32.5913L35.0568 35.7144L32.3334 34.3222L29.6101 35.7144L30.0421 32.5913L27.927 30.3286L30.9173 29.7907L32.3334 27Z" fill="#FFCC00"/>
<path d="M43.7802 27L45.1964 29.7907L48.1867 30.3286L46.0716 32.5913L46.5036 35.7144L43.7802 34.3222L41.0569 35.7144L41.4888 32.5913L39.3737 30.3286L42.3641 29.7907L43.7802 27Z" fill="#FFCC00"/>
<path d="M55.227 27L56.6431 29.7907L59.6335 30.3286L57.5184 32.5913L57.9503 35.7144L55.227 34.3222L52.5036 35.7144L52.9356 32.5913L50.8205 30.3286L53.8109 29.7907L55.227 27Z" fill="#FFCC00"/>
<defs>
<clipPath id="clip0_0_1">
<rect width="64" height="18" fill="white" transform="translate(0.333252)"/>
</clipPath>
</defs>
</svg>
