<svg width="480" height="480" xmlns="http://www.w3.org/2000/svg">

 <g>
  <title>background</title>
  <rect fill="none" id="canvas_background" height="482" width="482" y="-1" x="-1"/>
 </g>
 <g>
  <title>Layer 1</title>
  <path stroke="null" id="svg_1" d="m10.578432,4.22976c1.143844,0 1.97573,0 2.781621,0c130.528192,0 261.056384,-0.053686 391.610573,0.053686c24.592645,0.026843 43.128116,11.542513 55.450435,33.39276c5.355269,9.475598 7.69495,19.971232 7.69495,30.976885c-0.025996,38.090294 0,76.153745 0,114.244039c0,18.253277 0,36.506554 0,54.759831c0,0.832135 0,1.691112 0,2.657462c-13.85611,0 -27.556241,0 -41.594325,0c0,-0.832135 0,-1.717955 0,-2.603776c0,-55.753024 0,-111.532891 0,-167.285914c0,-7.757643 -2.41767,-14.280505 -8.57883,-19.031725c-3.197564,-2.469561 -6.811071,-3.945929 -10.762532,-4.053301c-7.331,-0.161058 -14.662,-0.053686 -22.252964,-0.053686c0,0.993193 0,1.959543 0,2.925893c0,120.337412 0,240.647982 0,360.985394c0,20.400721 -7.434986,37.311845 -22.434939,50.491785c-10.658546,9.368226 -23.214833,14.280505 -37.226921,14.897895c-4.991319,0.214744 -9.982638,0.053686 -14.973957,0.053686c-58.024084,0 -116.048168,0.026843 -174.072251,0c-21.993,-0.026843 -39.488613,-9.421912 -52.226875,-27.836247c-6.993046,-10.119831 -10.528564,-21.608659 -10.9965,-34.063836c-0.051993,-1.288467 -0.025996,-2.576933 -0.025996,-3.8654c0,-82.891352 0,-165.782703 -0.051993,-248.674055c0,-1.503211 -0.36395,-3.140637 -1.039858,-4.455947c-20.069262,-40.881972 -40.216513,-81.7371 -60.311772,-122.645915c-0.623915,-1.261624 -0.961869,-2.818521 -0.987865,-4.268046c-0.103986,-8.026073 -0.051993,-16.025303 -0.051993,-24.051377c0.051993,-0.751606 0.051993,-1.530054 0.051993,-2.55009zm332.650617,300.561679c-27.764212,0 -55.372446,0 -82.980679,0c0,-14.387877 0,-28.534167 0,-42.895201c27.712219,0 55.320453,0 82.928686,0c0,-14.441563 0,-28.641539 0,-42.97573c-13.85611,0 -27.556241,0 -41.308364,0c0,-14.361034 0,-28.56101 0,-42.97573c13.882106,0 27.63423,0 41.334361,0c0,-14.387877 0,-28.534167 0,-42.895201c-27.712219,0 -55.346449,0 -82.90269,0c0,-14.441563 0,-28.614696 0,-42.97573c27.738216,0 55.294456,0 82.876693,0c0,-14.361034 0,-28.56101 0,-42.787829c-92.937321,0 -185.744659,0 -278.759969,0c0.44194,0.96635 0.779894,1.798485 1.16984,2.630619c15.987819,32.453253 32.001634,64.906505 47.93746,97.413444c0.623915,1.261624 0.987865,2.818521 0.987865,4.268046c0.077989,12.535706 0.051993,25.04457 0.051993,37.580276c0,73.657341 0,147.314682 0,220.972023c0,3.758028 0.311957,7.435526 1.897741,10.871437c4.133436,8.911894 11.230468,12.777294 20.589191,12.777294c61.27364,0 122.547281,0 183.846918,0c0.701904,0 1.377812,0 2.079716,-0.053686c10.892514,-0.644233 18.977411,-7.945544 20.017269,-19.139098c0.727901,-7.7308 0.233968,-15.568971 0.285961,-23.3803c0,-0.107372 -0.181975,-0.214744 -0.389947,-0.483175c-13.570149,0 -27.27028,0 -40.97041,0c0,-14.361034 0,-28.56101 0,-42.895201c13.85611,0 27.556241,0 41.334361,0c-0.025996,-14.387877 -0.025996,-28.534167 -0.025996,-43.056259z" fill="#4b78ba"/>
 </g>
</svg>