<svg width="37" height="31.89" xmlns="http://www.w3.org/2000/svg">

 <g>
  <title>background</title>
  <rect fill="none" id="canvas_background" height="33.89" width="39" y="-1" x="-1"/>
 </g>
 <g>
  <title>Layer 1</title>
  <path id="svg_1" d="m5.753,11.971c-1.148,-0.158 -1.648,0.646 -1.523,1.848c0.125,1.202 4.879,5.804 4.879,5.804s-5.338,-3.282 -6.067,-5.144c-0.563,-1.438 -0.38,-4.146 1.557,-4.146l0,-7.271c0,-1.105 -0.755,-2 -1.859,-2s-1.906,0.895 -1.906,2c0,0.155 0.045,10.996 0.059,14.188c0.002,0.552 0.236,1.134 0.633,1.578c0.13,0.145 0.28,0.313 0.443,0.494l12.865,11.133l0,-2.893l0,-1.062l0,-1.25l0,-1l0,-4.083c-0.001,0 -7.933,-8.038 -9.081,-8.196zm28.17,-10.908c-1.105,0 -1.859,0.895 -1.859,2l0,7.271c1.938,0 2.12,2.708 1.557,4.146c-0.728,1.862 -6.067,5.144 -6.067,5.144s4.754,-4.602 4.879,-5.804c0.125,-1.202 -0.375,-2.006 -1.523,-1.848s-9.081,8.196 -9.081,8.196l0,4.083l0,1l0,1.25l0,1.063l0,2.893l12.865,-11.133c0.163,-0.181 0.313,-0.349 0.443,-0.494c0.398,-0.444 0.631,-1.027 0.633,-1.578c0.013,-3.191 0.059,-14.033 0.059,-14.188c0,-1.106 -0.802,-2.001 -1.906,-2.001zm-8.759,6.77c0,-3.774 -3.059,-6.833 -6.833,-6.833c-3.774,0 -6.833,3.059 -6.833,6.833s3.059,6.833 6.833,6.833c3.774,0.001 6.833,-3.059 6.833,-6.833z" fill="#4B78BA"/>
 </g>
</svg>