<svg width="38" height="33" xmlns="http://www.w3.org/2000/svg">

 <g>
  <title>background</title>
  <rect fill="none" id="canvas_background" height="35" width="40" y="-1" x="-1"/>
 </g>
 <g>
  <title>Layer 1</title>
  <g id="svg_1">
   <path id="svg_2" d="m25.58,7.694l-0.454,2.177l-6.917,4.684c-0.633,-0.689 -1.533,-1.128 -2.542,-1.128c-1.912,0 -3.461,1.55 -3.461,3.461s1.55,3.461 3.461,3.461s3.461,-1.55 3.461,-3.461c0,-0.142 -0.025,-0.278 -0.042,-0.416l7.641,-4.004l2.132,0.63l10.136,-4.717l-4.908,-2.198l0.38,-5.293l-8.887,6.804z" fill="#4B78BA"/>
   <path id="svg_3" d="m15.667,10.193c1.646,0 3.152,0.6 4.32,1.588l2.126,-1.44c-1.661,-1.635 -3.937,-2.648 -6.446,-2.648c-5.07,0 -9.195,4.125 -9.195,9.195s4.125,9.195 9.195,9.195s9.195,-4.125 9.195,-9.195c0,-0.642 -0.067,-1.269 -0.193,-1.874l-2.34,1.226c0.021,0.213 0.033,0.429 0.033,0.648c0,3.692 -3.003,6.695 -6.695,6.695s-6.695,-3.003 -6.695,-6.695s3.003,-6.695 6.695,-6.695z" fill="#4B78BA"/>
   <path id="svg_4" d="m29.408,14.277c-0.173,0.081 -0.36,0.121 -0.548,0.121c-0.124,0 -0.248,-0.018 -0.368,-0.053l-0.416,-0.123c0.185,0.86 0.287,1.751 0.287,2.666c0,7 -5.695,12.695 -12.695,12.695s-12.695,-5.695 -12.695,-12.695s5.695,-12.695 12.695,-12.695c3.323,0 6.343,1.294 8.608,3.391l0.032,-0.156c0.064,-0.305 0.235,-0.578 0.482,-0.767l1.184,-0.906c-2.712,-2.512 -6.327,-4.062 -10.307,-4.062c-8.379,0 -15.195,6.816 -15.195,15.195s6.816,15.195 15.195,15.195s15.195,-6.816 15.195,-15.195c0,-1.075 -0.116,-2.123 -0.329,-3.135l-1.125,0.524z" fill="#4B78BA"/>
  </g>
 </g>
</svg>