<svg width="201" height="104" xmlns="http://www.w3.org/2000/svg">
 <!-- Created with SVG Editor - http://github.com/mzalive/SVG Editor/ -->

 <g>
  <title>background</title>
  <rect fill="none" id="canvas_background" height="106" width="203" y="-1" x="-1"/>
  <g display="none" overflow="visible" y="0" x="0" height="100%" width="100%" id="canvasGrid">
   <rect fill="url(#gridpattern)" stroke-width="0" y="0" x="0" height="100%" width="100%"/>
  </g>
 </g>
 <g>
  <title>Layer 1</title>
  <g stroke="null" id="svg_9">
   <path stroke="null" id="svg_5" d="m58.024372,52.89137c-0.008317,1.804486 -0.429135,3.811064 -1.297799,5.739467c-0.466143,1.034788 -0.824795,2.121763 -1.178665,3.202708c-0.337652,1.031461 0.046573,1.910106 0.751193,2.657557c0.545982,0.579248 1.150596,1.1034 1.698865,1.680569c0.886337,0.933118 1.404459,1.969985 0.851408,3.291903c-0.569061,1.360174 -1.609255,2.185176 -3.042614,2.078101c-1.989945,-0.148659 -3.975316,-0.479866 -5.936361,-0.866378c-3.191896,-0.629148 -6.361337,-1.444587 -9.651369,-0.916901c-1.808228,0.29004 -3.58922,0.760757 -5.401814,1.008799c-4.256208,0.581951 -8.501812,0.482568 -12.679221,-0.60004c-4.065551,-1.0535 -8.028184,-0.387552 -12.006827,0.51334c-2.146504,0.486103 -4.284692,1.151636 -6.547213,0.766163c-2.318865,-0.395037 -3.369663,-2.966517 -1.919462,-4.816744c0.445768,-0.568853 0.950791,-1.11234 1.510495,-1.566632c1.529,-1.241247 1.694707,-2.734693 1.004225,-4.467656c-0.638712,-1.602809 -1.429825,-3.180669 -1.798456,-4.848139c-0.844131,-3.819796 -0.220389,-7.593228 1.018779,-11.234842c2.453801,-7.212122 6.912102,-12.728912 13.994901,-15.863216c3.30916,-1.464546 6.852222,-1.877048 10.435621,-1.982044c4.552693,-0.133273 9.10809,-0.003119 13.457651,1.45124c7.211082,2.411179 11.783319,7.625247 14.670621,14.467281c1.346451,3.190025 1.985995,6.543678 2.066042,10.305466z" fill="#555555"/>
   <path stroke="null" id="svg_6" d="m52.022102,5.717965c-0.266338,0.62291 -0.640167,1.819664 -1.254761,2.876283c-2.319697,3.987583 -5.501613,7.27512 -8.785407,10.459947c-0.239725,0.232448 -0.884466,0.203964 -1.283037,0.091482c-3.752848,-1.059738 -7.580129,-1.81904 -11.465835,-1.502595c-3.359475,0.273615 -6.685683,0.992789 -10.014179,1.584305c-0.651187,0.115808 -1.054124,0.062582 -1.524841,-0.431006c-3.203955,-3.359267 -6.425375,-6.703772 -8.6854,-10.813192c-0.427471,-0.777183 -0.762629,-1.63857 -0.959939,-2.502453c-0.441401,-1.932561 1.139577,-3.315813 2.983358,-2.574183c0.978651,0.393581 1.849811,1.063896 2.750495,1.639402c0.989879,0.632474 1.926947,1.352689 2.942191,1.93859c1.508832,0.870952 3.066524,0.869704 4.485329,-0.184004c1.163071,-0.863883 2.193909,-1.905532 3.355524,-2.771702c1.071589,-0.799014 2.167296,-1.635868 3.380682,-2.157732c1.89077,-0.81336 3.741829,-0.155936 5.484356,0.687572c1.835673,0.888625 3.651594,1.820287 5.453585,2.775444c2.235284,1.184694 4.33875,1.080321 6.436394,-0.380898c1.013581,-0.706076 2.111991,-1.35352 3.262795,-1.78515c1.856672,-0.696304 3.518113,0.556794 3.43869,3.049891z" fill="#555555"/>
   <path stroke="null" id="svg_7" d="m30.194873,19.635938c3.720829,0.06279 7.48241,0.539329 11.157498,1.63358c1.34354,0.400027 2.356913,1.172635 2.842185,2.50578c0.643286,1.767893 -0.34389,2.94136 -2.175196,2.578758c-1.72735,-0.342226 -3.430166,-0.81232 -5.161673,-1.127518c-6.063812,-1.103192 -12.058805,-0.698383 -17.98581,0.930207c-0.166539,0.045741 -0.32892,0.107907 -0.496915,0.146371c-0.870328,0.200221 -1.796585,0.339524 -2.384358,-0.4834c-0.607525,-0.850576 -0.464688,-1.908235 0.153233,-2.621796c0.669899,-0.773648 1.552286,-1.552494 2.496008,-1.866028c3.702741,-1.230435 7.555803,-1.651877 11.55503,-1.695955z" fill="#555555"/>
   <text stroke="null" x="10029.82727" y="6694.423681" id="svg_8" font-size="76.3624" font-family="'SegoeUI-BoldItalic'" fill="#FFFFFF" transform="matrix(0.20791402139606938,0,0,0.20791402139606938,-2071.390901195567,-1338.7996953326833) ">55 л</text>
  </g>
  <g stroke="null" id="svg_14">
   <path stroke="null" id="svg_10" d="m128.024365,52.891368c-0.00831,1.80448 -0.42913,3.81106 -1.2978,5.73947c-0.46614,1.03478 -0.82479,2.12176 -1.17866,3.2027c-0.33765,1.03146 0.04657,1.91011 0.75119,2.65756c0.54598,0.57925 1.1506,1.1034 1.69887,1.68057c0.88634,0.93312 1.40446,1.96998 0.85141,3.2919c-0.56906,1.36018 -1.60926,2.18518 -3.04262,2.0781c-1.98994,-0.14866 -3.97531,-0.47986 -5.93636,-0.86638c-3.19189,-0.62914 -6.36134,-1.44458 -9.65137,-0.9169c-1.80823,0.29004 -3.58922,0.76076 -5.40181,1.0088c-4.25621,0.58195 -8.50181,0.48257 -12.67922,-0.60004c-4.06555,-1.0535 -8.02819,-0.38755 -12.00683,0.51334c-2.1465,0.48611 -4.28469,1.15164 -6.54721,0.76617c-2.31887,-0.39504 -3.36966,-2.96652 -1.91946,-4.81675c0.44576,-0.56885 0.95079,-1.11234 1.51049,-1.56663c1.529,-1.24125 1.69471,-2.73469 1.00423,-4.46766c-0.63872,-1.60281 -1.42983,-3.18067 -1.79846,-4.84814c-0.84413,-3.81979 -0.22039,-7.59322 1.01878,-11.23484c2.4538,-7.21212 6.9121,-12.72891 13.9949,-15.86321c3.30916,-1.46455 6.85222,-1.87705 10.43562,-1.98205c4.55269,-0.13327 9.10809,-0.00312 13.45765,1.45124c7.21108,2.41118 11.78332,7.62525 14.67062,14.46728c1.34645,3.19003 1.986,6.54368 2.06604,10.30547z" fill="#555555"/>
   <path stroke="null" id="svg_11" d="m122.022095,5.717958c-0.26633,0.62291 -0.64016,1.81967 -1.25476,2.87629c-2.31969,3.98758 -5.50161,7.27512 -8.7854,10.45994c-0.23973,0.23245 -0.88447,0.20397 -1.28304,0.09149c-3.75285,-1.05974 -7.58013,-1.81904 -11.46584,-1.5026c-3.35947,0.27362 -6.68568,0.99279 -10.01418,1.58431c-0.65118,0.1158 -1.05412,0.06258 -1.52484,-0.43101c-3.20395,-3.35927 -6.42537,-6.70377 -8.6854,-10.81319c-0.42747,-0.77719 -0.76263,-1.63857 -0.95994,-2.50246c-0.4414,-1.93256 1.13958,-3.31581 2.98336,-2.57418c0.97865,0.39358 1.84981,1.0639 2.7505,1.6394c0.98988,0.63248 1.92694,1.35269 2.94219,1.93859c1.50883,0.87096 3.06652,0.86971 4.48533,-0.184c1.16307,-0.86388 2.19391,-1.90553 3.35552,-2.7717c1.07159,-0.79902 2.1673,-1.63587 3.38068,-2.15773c1.89077,-0.81336 3.74183,-0.15594 5.48436,0.68757c1.83567,0.88862 3.65159,1.82028 5.45358,2.77544c2.23529,1.1847 4.33875,1.08032 6.4364,-0.3809c1.01358,-0.70607 2.11199,-1.35352 3.26279,-1.78515c1.85668,-0.6963 3.51812,0.5568 3.43869,3.04989z" fill="#555555"/>
   <path stroke="null" id="svg_12" d="m100.194865,19.635938c3.72083,0.06279 7.48241,0.53933 11.1575,1.63358c1.34354,0.40002 2.35691,1.17263 2.84219,2.50578c0.64328,1.76789 -0.34389,2.94136 -2.1752,2.57875c-1.72735,-0.34222 -3.43017,-0.81232 -5.16167,-1.12751c-6.06382,-1.10319 -12.05881,-0.69839 -17.98581,0.9302c-0.16654,0.04575 -0.32892,0.10791 -0.49692,0.14638c-0.87033,0.20022 -1.79658,0.33952 -2.38436,-0.4834c-0.60752,-0.85058 -0.46468,-1.90824 0.15324,-2.6218c0.6699,-0.77365 1.55228,-1.55249 2.496,-1.86603c3.70274,-1.23043 7.55581,-1.65188 11.55503,-1.69595z" fill="#555555"/>
   <text stroke="null" x="10366.50488" y="6694.423666" id="svg_13" font-size="76.3624" font-family="'SegoeUI-BoldItalic'" fill="#FFFFFF" transform="matrix(0.20791402139606938,0,0,0.20791402139606938,-2071.390901195567,-1338.7996953326833) ">55 л</text>
  </g>
  <g stroke="null" id="svg_19">
   <path stroke="null" id="svg_15" d="m198.02436,52.891368c-0.00831,1.80448 -0.42913,3.81106 -1.2978,5.73947c-0.46614,1.03478 -0.82479,2.12176 -1.17866,3.2027c-0.33765,1.03146 0.04657,1.91011 0.75119,2.65756c0.54598,0.57925 1.1506,1.1034 1.69887,1.68057c0.88634,0.93312 1.40446,1.96998 0.85141,3.2919c-0.56906,1.36018 -1.60926,2.18518 -3.04262,2.0781c-1.98994,-0.14866 -3.97531,-0.47986 -5.93636,-0.86638c-3.19189,-0.62914 -6.36134,-1.44458 -9.65137,-0.9169c-1.80823,0.29004 -3.58922,0.76076 -5.40181,1.0088c-4.25621,0.58195 -8.50181,0.48257 -12.67922,-0.60004c-4.06555,-1.0535 -8.02819,-0.38755 -12.00683,0.51334c-2.1465,0.48611 -4.28469,1.15164 -6.54721,0.76617c-2.31887,-0.39504 -3.36966,-2.96652 -1.91946,-4.81675c0.44576,-0.56885 0.95079,-1.11234 1.51049,-1.56663c1.529,-1.24125 1.69471,-2.73469 1.00423,-4.46766c-0.63872,-1.60281 -1.42983,-3.18067 -1.79846,-4.84814c-0.84413,-3.81979 -0.22039,-7.59322 1.01878,-11.23484c2.4538,-7.21212 6.9121,-12.72891 13.9949,-15.86321c3.30916,-1.46455 6.85222,-1.87705 10.43562,-1.98205c4.55269,-0.13327 9.10809,-0.00312 13.45765,1.45124c7.21108,2.41118 11.78332,7.62525 14.67062,14.46728c1.34645,3.19003 1.986,6.54368 2.06604,10.30547z" fill="#555555"/>
   <path stroke="null" id="svg_16" d="m192.02209,5.717958c-0.26633,0.62291 -0.64016,1.81967 -1.25476,2.87629c-2.31969,3.98758 -5.50161,7.27512 -8.7854,10.45994c-0.23973,0.23245 -0.88447,0.20397 -1.28304,0.09149c-3.75285,-1.05974 -7.58013,-1.81904 -11.46584,-1.5026c-3.35947,0.27362 -6.68568,0.99279 -10.01418,1.58431c-0.65118,0.1158 -1.05412,0.06258 -1.52484,-0.43101c-3.20395,-3.35927 -6.42537,-6.70377 -8.6854,-10.81319c-0.42747,-0.77719 -0.76263,-1.63857 -0.95994,-2.50246c-0.4414,-1.93256 1.13958,-3.31581 2.98336,-2.57418c0.97865,0.39358 1.84981,1.0639 2.7505,1.6394c0.98988,0.63248 1.92694,1.35269 2.94219,1.93859c1.50883,0.87096 3.06652,0.86971 4.48533,-0.184c1.16307,-0.86388 2.19391,-1.90553 3.35552,-2.7717c1.07159,-0.79902 2.1673,-1.63587 3.38068,-2.15773c1.89077,-0.81336 3.74183,-0.15594 5.48436,0.68757c1.83567,0.88862 3.65159,1.82028 5.45358,2.77544c2.23529,1.1847 4.33875,1.08032 6.4364,-0.3809c1.01358,-0.70607 2.11199,-1.35352 3.26279,-1.78515c1.85668,-0.6963 3.51812,0.5568 3.43869,3.04989z" fill="#555555"/>
   <path stroke="null" id="svg_17" d="m170.19486,19.635938c3.72083,0.06279 7.48241,0.53933 11.1575,1.63358c1.34354,0.40002 2.35691,1.17263 2.84219,2.50578c0.64328,1.76789 -0.34389,2.94136 -2.1752,2.57875c-1.72735,-0.34222 -3.43017,-0.81232 -5.16167,-1.12751c-6.06382,-1.10319 -12.05881,-0.69839 -17.98581,0.9302c-0.16654,0.04575 -0.32892,0.10791 -0.49692,0.14638c-0.87033,0.20022 -1.79658,0.33952 -2.38436,-0.4834c-0.60752,-0.85058 -0.46468,-1.90824 0.15324,-2.6218c0.6699,-0.77365 1.55228,-1.55249 2.496,-1.86603c3.70274,-1.23043 7.55581,-1.65188 11.55503,-1.69595z" fill="#555555"/>
   <text stroke="null" x="10703.18251" y="6694.423656" id="svg_18" font-size="76.3624" font-family="'SegoeUI-BoldItalic'" fill="#FFFFFF" transform="matrix(0.20791402139606938,0,0,0.20791402139606938,-2071.390901195567,-1338.7996953326833) ">55 л</text>
  </g>
  <rect stroke="null" id="svg_20" height="8.571425" width="198.866906" y="77.714328" x="1" fill-opacity="null" stroke-opacity="null" stroke-width="NaN" fill="#555555"/>
  <rect stroke="null" id="svg_23" height="8.571425" width="198.866906" y="94.149184" x="1" fill-opacity="null" stroke-opacity="null" stroke-width="NaN" fill="#555555"/>
  <rect stroke="null" id="svg_24" height="8.571425" width="15" y="85.944052" x="8" fill-opacity="null" stroke-opacity="null" stroke-width="NaN" fill="#555555"/>
  <rect stroke="null" id="svg_25" height="8.571425" width="15" y="85.944052" x="177" fill-opacity="null" stroke-opacity="null" stroke-width="NaN" fill="#555555"/>
  <rect stroke="null" id="svg_26" height="8.571425" width="15" y="85.944052" x="93" fill-opacity="null" stroke-opacity="null" stroke-width="NaN" fill="#555555"/>
 </g>
</svg>