<?xml version="1.0" encoding="utf-8"?>
<!-- Generator: Adobe Illustrator 17.0.0, SVG Export Plug-In . SVG Version: 6.00 Build 0)  -->
<!DOCTYPE svg PUBLIC "-//W3C//DTD SVG 1.1//EN" "http://www.w3.org/Graphics/SVG/1.1/DTD/svg11.dtd">
<svg version="1.1" id="Слой_1" xmlns="http://www.w3.org/2000/svg" xmlns:xlink="http://www.w3.org/1999/xlink" x="0px" y="0px"
	 width="340.16px" height="215.43px" viewBox="0 0 340.16 215.43" enable-background="new 0 0 340.16 215.43" xml:space="preserve">
<g>
	<g>
		<path fill="#4B78B9" d="M312.036,123.907c10.574,0,19.176,8.602,19.176,19.176c0,10.428-8.489,19.022-18.923,19.158l-4.534,0.059
			H105.987l-6.575-0.052c-10.488-0.083-19.021-8.681-19.021-19.165c0-10.574,8.602-19.176,19.176-19.176
			c0.659,0,1.332,0.037,2.055,0.114l0.471,0.05h0.474h206.47h0.474l0.471-0.05C310.704,123.944,311.376,123.907,312.036,123.907
			 M312.036,114.959c-1.014,0-2.014,0.059-3,0.164h-206.47c-0.986-0.105-1.986-0.164-3-0.164c-15.532,0-28.123,12.591-28.123,28.123
			c0,15.456,12.471,27.989,27.897,28.112v0.053h213.065v-0.06c15.36-0.2,27.754-12.697,27.754-28.104
			C340.159,127.551,327.568,114.959,312.036,114.959L312.036,114.959z"/>
		<g>
			<circle fill="#4B78B9" cx="101.026" cy="143.393" r="16.279"/>
		</g>
		<g>
			<circle fill="#4B78B9" cx="100.778" cy="143.393" r="5.344"/>
		</g>
		<g>
			<circle fill="#4B78B9" cx="154.379" cy="143.393" r="16.279"/>
		</g>
		<g>
			<circle fill="#4B78B9" cx="154.13" cy="143.393" r="5.344"/>
		</g>
		<g>
			<circle fill="#4B78B9" cx="206.074" cy="143.393" r="16.279"/>
		</g>
		<g>
			<circle fill="#4B78B9" cx="205.825" cy="143.393" r="5.344"/>
		</g>
		<g>
			<circle fill="#4B78B9" cx="259.426" cy="143.393" r="16.279"/>
		</g>
		<g>
			<circle fill="#4B78B9" cx="259.178" cy="143.393" r="5.344"/>
		</g>
		<g>
			<circle fill="#4B78B9" cx="310.459" cy="143.393" r="16.279"/>
		</g>
		<g>
			<circle fill="#4B78B9" cx="310.21" cy="143.393" r="5.344"/>
		</g>
		<g>
			<path fill="#4B78B9" d="M97.671,46.464v63.128h86.739V46.464H97.671z M155.331,72.312h-28.83v-11.93h28.83V72.312z"/>
			<polygon fill="#4B78B9" points="127.081,26.581 101.813,42.156 112.832,42.156 130.918,30.35 131.223,28.57 130.478,27.41 
				128.821,26.664 			"/>
			<polygon fill="#4B78B9" points="154.42,26.581 179.688,42.156 168.669,42.156 150.583,30.35 150.278,28.57 151.023,27.41 
				152.68,26.664 			"/>
		</g>
		<polygon fill="#4B78B9" points="298.735,76.812 258.138,53.373 258.138,68.833 213.571,68.833 213.571,85.401 258.138,85.401 
			258.138,100.251 		"/>
	</g>
	<path fill="#4B78B9" d="M175.391,171.063h-30.818c-10.638,6.07-22.941,9.555-36.066,9.555c-40.264,0-72.904-32.64-72.904-72.904
		c0-39.394,31.25-71.47,70.311-72.838V16.605c-2.972,0.061-5.955,0.26-8.94,0.621L92.837,6.848
		c-2.162-5.423-8.31-8.067-13.733-5.905l-23.457,9.351c-5.423,2.162-8.067,8.311-5.905,13.733l4.084,10.245
		c-6.862,5.025-12.889,10.924-17.992,17.47l-10.035-4.314c-5.363-2.306-11.58,0.173-13.886,5.536L1.938,76.163
		c-2.306,5.363,0.172,11.58,5.536,13.886l10.009,4.303c-1.221,8.01-1.384,16.235-0.402,24.471L6.66,122.978
		c-5.423,2.162-8.067,8.311-5.905,13.734l9.351,23.457c0.191,0.48,0.424,0.93,0.675,1.365c2.419,4.888,8.222,7.18,13.376,5.125
		l10.297-4.105c4.92,6.641,10.66,12.493,17.016,17.469l-4.513,10.497c-2.306,5.363,0.172,11.58,5.536,13.886l23.199,9.974
		c5.107,2.196,10.98,0.048,13.521-4.792c0.238-0.398,0.461-0.809,0.649-1.247l4.245-9.873c4.691,0.721,9.458,1.065,14.256,1.043
		v0.003c0.048,0,0.096-0.002,0.144-0.002s0.096,0.002,0.144,0.002v-0.003c4.798,0.022,9.565-0.321,14.256-1.043l4.245,9.873
		c0.188,0.438,0.411,0.849,0.649,1.247c2.541,4.84,8.415,6.988,13.521,4.792l23.199-9.974c5.363-2.306,7.842-8.523,5.536-13.886
		l-4.513-10.497C169.025,177.297,172.313,174.3,175.391,171.063z"/>
</g>
</svg>
