<?xml version="1.0" encoding="utf-8"?>
<!-- Generator: Adobe Illustrator 17.0.0, SVG Export Plug-In . SVG Version: 6.00 Build 0)  -->
<!DOCTYPE svg PUBLIC "-//W3C//DTD SVG 1.1//EN" "http://www.w3.org/Graphics/SVG/1.1/DTD/svg11.dtd">
<svg version="1.1" id="Слой_1" xmlns="http://www.w3.org/2000/svg" xmlns:xlink="http://www.w3.org/1999/xlink" x="0px" y="0px"
	 width="70.866px" height="68.031px" viewBox="0 0 70.866 68.031" enable-background="new 0 0 70.866 68.031" xml:space="preserve">
<path fill="#4B78B9" d="M69.13,31.642l-2.607-0.923c0.163-2.038,0.043-4.062-0.335-6.023l2.424-1.156
	c1.299-0.62,1.849-2.175,1.23-3.473l-2.68-5.618c-0.62-1.299-2.175-1.849-3.473-1.23l-2.43,1.159c-1.32-1.563-2.861-2.958-4.6-4.129
	l0.907-2.563c0.48-1.356-0.23-2.845-1.587-3.326l-5.867-2.077c-1.356-0.48-2.845,0.23-3.326,1.587l-0.919,2.596
	c-2.039-0.166-4.065-0.05-6.028,0.324L38.65,4.298c-0.62-1.299-2.175-1.849-3.473-1.23l-5.618,2.68
	c-1.299,0.62-1.849,2.175-1.23,3.473l1.184,2.482c-1.561,1.313-2.954,2.847-4.126,4.578l-2.576-0.912
	c-1.356-0.48-2.845,0.23-3.326,1.587l-2.077,5.867c-0.48,1.356,0.23,2.845,1.587,3.326l2.582,0.914
	c-0.021,0.251-0.038,0.502-0.05,0.753l-2.258-0.799c-0.796-0.282-1.669,0.135-1.95,0.93L16.78,29.47
	c-1.196-0.098-2.384-0.03-3.536,0.19l-0.698-1.462c-0.363-0.762-1.275-1.085-2.037-0.721l-3.295,1.572
	c-0.762,0.363-1.085,1.275-0.721,2.037l0.695,1.456c-0.915,0.77-1.733,1.67-2.42,2.685L3.257,34.69
	c-0.796-0.282-1.669,0.135-1.95,0.93l-1.218,3.441c-0.282,0.796,0.135,1.669,0.93,1.95l1.514,0.536
	C2.431,42.76,2.5,43.965,2.724,45.132L1.281,45.82c-0.239,0.114-0.435,0.283-0.58,0.483c-0.331,0.441-0.413,1.045-0.159,1.577
	l1.572,3.295c0.363,0.762,1.275,1.085,2.037,0.721l1.472-0.702c0.757,0.895,1.639,1.696,2.631,2.373l-0.527,1.488
	c-0.197,0.558-0.051,1.153,0.328,1.556c0.169,0.198,0.389,0.356,0.651,0.449l3.441,1.218c0.796,0.282,1.669-0.135,1.95-0.93
	l0.538-1.521c1.212,0.1,2.416,0.029,3.582-0.197l0.669,1.402c0.03,0.062,0.064,0.12,0.101,0.176
	c0.354,0.614,1.082,0.899,1.752,0.702c0.021,0.167,0.047,0.334,0.079,0.499L20.001,58.8c-0.135,0.065-0.246,0.16-0.328,0.273
	c-0.187,0.249-0.234,0.591-0.09,0.892l0.889,1.864c0.206,0.431,0.722,0.614,1.153,0.408l0.833-0.397
	c0.428,0.507,0.927,0.96,1.488,1.342l-0.298,0.842c-0.112,0.315-0.029,0.652,0.185,0.88c0.095,0.112,0.22,0.201,0.368,0.254
	l1.947,0.689c0.45,0.159,0.944-0.076,1.103-0.526l0.305-0.86c0.686,0.056,1.367,0.016,2.027-0.112l0.378,0.793
	c0.017,0.035,0.036,0.068,0.057,0.1c0.223,0.387,0.71,0.544,1.12,0.348l1.864-0.889c0.431-0.206,0.614-0.722,0.408-1.152
	l-0.402-0.843c0.504-0.427,0.954-0.924,1.335-1.482l0.855,0.303c0.428,0.151,0.895-0.054,1.077-0.462
	c0.019-0.036,0.037-0.074,0.051-0.114l0.689-1.947c0.159-0.45-0.076-0.944-0.526-1.103l-0.865-0.306
	c0.054-0.676,0.014-1.348-0.111-1.999l0.804-0.384c0.075-0.036,0.139-0.084,0.199-0.136l1.454,0.515
	c1.356,0.48,2.845-0.23,3.326-1.587l0.918-2.593c2.067,0.17,4.12,0.05,6.108-0.336l1.141,2.391c0.051,0.106,0.109,0.205,0.172,0.301
	c0.673,1.168,2.14,1.64,3.376,1.05l5.618-2.68c1.299-0.62,1.849-2.175,1.23-3.473l-1.213-2.542c1.518-1.287,2.875-2.783,4.023-4.466
	l2.576,0.912c1.289,0.456,2.696-0.164,3.245-1.391c0.058-0.11,0.111-0.223,0.153-0.343l2.077-5.867
	C71.196,33.611,70.486,32.122,69.13,31.642z M12.977,50.371c-1.609-0.57-2.928-1.591-3.867-2.871
	c-1.056-1.386-1.685-3.117-1.685-4.994c0-4.556,3.693-8.249,8.249-8.249s8.249,3.693,8.249,8.249c0,0.848-0.128,1.665-0.366,2.435
	c0.005-0.001,0.011-0.001,0.016-0.002c-0.043,0.148-0.09,0.296-0.142,0.444C21.923,49.648,17.242,51.881,12.977,50.371z
	 M28.179,61.66c-2.575,0-4.663-2.088-4.663-4.663c0-2.575,2.088-4.663,4.663-4.663s4.663,2.088,4.663,4.663
	C32.842,59.572,30.755,61.66,28.179,61.66z M57.212,33.601c-2.574,7.271-10.556,11.079-17.827,8.505
	c-7.272-2.574-11.079-10.556-8.505-17.827S41.436,13.2,48.707,15.774C55.979,18.348,59.787,26.33,57.212,33.601z"/>
</svg>
