<?xml version="1.0" encoding="utf-8"?>
<!-- Generator: Adobe Illustrator 17.0.0, SVG Export Plug-In . SVG Version: 6.00 Build 0)  -->
<!DOCTYPE svg PUBLIC "-//W3C//DTD SVG 1.1//EN" "http://www.w3.org/Graphics/SVG/1.1/DTD/svg11.dtd">
<svg version="1.1" id="Слой_1" xmlns="http://www.w3.org/2000/svg" xmlns:xlink="http://www.w3.org/1999/xlink" x="0px" y="0px"
	 width="70.866px" height="68.031px" viewBox="0 0 70.866 68.031" enable-background="new 0 0 70.866 68.031" xml:space="preserve">
<g>
	<path fill="#4B78B9" d="M30.523,30.449c0,0-3.787-8.6,0.085-14.181s9.682-4.328,15.946-6.834s12.074-9.397,12.074-9.397
		s4.784,18.11-2.392,30.582c-5.296,8.543-18.281,5.98-18.965,5.809c-1.367,1.879-2.563,5.467-1.709,7.859
		c6.792-0.128,14.864,2.05,16.573,3.417c0.683,1.367-0.683,3.93-0.683,3.93s-6.193,3.887-6.962,6.578
		c-0.433,1.515-1.227,3.517-3.118,5.638c-1.547,1.734-1.016,3.543-1.709,3.673c-1.367,0.256-3.801-1.196-4.869-3.46
		c-2.221-0.854-4.015,1.41-4.015,1.41s-3.382-2.49-5.296-6.236c-1.965-3.844-8.628-7.603-8.628-7.603s-1.794-1.424-1.395-3.759
		c1.025-1.367,5.923-3.588,12.629-3.631c1.367-5.809,6.962-18.58,18.751-24.731C43.764,20.198,35.563,23.017,30.523,30.449z"/>
	<path fill="#4B78B9" d="M28.274,33.809c1.765-2.278,0.826-4.613-3.588-8.144c-4.607-3.686-12.244-2.449-14.01-1.993
		c1.993,0.399,5.667,3.702,6.777,6.521C18.564,33.012,24.41,38.795,28.274,33.809z"/>
	<circle fill="#4B78B9" cx="20.414" cy="60.761" r="2.933"/>
	<circle fill="#4B78B9" cx="26.764" cy="66.371" r="1.623"/>
</g>
</svg>
