<?xml version="1.0" encoding="utf-8"?>
<!-- Generator: Adobe Illustrator 17.0.0, SVG Export Plug-In . SVG Version: 6.00 Build 0)  -->
<!DOCTYPE svg PUBLIC "-//W3C//DTD SVG 1.1//EN" "http://www.w3.org/Graphics/SVG/1.1/DTD/svg11.dtd">
<svg version="1.1" id="Слой_1" xmlns="http://www.w3.org/2000/svg" xmlns:xlink="http://www.w3.org/1999/xlink" x="0px" y="0px"
	 width="70.866px" height="68.031px" viewBox="0 0 70.866 68.031" enable-background="new 0 0 70.866 68.031" xml:space="preserve">
<path fill="#4B78B9" d="M56.104,27.246c0,0-0.268-2.416,0.94-6.175c1.879-3.356,6.309-6.98,9.53-8.054
	c-7.114,0-11.41-0.537-16.779,4.564c4.832-14.765-6.443-16.644-11.678-17.45c0.805,0.134,4.564,2.953,4.161,5.235
	c-5.369-5.235-12.215-4.43-17.181-3.222c2.819,0.134,5.503,1.477,6.175,3.758c-8.993-1.745-15.571,2.953-16.913,5.235
	c0.94-0.805,6.443-1.611,7.248,0.805c-4.564-0.805-9.396,4.698-9.933,7.785c0.94-1.074,5.772-4.161,7.383,1.342
	s-9.665,9.53-14.765,7.785c16.644,8.993,20.403,4.966,26.175-7.114s13.691-9.262,13.691-9.262
	c-9.53,0.805-13.02,10.336-13.826,13.02c-0.805,2.685-3.49,9.396-4.966,12.081c-1.477,2.685-5.369,6.577-7.651,10.067
	c-2.953,5.503-1.208,10.47-0.671,13.423c0.268-1.342,1.611-6.04,2.282-4.966c0.669,1.071,1.471,3.21,0.544,6.017
	c1.305,2.572,15.161,7.809,26.347,4.945s13.11-11.902,13.11-11.902c-1.779,4.966-11.342,5.873-13.806,0.073
	c-0.189-0.586-0.346-1.143-0.468-1.652c-0.295-0.885-0.462-1.9-0.482-3.042c-0.008-0.133-0.01-0.212-0.01-0.212
	c0-7.248,1.477-11.007,4.564-13.96c-2.953,5.503-2.819,10.47-2.819,10.47c-0.403,8.725,4.564,10.336,7.383,9.933
	s4.564-1.879,5.101-5.503c0.537-3.624-3.624-9.799-4.295-11.275s-1.342-7.383,2.013-8.859c6.846-1.611,8.859-6.98,9.262-9.262
	C64.561,25.769,56.104,27.246,56.104,27.246z M43.89,25.232c-1.557,0-2.819-1.262-2.819-2.819c0-1.557,1.262-2.819,2.819-2.819
	s2.819,1.262,2.819,2.819C46.708,23.97,45.446,25.232,43.89,25.232z"/>
</svg>
