<?xml version="1.0" encoding="utf-8"?>
<!-- Generator: Adobe Illustrator 17.0.0, SVG Export Plug-In . SVG Version: 6.00 Build 0)  -->
<!DOCTYPE svg PUBLIC "-//W3C//DTD SVG 1.1//EN" "http://www.w3.org/Graphics/SVG/1.1/DTD/svg11.dtd">
<svg version="1.1" id="Слой_1" xmlns="http://www.w3.org/2000/svg" xmlns:xlink="http://www.w3.org/1999/xlink" x="0px" y="0px"
	 width="595.28px" height="841.89px" viewBox="0 0 595.28 841.89" enable-background="new 0 0 595.28 841.89" xml:space="preserve">
<path fill="#4B78BA" d="M814.509,256.748c-8.552-17.235-10.166-34.461-3.353-52.043c4.649-12,12.438-21.573,23.202-28.642
	c21.824-14.333,50.099-13.261,70.58,2.606c23.334,18.077,28.5,42.138,16.462,78.382c2.096,0,4.016,0,5.936,0
	c25.163-0.003,50.326-0.018,75.489-0.004c15.939,0.009,25.212,8.133,28.187,23.903c10.082,53.44,20.329,106.849,30.518,160.268
	c2.399,12.578,4.948,25.129,7.188,37.735c2.923,16.455-9.34,30.355-26.724,30.361c-86.821,0.029-173.642,0.015-260.462,0.016
	c-26.663,0-53.326,0.028-79.989-0.012c-19.117-0.029-30.448-14.013-26.715-32.746c13.094-65.717,26.156-131.44,39.228-197.161
	c2.848-14.319,12.381-22.312,26.934-22.354c22.663-0.066,45.326-0.021,67.99-0.041C810.579,257.016,812.179,256.866,814.509,256.748
	z M824.867,226.835c0.047,23.909,19.574,43.42,43.185,43.152c23.638-0.268,42.898-19.624,42.882-43.096
	c-0.016-23.792-19.341-43.011-43.332-43.096C844.157,183.712,824.82,203.187,824.867,226.835z M952.326,395.234
	c0,4.645,0.318,8.507-0.142,12.274c-0.21,1.721-1.575,3.986-3.062,4.754c-8.793,4.542-18.273,6.222-28.084,5.013
	c-10.345-1.275-17.982-6.606-22.159-16.365c-3.57-8.341-3.983-17.045-2.94-25.951c1.516-12.939,9.434-22.722,21.065-25.734
	c14.009-3.627,23.633-0.069,32.033,11.841c0.671,0.951,1.267,1.973,2.042,2.831c3.339,3.697,8.563,4.418,12.707,1.818
	c3.938-2.47,5.192-6.479,3.516-11.322c-2.298-6.64-6.999-11.25-12.848-14.748c-17.061-10.206-46.223-8.319-62.151,3.624
	c-16.071,12.051-20.581,33.87-15.674,54.878c3.031,12.977,10.519,23.161,22.831,28.672c22.907,10.253,45.073,7.132,66.34-5.173
	c3.744-2.166,5.386-5.662,5.311-10.068c-0.11-6.494,0.065-12.992-0.02-19.486c-0.107-8.12-2.966-11.338-11.056-11.606
	c-8.645-0.287-17.312-0.153-25.964,0.051c-5.896,0.139-8.954,2.773-9.056,7.163c-0.101,4.328,2.417,6.596,8.318,7.382
	c1.314,0.175,2.66,0.141,3.991,0.145C942.118,395.243,946.911,395.234,952.326,395.234z M818.731,385.623
	c8.747,12.957,17.071,25.403,25.544,37.747c1.856,2.704,3.91,5.475,6.463,7.453c3.891,3.014,11.37,2.404,14.424-0.712
	c3.923-4.003,2.46-8.285,0.225-12.399c-1.266-2.33-2.843-4.506-4.409-6.658c-9.293-12.772-18.623-25.518-28.131-38.533
	c6.177-5.592,12.238-11.016,18.223-16.523c3.181-2.927,6.663-5.67,9.243-9.077c4.534-5.986,0.952-12.964-6.522-13.713
	c-4.445-0.445-7.668,1.475-10.62,4.433c-9.301,9.316-18.726,18.51-27.931,27.919c-4.028,4.117-7.637,8.644-11.436,12.985
	c-0.559-0.438-1.119-0.875-1.678-1.313c-0.078-1.254-0.222-2.509-0.223-3.763c-0.007-9.665,0.146-19.333-0.015-28.996
	c-0.133-8-4.545-11.981-11.933-11.215c-5.451,0.565-8.405,4.277-8.552,11.536c-0.193,9.493-0.068,18.993-0.063,28.49
	c0.008,15.662-0.119,31.326,0.104,46.985c0.122,8.551,3.71,12.494,10.364,12.402c6.633-0.091,10.044-4.333,10.126-12.708
	c0.052-5.333-0.134-10.672,0.096-15.995c0.07-1.622,0.754-3.623,1.873-4.722C808.524,394.71,813.421,390.452,818.731,385.623z"/>
</svg>
