<svg width="580" height="370" xmlns="http://www.w3.org/2000/svg">
 <!-- Created with SVG Editor - http://github.com/mzalive/SVG Editor/ -->

 <g>
  <title>background</title>
  <rect fill="none" id="canvas_background" height="372" width="582" y="-1" x="-1"/>
  <g display="none" overflow="visible" y="0" x="0" height="100%" width="100%" id="canvasGrid">
   <rect fill="url(#gridpattern)" stroke-width="0" y="0" x="0" height="100%" width="100%"/>
  </g>
 </g>
 <g>
  <title>Layer 1</title>
  <g stroke="null" id="svg_22">
   <g stroke="null" transform="matrix(0.931451736012981,0,0,0.931451736012981,-5398.435812600582,-3723.247652468145) " id="svg_5">
    <path stroke="null" fill="#4b78ba" id="svg_6" d="m5982.899349,4276.706387c-29.77,0 -53.915,24.145 -53.915,53.827c0,29.769 24.145,53.914 53.915,53.914c29.683,0 53.827,-24.146 53.827,-53.914c0,-29.682 -24.144,-53.827 -53.827,-53.827zm0,80.827c-14.885,0 -27,-12.115 -27,-27c0,-14.798 12.115,-26.914 27,-26.914c14.797,0 26.913,12.115 26.913,26.914c0,14.885 -12.115,27 -26.913,27zm-46.41,-80.804l-120.66,0c-4.779,0 -8.653,3.874 -8.653,8.653l0,26.256c0,4.779 3.874,8.653 8.653,8.653l96.714,0c2.526,-17.325 11.27,-32.63 23.946,-43.562zm328.093,-0.023c-29.684,0 -53.827,24.145 -53.827,53.827c0,29.769 24.144,53.914 53.827,53.914c29.769,0 53.826,-24.146 53.826,-53.914c0.001,-29.682 -24.057,-53.827 -53.826,-53.827zm0,80.827c-14.885,0 -26.914,-12.115 -26.914,-27c0,-14.798 12.029,-26.914 26.914,-26.914c14.884,0 26.913,12.115 26.913,26.914c0.001,14.885 -12.029,27 -26.913,27zm140.366,-80.827l-21.029,0l0,-117.606c0,-13.759 -4.154,-27.259 -11.856,-38.683l-52.701,-78.057c-12.809,-19.039 -34.356,-30.462 -57.375,-30.462l-81.692,0c-9.52,0 -17.308,7.702 -17.308,17.308l0,247.5l-133.703,0c12.635,10.99 21.375,26.222 23.885,43.615l141.144,0c4.933,-34.355 34.529,-60.923 70.27,-60.923c35.739,0 65.336,26.567 70.355,60.923l70.01,0c4.847,0 8.653,-3.895 8.653,-8.654l0,-26.307c0,-4.76 -3.808,-8.654 -8.653,-8.654zm-86.194,-140.712l-107.826,0c-4.76,0 -8.654,-3.808 -8.654,-8.654l0,-59.797c0,-4.76 3.896,-8.654 8.654,-8.654l65.683,0c2.855,0 5.539,1.384 7.097,3.634l42.145,59.884c4.065,5.712 -0.089,13.587 -7.099,13.587zm-196.961,123.404l-302.885,0c-9.558,0 -17.307,-7.748 -17.307,-17.307l0,-77.885c0,-9.559 7.749,-17.308 17.307,-17.308l302.885,0c9.559,0 17.308,7.749 17.308,17.308l0,77.885c0,9.559 -7.749,17.307 -17.308,17.307zm-181.73,-138.461l-121.155,0c-9.558,0 -17.307,-7.75 -17.307,-17.308l0,-77.884c0,-9.559 7.749,-17.308 17.307,-17.308l121.154,0c9.559,0 17.308,7.749 17.308,17.308l0,77.884c0.001,9.558 -7.748,17.308 -17.307,17.308zm181.73,0l-121.153,0c-9.559,0 -17.308,-7.749 -17.308,-17.307l0,-77.885c0,-9.559 7.749,-17.307 17.308,-17.307l121.154,0c9.559,0 17.308,7.749 17.308,17.307l0,77.885c-0.001,9.557 -7.75,17.307 -17.309,17.307z"/>
   </g>
   <g stroke="null" transform="matrix(0.931451736012981,0,0,0.931451736012981,-5398.435812600582,-3723.247652468145) " id="svg_7"/>
   <g stroke="null" transform="matrix(0.931451736012981,0,0,0.931451736012981,-5398.435812600582,-3723.247652468145) " id="svg_8"/>
   <g stroke="null" transform="matrix(0.931451736012981,0,0,0.931451736012981,-5398.435812600582,-3723.247652468145) " id="svg_9"/>
   <g stroke="null" transform="matrix(0.931451736012981,0,0,0.931451736012981,-5398.435812600582,-3723.247652468145) " id="svg_10"/>
   <g stroke="null" transform="matrix(0.931451736012981,0,0,0.931451736012981,-5398.435812600582,-3723.247652468145) " id="svg_11"/>
   <g stroke="null" transform="matrix(0.931451736012981,0,0,0.931451736012981,-5398.435812600582,-3723.247652468145) " id="svg_12"/>
   <g stroke="null" transform="matrix(0.931451736012981,0,0,0.931451736012981,-5398.435812600582,-3723.247652468145) " id="svg_13"/>
   <g stroke="null" transform="matrix(0.931451736012981,0,0,0.931451736012981,-5398.435812600582,-3723.247652468145) " id="svg_14"/>
   <g stroke="null" transform="matrix(0.931451736012981,0,0,0.931451736012981,-5398.435812600582,-3723.247652468145) " id="svg_15"/>
   <g stroke="null" transform="matrix(0.931451736012981,0,0,0.931451736012981,-5398.435812600582,-3723.247652468145) " id="svg_16"/>
   <g stroke="null" transform="matrix(0.931451736012981,0,0,0.931451736012981,-5398.435812600582,-3723.247652468145) " id="svg_17"/>
   <g stroke="null" transform="matrix(0.931451736012981,0,0,0.931451736012981,-5398.435812600582,-3723.247652468145) " id="svg_18"/>
   <g stroke="null" transform="matrix(0.931451736012981,0,0,0.931451736012981,-5398.435812600582,-3723.247652468145) " id="svg_19"/>
   <g stroke="null" transform="matrix(0.931451736012981,0,0,0.931451736012981,-5398.435812600582,-3723.247652468145) " id="svg_20"/>
   <g stroke="null" transform="matrix(0.931451736012981,0,0,0.931451736012981,-5398.435812600582,-3723.247652468145) " id="svg_21"/>
  </g>
 </g>
</svg>