<svg width="520" height="400" xmlns="http://www.w3.org/2000/svg">
 <!-- Created with SVG Editor - http://github.com/mzalive/SVG Editor/ -->

 <g>
  <title>background</title>
  <rect fill="none" id="canvas_background" height="402" width="522" y="-1" x="-1"/>
  <g display="none" overflow="visible" y="0" x="0" height="100%" width="100%" id="canvasGrid">
   <rect fill="url(#gridpattern)" stroke-width="0" y="0" x="0" height="100%" width="100%"/>
  </g>
 </g>
 <g>
  <title>Layer 1</title>
  <g stroke="null" id="svg_23">
   <g stroke="null" transform="matrix(9.490840542963353,0,0,9.490840542963353,-52.55359287435107,-29.410162582163146) " id="svg_5">
    <g stroke="null" id="svg_6">
     <path stroke="null" fill="#4b78ba" id="svg_7" d="m57.46763,40.293655l-1.72,-36.849l-11.179,0l-1.224,36.849l-3.234,0l0.645,-19.394l-5.236,0l0,-8.404l-13.576,8.404l0,-8.404l-14.224,8.404l0,19.394l-1.939,0l0,4.525l54.303,0l0,-4.525l-2.616,0zm-39.404,-6.464l-4.525,0l0,-4.525l4.525,0l0,4.525zm7.757,0l-4.525,0l0,-4.525l4.525,0l0,4.525zm7.758,0l-4.525,0l0,-4.525l4.525,0l0,4.525z"/>
    </g>
   </g>
   <g stroke="null" transform="matrix(9.490840542963353,0,0,9.490840542963353,-52.55359287435107,-29.410162582163146) " id="svg_8"/>
   <g stroke="null" transform="matrix(9.490840542963353,0,0,9.490840542963353,-52.55359287435107,-29.410162582163146) " id="svg_9"/>
   <g stroke="null" transform="matrix(9.490840542963353,0,0,9.490840542963353,-52.55359287435107,-29.410162582163146) " id="svg_10"/>
   <g stroke="null" transform="matrix(9.490840542963353,0,0,9.490840542963353,-52.55359287435107,-29.410162582163146) " id="svg_11"/>
   <g stroke="null" transform="matrix(9.490840542963353,0,0,9.490840542963353,-52.55359287435107,-29.410162582163146) " id="svg_12"/>
   <g stroke="null" transform="matrix(9.490840542963353,0,0,9.490840542963353,-52.55359287435107,-29.410162582163146) " id="svg_13"/>
   <g stroke="null" transform="matrix(9.490840542963353,0,0,9.490840542963353,-52.55359287435107,-29.410162582163146) " id="svg_14"/>
   <g stroke="null" transform="matrix(9.490840542963353,0,0,9.490840542963353,-52.55359287435107,-29.410162582163146) " id="svg_15"/>
   <g stroke="null" transform="matrix(9.490840542963353,0,0,9.490840542963353,-52.55359287435107,-29.410162582163146) " id="svg_16"/>
   <g stroke="null" transform="matrix(9.490840542963353,0,0,9.490840542963353,-52.55359287435107,-29.410162582163146) " id="svg_17"/>
   <g stroke="null" transform="matrix(9.490840542963353,0,0,9.490840542963353,-52.55359287435107,-29.410162582163146) " id="svg_18"/>
   <g stroke="null" transform="matrix(9.490840542963353,0,0,9.490840542963353,-52.55359287435107,-29.410162582163146) " id="svg_19"/>
   <g stroke="null" transform="matrix(9.490840542963353,0,0,9.490840542963353,-52.55359287435107,-29.410162582163146) " id="svg_20"/>
   <g stroke="null" transform="matrix(9.490840542963353,0,0,9.490840542963353,-52.55359287435107,-29.410162582163146) " id="svg_21"/>
   <g stroke="null" transform="matrix(9.490840542963353,0,0,9.490840542963353,-52.55359287435107,-29.410162582163146) " id="svg_22"/>
  </g>
 </g>
</svg>