<svg width="917" height="930" xmlns="http://www.w3.org/2000/svg">

 <g>
  <title>background</title>
  <rect fill="none" id="canvas_background" height="932" width="919" y="-1" x="-1"/>
 </g>
 <g>
  <title>Layer 1</title>
  <path id="svg_1" d="m507.8,632.936l-59.8,-615.936l-51,5c0,0 -46,5 -46,61s10,363 10,363l-92.212,29.12c-27.47,-34.789 -70.02,-57.12 -117.788,-57.12c-82.843,0 -150,67.157 -150,150s67.157,150 150,150c64.586,0 119.634,-40.821 140.762,-98.068l72.238,-27.932l0,79.355c-27.483,27.189 -44.516,64.92 -44.516,106.634c0,82.843 67.157,150 150,150s150,-67.157 150,-150c0,-69.598 -47.404,-128.118 -111.684,-145.053zm-356.633,3.231c-38.292,0 -69.333,-31.042 -69.333,-69.333s31.041,-69.334 69.333,-69.334s69.333,31.042 69.333,69.333s-31.042,69.334 -69.333,69.334zm318.484,209.989c-38.292,0 -69.333,-31.042 -69.333,-69.333s31.042,-69.333 69.333,-69.333s69.333,31.042 69.333,69.333s-31.042,69.333 -69.333,69.333z" fill="#4B77B6"/>
  <polygon id="svg_2" points="546.3330078125,517.3330078125 641,479.3330078125 539,446.6669921875 " fill="#4B77B6"/>
  <path id="svg_3" d="m854,223c-66.629,-79.785 -52,-161 -52,-161s-46,66 -26,132c8.798,29.034 0.586,32.475 -10.997,30.596l-0.038,-0.394c-2.452,-0.396 -4.859,-0.804 -7.24,-1.217c-2.589,-0.669 -5.205,-1.391 -7.724,-1.984c-0.954,-0.225 -1.855,-0.178 -2.711,0.086c-40.607,-7.747 -68.29,-17.087 -68.29,-17.087l-169,-52l26,251c0,0 90,29 150,46c37.09,10.378 71.365,16.639 102.721,19.895c40.279,5.105 222.279,-57.895 65.279,-245.895z" fill="#4B77B6"/>
  <path id="svg_4" d="m313.036,341.938l-6.306,-241.017c-111.098,-15.277 -185.709,25.589 -207.663,39.766l-0.067,-0.02c0,0 -0.524,0.343 -1.459,1.019c-3.432,2.273 -5.207,3.648 -5.207,3.648s0.046,0.111 0.128,0.308c-23.131,19.121 -97.965,95.081 -62.846,254.953c11.21,-37.833 87.768,-107.343 248.256,-68.511c12.954,4.654 24.832,8.481 35.164,9.854z" fill="#4B77B6"/>
 </g>
</svg>