<svg width="514" height="515" xmlns="http://www.w3.org/2000/svg">

 <g>
  <title>background</title>
  <rect fill="none" id="canvas_background" height="517" width="516" y="-1" x="-1"/>
 </g>
 <g>
  <title>Layer 1</title>
  <path id="svg_1" d="m1,273c0,-10.667 0,-21.333 0,-32c0.284,-1.287 0.733,-2.562 0.828,-3.863c1.734,-23.538 6.311,-46.533 15.057,-68.436c35.925,-89.967 101.327,-144.844 196.514,-163.73c9.746,-1.934 19.728,-2.676 29.601,-3.971c9.333,0 18.667,0 28,0c1.29,0.27 2.569,0.707 3.871,0.786c20.361,1.235 40.406,4.622 59.607,11.386c95.885,33.781 154.346,100.457 174.637,200.227c1.848,9.088 2.616,18.395 3.885,27.601c0,10.667 0,21.333 0,32c-0.296,1.453 -0.754,2.894 -0.865,4.361c-1.924,25.396 -7.208,50.099 -17.166,73.516c-37.015,87.035 -101.843,140.127 -194.887,158.212c-9.585,1.863 -19.383,2.633 -29.082,3.911c-9.333,0 -18.667,0 -28,0c-1.283,-0.278 -2.555,-0.626 -3.85,-0.822c-13.632,-2.059 -27.439,-3.309 -40.874,-6.26c-97.428,-21.399 -177.299,-105.984 -193.305,-204.329c-1.545,-9.494 -2.657,-19.058 -3.971,-28.589zm239.75,-127.499c-28.615,-1.669 -56.973,-3.323 -85.616,-4.994c-11.22,33.626 -16.749,68.398 -17.914,104.093c34.874,0 69.23,0 103.53,0c0,-33.335 0,-66.268 0,-99.099zm136.071,99.251c-1.352,-36.088 -6.736,-70.891 -18.021,-104.216c-28.938,1.678 -57.267,3.321 -85.559,4.961c0,33.159 0,66.083 0,99.255c34.475,0 68.707,0 103.58,0zm-239.226,32.492c1.679,33.475 7.229,65.558 17.565,96.216c28.945,-1.689 57.155,-3.334 85.556,-4.991c0,-30.301 0,-60.685 0,-91.225c-34.367,0 -68.444,0 -103.121,0zm135.61,91.214c28.786,1.684 57.005,3.335 85.639,5.01c10.268,-30.957 15.952,-63.015 17.499,-96.134c-34.663,0 -68.852,0 -103.138,0c0,30.595 0,60.852 0,91.124zm-150.839,-232.266c-14.911,-2.828 -29.136,-5.327 -43.253,-8.336c-3.689,-0.786 -5.286,0.354 -7.18,3.137c-16.292,23.934 -27.694,50.001 -33.68,78.294c-2.452,11.59 -3.669,23.442 -5.487,35.437c24.823,0 48.385,0 72.331,0c1.206,-36.93 6.366,-73.015 17.269,-108.532zm269.178,-0.146c11.034,35.714 16.089,71.813 17.354,108.554c24.093,0 47.755,0 71.422,0c-0.478,-33.456 -13.473,-74.571 -33.438,-106.181c-7.135,-11.297 -7.135,-11.296 -20.354,-8.636c-0.489,0.098 -0.988,0.146 -1.479,0.234c-10.93,1.966 -21.859,3.933 -33.505,6.029zm-269.126,241.885c-10.199,-33.134 -15.334,-66.577 -16.99,-100.623c-24.09,0 -47.661,0 -71.242,0c0,1.306 -0.097,2.311 0.014,3.292c3.836,33.914 14.502,65.472 32.613,94.459c7.318,11.713 7.314,11.715 21.105,9.048c0.327,-0.063 0.661,-0.083 0.989,-0.142c10.937,-1.967 21.875,-3.938 33.511,-6.034zm357.618,-100.754c-24.054,0 -47.503,0 -71.499,0c-1.584,34.219 -6.89,67.756 -16.908,100.688c1.509,0.407 2.436,0.731 3.391,0.904c13.586,2.462 27.2,4.78 40.743,7.454c2.804,0.554 4.29,0.051 5.648,-2.317c5.789,-10.095 12.239,-19.854 17.413,-30.25c11.903,-23.915 18.697,-49.367 21.212,-76.479zm-239.466,201.935c0,-26.445 0,-52.122 0,-78.471c-24.371,1.285 -48.273,2.545 -73.241,3.861c17.17,33.014 36.42,62.112 73.241,74.61zm32.701,-0.027c36.946,-12.403 56.12,-41.57 73.388,-74.59c-25.067,-1.315 -49.067,-2.575 -73.388,-3.851c0,26.502 0,52.078 0,78.441zm-105.955,-369.598c25.238,1.31 49.251,2.557 73.409,3.811c0,-26.596 0,-52.136 0,-78.444c-36.891,12.547 -56.125,41.53 -73.409,74.633zm105.824,3.843c24.504,-1.289 48.488,-2.55 72.843,-3.83c-15.249,-35.232 -45.346,-69.046 -72.843,-73.769c0,25.484 0,50.944 0,77.599zm78.386,-59.1c5.359,8.497 10.766,16.461 15.53,24.793c4.774,8.349 8.906,17.065 13.616,26.196c11.197,-1.859 22.703,-3.769 34.662,-5.754c-10.882,-13.814 -43.52,-36.858 -63.808,-45.235zm-218.197,50.979c4.7,-9.133 8.827,-17.866 13.6,-26.23c4.732,-8.292 10.115,-16.213 15.252,-24.359c-18.564,6.549 -55.913,33.57 -63.031,44.975c11.648,1.913 23.067,3.789 34.179,5.614zm-35.373,309.349c19.347,19.163 39.988,33.824 62.684,44.457c-8.543,-15.851 -17.07,-31.765 -25.76,-47.59c-0.603,-1.099 -2.53,-2.314 -3.652,-2.153c-10.642,1.522 -21.243,3.33 -33.272,5.286zm318.046,-0.002c-12.116,-1.968 -22.884,-3.786 -33.689,-5.351c-0.968,-0.14 -2.607,1.113 -3.205,2.143c-8.92,15.348 -17.719,30.765 -26.53,46.176c-0.206,0.361 -0.225,0.829 -0.569,2.186c23.945,-11.397 44.694,-25.91 63.993,-45.154z" fill="#4B78BA"/>
 </g>
</svg>