<svg width="1440" height="468" xmlns="http://www.w3.org/2000/svg" xmlns:xlink="http://www.w3.org/1999/xlink">
 <g>
  <title>background</title>
  <rect fill="none" id="canvas_background" height="402" width="582" y="-1" x="-1"/>
 </g>
 <g>
  <title>Layer 1</title>
  <g id="svg_1">
   <g id="svg_2">
    <path stroke-width="0" id="svg_3" d="m635.35,103.006c-8.903,-4.316 -20.505,-5.936 -33.455,-5.936c-39.121,0 -61.515,28.869 -61.515,74.466c0,43.168 24.012,79.59 72.036,79.59c11.602,0 22.934,-2.967 29.679,-9.172c6.745,-5.396 13.22,-14.569 20.236,-26.441c1.349,0 5.936,2.427 6.474,4.316c-2.698,11.602 -14.299,32.646 -20.505,36.423c-7.823,2.698 -24.821,6.745 -41.279,6.745c-60.165,0 -93.621,-32.915 -93.621,-89.034c0,-29.139 13.22,-58.276 42.899,-74.194c14.299,-7.825 31.837,-12.411 54.769,-12.411c22.934,0 41.01,4.587 53.151,5.396c-1.618,9.443 -4.047,29.408 -4.316,41.55c-1.08,1.078 -8.094,1.887 -8.364,0.538c-2.699,-21.583 -6.206,-26.979 -16.189,-31.836z" stroke-miterlimit="10" stroke="#0B457B" fill="#ffffff"/>
    <path stroke-width="0" id="svg_4" d="m707.602,243.917c-11.692,-12.859 -16.758,-29.227 -16.758,-46.764c0,-14.418 4.288,-26.889 12.081,-37.607c10.716,-14.807 31.955,-24.746 52.025,-24.746c39.75,0 59.819,29.034 59.819,60.793c0,17.147 -3.896,29.423 -11.885,40.529c-12.081,16.757 -31.761,25.525 -51.246,25.525c-18.706,0.002 -33.904,-6.817 -44.036,-17.73zm72.289,2.338c12.081,-9.743 16.368,-25.914 16.368,-43.841c0,-21.043 -7.015,-41.309 -22.409,-52.025c-7.014,-4.871 -15.393,-7.793 -25.525,-7.793c-6.82,0 -12.666,1.558 -17.536,4.286c-14.225,8.378 -20.85,25.914 -20.85,45.789c0,20.459 7.6,42.673 24.747,53.779c6.819,4.286 14.418,6.625 24.355,6.625c8.184,0.001 15.784,-2.533 20.85,-6.82z" stroke-miterlimit="10" stroke="#0B457B" fill="#ffffff"/>
    <path stroke-width="0" id="svg_5" d="m872.636,204.753c0,-0.779 0.389,-1.559 0.779,-1.754c1.753,0.39 4.676,0.584 7.598,0.584c5.845,0 9.743,-0.973 13.64,-2.923c8.962,-5.066 11.885,-14.029 11.885,-25.135c0,-17.927 -8.962,-30.982 -31.175,-30.982c-1.948,0 -6.82,0.195 -8.184,0.975c-0.584,0.389 -1.364,1.364 -1.559,2.727c-0.194,4.482 -0.389,14.614 -0.389,46.18c0,22.213 -0.195,37.021 0.195,46.959c0.584,7.014 1.753,8.573 7.209,9.937c2.923,0.779 7.014,1.17 11.691,1.754c0.779,0.779 0.389,5.066 -0.195,5.65c-5.65,0 -19.291,-0.584 -26.889,-0.584c-8.963,0 -21.045,0.584 -25.527,0.584c-0.778,-0.78 -0.778,-4.871 -0.194,-5.455c4.091,-0.586 7.989,-0.975 10.327,-1.559c4.675,-1.364 5.65,-3.507 6.039,-11.302c0.391,-6.625 0.586,-22.602 0.586,-43.646c0,-22.409 0.194,-35.659 -0.195,-41.698c-0.391,-6.82 -1.559,-9.159 -7.016,-10.327c-2.532,-0.586 -5.65,-1.17 -9.548,-1.559c-0.778,-0.975 -0.194,-4.872 0.39,-5.456c3.118,0 13.834,0.584 22.993,0.584c11.691,0 20.069,-0.389 31.566,-0.389c6.625,0 18.316,1.364 25.914,7.404c6.431,5.066 12.081,13.444 12.081,26.305c0,17.927 -10.522,29.032 -20.654,33.904c-6.82,3.507 -13.834,4.871 -20.459,4.871c-3.313,0 -6.041,-0.195 -8.379,-0.975c-1.166,-0.778 -2.336,-3.701 -2.53,-4.674z" stroke-miterlimit="10" stroke="#0B457B" fill="#ffffff"/>
    <path stroke-width="0" id="svg_6" d="m949.015,251.321c4.286,-0.973 4.871,-2.923 5.455,-9.937c0.391,-6.041 0.391,-23.772 0.391,-44.621c0,-24.357 0.194,-36.632 -0.195,-43.843c-0.195,-5.26 -2.339,-7.014 -5.456,-7.793c-2.923,-0.779 -7.014,-1.559 -11.105,-1.948c-0.975,-0.975 -0.586,-4.677 0.194,-5.456c5.261,0 14.42,0.584 24.552,0.584l43.062,0c8.573,0 15.198,-0.389 18.511,-0.973c0.584,-0.195 1.364,0.779 1.169,1.364c-1.364,4.675 -2.728,17.536 -3.118,28.253c-0.584,0.975 -5.26,1.364 -6.43,0.39c-0.584,-6.236 -1.559,-11.107 -2.923,-14.809c-1.364,-4.286 -3.507,-5.845 -8.378,-6.041c-7.015,-0.389 -24.941,-0.584 -30.593,0c-1.364,0 -2.337,2.338 -2.337,3.313c-0.391,7.404 -0.391,21.823 -0.391,38.97c0,0.389 0.391,0.779 0.78,0.779c5.261,-0.195 13.445,-0.39 21.823,-0.39c29.423,0 40.334,15.198 40.334,32.15c0,14.225 -7.989,26.5 -22.991,32.93c-9.159,3.702 -19.486,5.261 -31.177,5.261c-8.768,0 -31.371,-0.779 -44.036,-0.779c-0.78,-0.584 -0.975,-4.871 -0.195,-5.65c4.479,-0.39 9.741,-0.779 13.054,-1.754zm67.223,-25.134c0,-19.095 -10.522,-29.618 -34.1,-29.618c-3.312,0 -7.989,0 -9.742,0.195c-0.584,0 -0.975,0.779 -0.975,1.364c0,12.275 0,35.657 0.391,43.841c0.194,3.118 1.557,5.65 4.091,7.209c3.118,2.143 8.963,3.118 13.834,3.118c17.928,0 26.501,-9.352 26.501,-26.109z" stroke-miterlimit="10" stroke="#0B457B" fill="#ffffff"/>
    <path stroke-width="0" id="svg_7" d="m1050.724,137.528c4.871,0 15.003,0.779 25.916,0.779l38.385,0c7.405,0 17.536,-0.194 21.629,-0.779c0.194,0.195 0.779,0.779 0.779,0.975c-1.559,5.845 -2.923,18.9 -3.508,26.695c-0.778,0.973 -5.455,0.973 -6.039,0.389c-0.584,-5.65 -1.364,-8.963 -2.143,-11.886c-1.559,-4.675 -3.313,-6.819 -9.743,-7.404c-3.702,-0.194 -27.279,-0.194 -29.812,0c-1.365,0.39 -2.339,2.729 -2.339,3.702c-0.195,10.913 -0.195,32.541 -0.195,41.309c0,0.584 0.389,1.364 0.975,1.364c7.794,0.195 22.798,0.195 29.812,-0.389c4.286,-0.39 5.65,-2.727 6.625,-5.845c0.78,-2.143 1.559,-4.872 2.143,-7.795c1.17,-0.584 5.65,-0.389 6.43,0.586c-0.584,3.896 -1.364,11.496 -1.364,18.316c0,7.209 0.195,12.859 0.391,17.73c-0.975,0.975 -5.652,1.17 -6.625,0.195c-0.586,-4.091 -0.779,-5.65 -1.559,-7.989c-0.78,-2.727 -2.143,-5.261 -6.625,-5.65c-5.845,-0.584 -22.018,-0.584 -29.227,-0.39c-0.391,0 -0.975,0.975 -0.975,1.559c0,8.963 0,29.618 0.389,38.97c0,3.897 2.145,6.625 4.482,7.404c3.898,0.975 20.85,1.169 28.838,1.169c8.379,-0.194 10.911,-1.948 14.418,-6.43c3.118,-3.507 7.211,-11.3 9.743,-17.147c0.975,-0.194 4.871,1.17 5.65,2.145c-0.973,6.039 -5.26,20.848 -8.182,26.694c-1.17,2.143 -2.338,3.118 -12.081,3.118c-16.368,0 -30.397,-0.779 -50.661,-0.779c-13.055,0 -22.798,0.584 -30.786,0.584c-0.78,-0.584 -0.975,-4.676 -0.195,-5.65c6.041,-0.584 11.302,-0.975 14.809,-1.948c4.677,-1.17 6.041,-3.702 6.625,-10.522c0.195,-3.702 0.195,-25.136 0.195,-47.154c0,-17.732 0,-35.073 -0.195,-38.58c-0.389,-7.015 -1.168,-8.768 -5.845,-9.938c-2.532,-0.779 -5.845,-1.364 -10.327,-1.948c-0.977,-0.783 -0.588,-4.485 0.192,-5.46z" stroke-miterlimit="10" stroke="#0B457B" fill="#ffffff"/>
    <path stroke-width="0" id="svg_8" d="m1157.89,137.724c4.677,0 14.418,0.584 24.941,0.584c13.055,0 18.9,-0.584 24.357,-0.584c0.584,0.975 0.584,4.872 -0.195,5.456c-3.507,0.584 -7.209,1.169 -9.353,1.753c-3.897,1.17 -5.261,2.729 -5.456,8.963c-0.389,7.209 -0.194,17.147 -0.194,36.243c0,0.779 0.389,1.753 0.973,1.948c1.364,0.195 4.872,0.389 33.125,0.389c21.434,-0.194 28.838,-0.194 30.591,-0.389c0.586,0 1.17,-0.779 1.17,-1.169c0,-10.133 0,-32.152 -0.39,-39.166c-0.194,-3.118 -1.169,-5.456 -3.896,-6.43c-2.923,-0.975 -6.431,-1.559 -11.497,-2.143c-0.973,-0.779 -0.78,-4.677 0.195,-5.652c4.482,0 14.029,0.779 24.357,0.779c9.743,0 21.043,-0.584 24.161,-0.584c0.584,0.779 0.78,4.677 0,5.456c-4.286,0.584 -7.6,1.169 -10.132,1.948c-4.286,1.364 -5.066,3.507 -5.457,10.522c-0.389,6.819 -0.389,18.316 -0.389,41.503c0,16.952 0,38.386 0.389,45.011c0.584,5.455 1.754,7.598 5.457,8.768c2.727,0.973 6.43,1.559 12.47,2.143c0.584,0.779 0.389,5.066 -0.78,5.65c-5.845,0 -16.173,-0.584 -26.111,-0.584c-9.937,0 -19.68,0.389 -24.746,0.584c-0.779,-0.78 -0.779,-4.676 0,-5.65c5.066,-0.584 7.989,-0.975 11.107,-1.948c3.507,-0.975 4.677,-2.923 5.066,-8.963c0.195,-5.652 0.195,-26.89 0.195,-39.166c0,-0.584 -0.584,-1.364 -1.17,-1.364c-3.702,-0.195 -20.264,-0.195 -30.98,-0.195c-15.199,0 -31.177,0 -33.125,0.195c-0.391,0 -0.584,0.975 -0.584,1.169c0,10.718 0,33.125 0.194,37.218c0.391,6.625 1.17,9.352 6.041,10.716c2.923,0.78 5.846,1.559 11.691,2.339c0.779,0.975 0,5.261 -0.78,5.65c-3.702,0 -12.859,-0.584 -25.33,-0.584c-11.497,0 -22.018,0.584 -25.916,0.584c-0.78,-0.78 -0.78,-4.871 -0.195,-5.65c4.677,-0.584 7.795,-1.17 10.522,-1.754c5.65,-1.753 6.234,-5.261 6.82,-14.223c0,-6.625 0.194,-23.188 0.194,-40.14c0,-18.9 -0.194,-39.555 -0.389,-43.062c-0.391,-5.455 -1.559,-7.6 -5.457,-8.573c-2.923,-0.975 -6.43,-1.364 -11.691,-2.143c-0.778,-0.778 -0.582,-4.676 0.197,-5.455z" stroke-miterlimit="10" stroke="#0B457B" fill="#ffffff"/>
    <path stroke-width="0" id="svg_9" d="m1387.031,258.726c-5.65,0 -17.146,-0.584 -29.032,-0.584c-14.418,0 -24.357,0.584 -29.423,0.584c-0.779,-0.973 -0.584,-4.871 0,-5.65c6.041,-0.584 10.911,-1.17 13.834,-1.948c6.236,-1.17 7.209,-5.067 7.404,-14.029c0.584,-15.199 0.78,-56.897 0.78,-89.243c0,-0.779 -0.78,-1.559 -1.364,-1.559c-3.313,-0.194 -17.732,-0.194 -25.136,0c-3.312,0.195 -5.845,1.559 -8.184,5.456c-2.339,3.702 -4.871,10.716 -7.598,18.121c-0.78,0.586 -5.652,-0.584 -6.041,-1.559c1.559,-8.182 3.507,-23.771 3.897,-32.15c0,-0.389 1.753,-0.973 2.143,-0.78c3.507,1.754 8.573,2.923 15.782,2.923l72.095,0c8.963,0 13.25,-0.389 18.9,-2.923c0.584,0 1.754,0.586 1.948,0.975c-1.948,6.82 -3.507,22.407 -4.48,32.93c-0.586,0.975 -5.652,0.975 -6.236,0.195c-0.584,-6.82 -1.559,-13.64 -3.118,-17.343c-1.559,-3.896 -3.896,-5.455 -7.598,-5.65c-9.159,-0.195 -22.798,-0.195 -27.279,0c-0.584,0.195 -0.975,0.975 -0.975,1.559c0,28.643 0,82.616 0.584,92.554c0.586,6.82 2.143,9.157 6.625,10.327c3.118,0.973 6.431,1.364 13.25,2.143c0.586,0.975 0.196,5.262 -0.778,5.651z" stroke-miterlimit="10" stroke="#0B457B" fill="#ffffff"/>
   </g>
   <g id="svg_10">
    <path stroke-width="0" id="svg_11" d="m521.323,290.357c1.936,0 5.973,0.243 10.33,0.243c5.408,0 7.828,-0.243 10.088,-0.243c0.243,0.404 0.243,2.018 -0.08,2.26c-1.452,0.243 -2.986,0.485 -3.874,0.726c-1.615,0.485 -2.18,1.13 -2.26,3.713c-0.161,2.986 -0.081,7.103 -0.081,15.012c0,0.322 0.161,0.726 0.404,0.806c0.565,0.081 2.018,0.161 13.72,0.161c8.878,-0.08 11.944,-0.08 12.67,-0.161c0.243,0 0.484,-0.322 0.484,-0.484c0,-4.196 0,-13.317 -0.161,-16.221c-0.08,-1.291 -0.484,-2.26 -1.614,-2.664c-1.21,-0.402 -2.662,-0.645 -4.761,-0.887c-0.404,-0.322 -0.322,-1.936 0.08,-2.34c1.856,0 5.811,0.322 10.089,0.322c4.035,0 8.715,-0.243 10.008,-0.243c0.241,0.324 0.322,1.938 0,2.26c-1.776,0.243 -3.148,0.485 -4.198,0.808c-1.775,0.565 -2.097,1.452 -2.26,4.357c-0.161,2.825 -0.161,7.586 -0.161,17.19c0,7.021 0,15.899 0.161,18.643c0.243,2.26 0.728,3.148 2.26,3.631c1.13,0.404 2.664,0.646 5.165,0.887c0.243,0.324 0.161,2.099 -0.322,2.341c-2.421,0 -6.699,-0.243 -10.814,-0.243c-4.116,0 -8.151,0.161 -10.25,0.243c-0.322,-0.324 -0.322,-1.938 0,-2.341c2.099,-0.241 3.309,-0.402 4.6,-0.806c1.453,-0.404 1.938,-1.211 2.099,-3.713c0.08,-2.34 0.08,-11.138 0.08,-16.221c0,-0.243 -0.241,-0.565 -0.484,-0.565c-1.534,-0.081 -8.393,-0.081 -12.831,-0.081c-6.295,0 -12.913,0 -13.72,0.081c-0.161,0 -0.243,0.404 -0.243,0.484c0,4.439 0,13.72 0.081,15.415c0.161,2.744 0.484,3.874 2.501,4.439c1.211,0.322 2.421,0.645 4.843,0.967c0.322,0.404 0,2.18 -0.322,2.341c-1.534,0 -5.326,-0.243 -10.491,-0.243c-4.761,0 -9.12,0.243 -10.734,0.243c-0.322,-0.324 -0.322,-2.018 -0.081,-2.341c1.938,-0.241 3.229,-0.484 4.359,-0.726c2.34,-0.726 2.583,-2.179 2.824,-5.891c0,-2.744 0.081,-9.604 0.081,-16.625c0,-7.828 -0.081,-16.383 -0.161,-17.835c-0.161,-2.26 -0.646,-3.148 -2.26,-3.551c-1.21,-0.402 -2.664,-0.565 -4.843,-0.887c-0.325,-0.324 -0.243,-1.937 0.079,-2.261z" fill="#ffffff"/>
    <path stroke-width="0" id="svg_12" d="m596.775,314.489c-1.371,-2.019 -3.713,-3.068 -6.132,-3.068c-1.776,0 -2.825,0.485 -3.229,0.808c-0.887,0.645 -2.34,3.227 -3.39,5.81c-0.241,0.324 -2.42,-0.887 -2.34,-1.614c0.161,-1.13 1.373,-4.278 1.856,-4.761c3.47,-2.421 8.555,-4.439 10.573,-4.439c3.551,0 6.214,1.614 7.989,4.278c1.373,2.26 1.856,5.084 1.856,7.989c0,4.198 -0.322,10.412 -0.322,13.639c0,1.695 0.646,3.229 3.066,3.229c1.293,0 1.856,-0.081 2.825,-0.404c0.081,0.322 -0.08,2.179 -0.322,2.421c-1.938,2.099 -4.761,2.825 -6.618,2.825c-2.26,0 -3.551,-0.887 -4.116,-2.099c-0.322,-0.484 -0.484,-1.371 -0.645,-2.018c0,-0.08 -0.243,-0.161 -0.324,-0.08c-4.115,2.583 -7.505,4.196 -9.604,4.196c-1.532,0 -3.146,-0.808 -4.439,-2.018c-1.614,-1.776 -2.744,-4.278 -2.744,-7.103c0,-1.534 1.05,-4.035 1.454,-4.6c2.662,-1.452 12.185,-3.713 15.253,-5.245c0.161,-0.081 0.484,-0.565 0.484,-0.808c0.161,-0.726 0.081,-1.614 0.081,-2.179c-0.001,-1.613 -0.244,-3.388 -1.212,-4.759zm0.726,10.167c-2.985,1.05 -8.15,2.664 -9.604,3.713c-0.322,0.161 -0.806,1.695 -0.806,2.583c0,3.148 2.179,5.489 5.649,5.489c1.049,0 2.825,-0.404 4.116,-1.291c0.565,-0.324 0.808,-0.969 0.887,-1.856c0.161,-1.695 0.161,-6.941 0.161,-8.313c0.001,-0.082 -0.24,-0.405 -0.403,-0.325z" fill="#ffffff"/>
    <path stroke-width="0" id="svg_13" d="m608.313,308.112c1.452,0 4.359,0.243 7.829,0.243c3.47,0 7.021,-0.243 8.231,-0.243c0.322,0.243 0.404,1.938 0.161,2.34c-1.21,0.243 -2.421,0.404 -2.986,0.646c-0.645,0.243 -0.726,1.049 -0.645,1.371c1.373,4.602 6.699,18.32 7.264,19.371c0.08,0 0.241,0.08 0.322,0c2.501,-5.328 6.053,-14.367 6.618,-18.402c0.161,-0.887 0.161,-1.856 -1.373,-2.34c-0.806,-0.243 -2.097,-0.484 -3.55,-0.646c-0.243,-0.484 0,-2.018 0.322,-2.34c0.969,0 4.116,0.243 6.94,0.243c2.906,0 5.246,-0.161 7.507,-0.243c0.322,0.322 0.322,1.856 0.08,2.34c-1.21,0.163 -2.097,0.324 -2.905,0.646c-1.453,0.404 -2.421,1.534 -3.148,3.631c-5.73,15.012 -12.186,28.893 -19.047,40.837c-0.969,1.695 -1.936,3.389 -2.501,4.519l-0.565,0.324c-1.13,-0.243 -3.47,-1.454 -4.196,-2.18c-0.081,-0.241 -0.163,-1.129 -0.081,-1.291c2.664,-3.309 8.878,-11.298 11.864,-17.674c0,-0.08 -0.485,-1.13 -0.646,-1.452c-1.775,-4.6 -5.245,-13.558 -7.748,-19.53c-2.097,-5.246 -2.986,-6.699 -5.245,-7.344c-0.808,-0.161 -1.452,-0.322 -2.745,-0.485c-0.241,-0.485 -0.079,-2.18 0.243,-2.341z" fill="#ffffff"/>
    <path stroke-width="0" id="svg_14" d="m665.528,337.569c1.291,-0.322 1.614,-1.049 1.695,-2.42c0.161,-2.26 0.161,-4.763 0.161,-9.767c-3.148,1.534 -5.891,2.26 -9.12,2.26c-2.583,0 -4.922,-0.645 -6.295,-1.856c-1.775,-1.452 -2.421,-3.309 -2.583,-6.375l0,-6.134c-0.08,-1.371 -0.565,-2.097 -1.775,-2.421c-1.049,-0.241 -1.776,-0.322 -2.744,-0.484c-0.243,-0.565 -0.081,-2.018 0.161,-2.34c0.888,0 3.066,0.241 7.183,0.241c3.631,0 5.891,-0.241 6.536,-0.241c0.324,0.322 0.324,2.018 0.163,2.34c-2.825,0.404 -3.309,0.726 -3.39,2.018c-0.081,1.21 -0.161,4.357 -0.081,6.295c0.404,4.357 3.633,5.408 7.103,5.408c2.018,0 3.713,-0.404 4.843,-0.969c-0.081,-2.744 0,-7.507 -0.161,-10.169c0,-1.13 -0.485,-1.695 -1.695,-2.018l-2.905,-0.646c-0.081,-0.404 -0.081,-2.018 0.241,-2.259c1.373,0 4.035,0.241 7.668,0.241c3.148,0 5.084,-0.161 7.424,-0.241c0.163,0.402 0.163,1.855 0,2.259c-0.484,0.161 -1.694,0.324 -2.097,0.485c-1.534,0.241 -2.26,0.645 -2.341,2.501c-0.08,1.938 -0.08,6.295 -0.08,10.008c0,4.357 0.08,9.523 0.08,11.299c0.081,1.936 0.646,2.662 2.099,2.985c0.969,0.243 2.099,0.485 3.148,0.565c0.243,0.243 0,2.099 -0.243,2.341c-1.856,0 -4.922,-0.243 -8.313,-0.243c-2.744,0 -7.101,0.161 -7.989,0.243c-0.324,-0.324 -0.324,-1.938 -0.081,-2.26c1.21,-0.161 2.338,-0.322 3.388,-0.646z" fill="#ffffff"/>
    <path stroke-width="0" id="svg_15" d="m684.571,337.65c1.615,-0.404 2.019,-1.049 2.099,-3.066c0.081,-3.39 0.081,-7.586 0.081,-11.219c0,-3.227 -0.081,-7.666 -0.161,-10.088c-0.081,-1.371 -0.565,-2.097 -1.776,-2.421c-0.969,-0.241 -1.775,-0.322 -2.744,-0.484c-0.161,-0.404 -0.161,-2.018 0.243,-2.34c0.806,0 2.986,0.241 7.101,0.241c4.359,0 6.942,-0.241 7.586,-0.241c0.322,0.322 0.404,2.018 0.081,2.34c-0.969,0.08 -1.615,0.243 -2.583,0.484c-1.05,0.243 -1.615,0.887 -1.695,2.179l0,8.637c0,0.161 0.243,0.402 0.404,0.402l6.618,0c3.148,0 6.214,0.081 7.262,0c0.081,0 0.324,-0.161 0.324,-0.402c0.08,-1.776 -0.161,-7.99 -0.161,-8.474c0,-1.211 -0.404,-1.938 -1.695,-2.26c-0.646,-0.161 -2.018,-0.485 -2.825,-0.565c-0.161,-0.485 -0.081,-2.099 0.243,-2.34c1.371,0 4.035,0.241 7.666,0.241c3.633,0 6.053,-0.161 7.586,-0.241c0.243,0.402 0.243,1.936 0,2.259c-0.484,0.161 -1.695,0.324 -2.34,0.485c-1.614,0.404 -2.179,0.887 -2.26,2.583c-0.081,1.856 -0.081,6.053 -0.081,10.088c0,4.439 0.081,9.2 0.163,11.218c0.08,1.938 1.049,2.503 2.501,2.905l2.905,0.565c0.243,0.161 0,2.099 -0.322,2.341c-2.26,0 -4.6,-0.243 -7.909,-0.243c-2.905,0 -7.264,0.161 -7.909,0.243c-0.243,-0.243 -0.243,-2.018 -0.081,-2.26c0.969,-0.161 2.018,-0.322 2.744,-0.565c1.373,-0.322 1.776,-1.13 1.776,-2.501c0.08,-2.664 0.08,-6.215 0,-9.685c0,-0.161 -0.081,-0.243 -0.243,-0.243l-13.961,0c-0.161,0 -0.324,0.243 -0.324,0.404l0,9.12c0.081,1.856 0.728,2.501 2.099,2.905l2.744,0.565c0.161,0.243 0,1.936 -0.322,2.26c-0.969,0 -3.955,-0.243 -7.829,-0.243c-3.227,0 -6.536,0.243 -7.586,0.243c-0.322,-0.243 -0.322,-2.099 -0.08,-2.341l2.661,-0.486z" fill="#ffffff"/>
    <path stroke-width="0" id="svg_16" d="m756.394,323.446c0,6.214 -2.501,11.621 -7.505,14.769c-2.179,1.452 -5.973,2.986 -9.361,2.986c-11.784,0 -16.06,-8.959 -16.06,-17.272c0,-6.375 2.905,-10.653 7.021,-13.478c2.905,-1.855 6.779,-3.227 10.571,-3.227c9.685,0.001 15.334,7.183 15.334,16.222zm-21.952,-11.944c-2.099,1.371 -4.116,4.278 -4.116,10.41c0,9.524 4.763,15.98 11.219,15.98c1.694,0 3.55,-0.404 4.922,-1.695c2.179,-2.018 3.066,-5.246 3.066,-10.169c0,-9.361 -4.357,-15.656 -11.218,-15.656c-1.29,0 -2.824,0.404 -3.873,1.13z" fill="#ffffff"/>
    <path stroke-width="0" id="svg_17" d="m795.126,320.945l0,0.806c-0.081,0.887 -0.808,3.631 -1.211,3.794c-0.726,0.322 -14.043,0.645 -15.738,0.565l-0.08,-0.728c0.08,-1.049 0.645,-4.035 1.049,-4.035c3.793,0 13.638,-0.322 15.98,-0.402z" fill="#ffffff"/>
    <path stroke-width="0" id="svg_18" d="m818.281,337.569c1.695,-0.484 1.695,-0.806 1.776,-2.905c0.161,-2.421 0.161,-7.666 0.161,-11.299c0,-3.227 0.08,-7.183 -0.161,-10.249c-0.081,-1.373 -0.565,-1.936 -1.776,-2.26c-0.969,-0.241 -1.775,-0.322 -2.744,-0.484c-0.243,-0.646 -0.161,-1.938 0.161,-2.34c0.887,0 3.955,0.241 7.344,0.241l20.58,0c3.148,0 5.81,-0.08 7.909,-0.241c0.243,0.322 0.243,2.018 0,2.259c-0.484,0.161 -1.614,0.324 -2.26,0.485c-1.534,0.241 -2.421,0.726 -2.421,2.501c-0.08,1.938 -0.08,6.376 -0.08,10.088c0,4.278 0.08,9.281 0.161,11.299c0,1.938 0.887,2.503 2.34,2.905c1.049,0.243 1.776,0.324 2.986,0.565c0.243,0.243 0.081,1.938 -0.243,2.341c-2.34,0 -4.761,-0.243 -7.827,-0.243c-2.744,0 -6.86,0.161 -7.425,0.243c-0.404,-0.161 -0.565,-1.938 -0.243,-2.26l2.421,-0.565c1.211,-0.484 1.695,-1.049 1.695,-2.664c0.081,-2.662 0.081,-8.311 0.081,-11.459c0,-2.099 -0.081,-9.443 -0.243,-11.46c0,-0.243 -0.161,-0.565 -0.485,-0.565l-12.913,0c-0.322,0 -0.564,0.322 -0.645,1.049c-0.081,1.13 -0.161,7.666 -0.161,10.33c0,3.309 0.08,10.169 0.08,11.944c0,1.856 0.646,2.503 2.099,2.825l2.825,0.565c0.241,0.243 0.08,1.936 -0.322,2.26c-0.969,0 -4.924,-0.243 -7.99,-0.243c-3.551,0 -6.538,0.243 -7.586,0.243c-0.404,-0.324 -0.322,-2.018 -0.081,-2.341c1.213,-0.161 2.261,-0.323 2.987,-0.565z" fill="#ffffff"/>
    <path stroke-width="0" id="svg_19" d="m854.757,310.05c2.825,-0.404 7.909,-2.099 10.814,-3.713c0.163,-0.161 0.646,0.404 0.646,0.565c-0.161,1.049 -0.243,3.631 -0.243,5.084c0,0.161 0.322,0.243 0.404,0.161c5.408,-3.713 8.878,-4.923 11.54,-4.923c3.229,0 6.134,1.614 7.99,3.713c2.744,3.066 3.794,7.183 3.794,10.573c0,6.779 -2.664,11.298 -7.021,14.849c-3.955,3.148 -9.443,4.843 -13.237,4.843c-0.806,0 -2.097,-0.243 -3.227,-0.485c-0.081,-0.08 -0.404,0.161 -0.404,0.243c0,5.488 0.081,9.765 0.243,12.59c0.08,1.775 0.565,2.662 2.421,2.986c1.049,0.241 3.148,0.484 4.841,0.645c0.243,0.404 0.081,2.099 -0.322,2.34l-3.227,0c-7.99,0 -12.752,0.728 -15.899,0.969c-0.243,-0.404 -0.322,-2.018 0,-2.421l3.47,-0.806c1.614,-0.565 1.936,-1.373 2.179,-3.955c0.081,-2.421 0.161,-7.344 0.243,-20.418c0.08,-10.653 0,-14.124 -0.161,-16.948c-0.081,-1.534 -0.404,-2.26 -1.211,-2.744c-0.887,-0.485 -2.179,-0.808 -3.792,-1.05c-0.245,-0.405 -0.164,-1.776 0.159,-2.098zm11.943,4.6c-0.404,0.241 -0.806,1.049 -0.806,1.695c-0.161,2.018 -0.081,12.589 -0.081,15.333c0.081,1.776 0.726,2.986 1.614,3.713c1.615,1.291 3.713,1.938 6.377,1.938c1.695,0 3.792,-0.565 5.649,-2.179c2.421,-2.019 3.713,-5.811 3.713,-10.412c0,-3.631 -0.888,-7.103 -2.744,-9.443c-1.856,-2.26 -4.196,-3.227 -6.86,-3.227c-2.262,-0.001 -4.844,0.967 -6.862,2.582z" fill="#ffffff"/>
    <path stroke-width="0" id="svg_20" d="m929.322,323.446c0,6.214 -2.501,11.621 -7.505,14.769c-2.179,1.452 -5.973,2.986 -9.361,2.986c-11.784,0 -16.06,-8.959 -16.06,-17.272c0,-6.375 2.905,-10.653 7.021,-13.478c2.905,-1.855 6.779,-3.227 10.571,-3.227c9.685,0.001 15.334,7.183 15.334,16.222zm-21.952,-11.944c-2.097,1.371 -4.116,4.278 -4.116,10.41c0,9.524 4.763,15.98 11.219,15.98c1.694,0 3.55,-0.404 4.923,-1.695c2.179,-2.018 3.066,-5.246 3.066,-10.169c0,-9.361 -4.357,-15.656 -11.218,-15.656c-1.291,0 -2.825,0.404 -3.874,1.13z" fill="#ffffff"/>
    <path stroke-width="0" id="svg_21" d="m937.469,337.569c1.695,-0.564 1.856,-1.291 1.856,-3.792c0,-3.551 0.081,-7.344 0.081,-11.138c0,-3.309 0,-6.456 -0.161,-9.441c-0.081,-1.373 -0.646,-2.018 -1.856,-2.341c-1.05,-0.241 -1.695,-0.322 -2.664,-0.484c-0.161,-0.565 -0.08,-2.018 0.243,-2.34c0.806,0 2.986,0.241 7.101,0.241c4.359,0 7.103,-0.241 7.748,-0.241c0.324,0.322 0.324,2.018 0.161,2.34c-1.049,0.08 -1.856,0.243 -2.824,0.484c-1.13,0.243 -1.695,0.887 -1.776,2.503c0,3.066 0,12.024 -0.08,15.414c0,0.161 0.241,0.485 0.404,0.322c2.259,-2.018 11.701,-11.863 13.88,-14.769c0.243,-0.322 0.404,-0.645 0.404,-1.129c0,-1.373 -0.243,-2.018 -1.534,-2.341c-0.564,-0.161 -1.452,-0.322 -2.42,-0.484c-0.163,-0.404 0,-2.099 0.322,-2.34c1.452,0.08 3.954,0.241 6.86,0.241c2.744,0 5.971,-0.161 7.505,-0.241c0.161,0.402 0.243,1.855 0,2.259c-1.291,0.243 -2.34,0.485 -3.148,0.726c-1.049,0.404 -1.373,1.453 -1.373,2.18c-0.161,5.002 0,18.078 0.163,21.709c0.08,1.291 0.564,2.018 1.614,2.421c1.21,0.404 2.583,0.645 3.792,0.806c0.243,0.161 -0.08,2.099 -0.322,2.341c-1.775,0 -5.246,-0.243 -8.313,-0.243c-2.744,0 -5.569,0.161 -6.375,0.243c-0.243,-0.243 -0.243,-1.776 -0.163,-2.018c3.148,-0.889 3.633,-1.534 3.633,-2.825c0.08,-3.551 0,-11.783 0,-17.19c0,-0.243 -0.243,-0.404 -0.404,-0.243c-2.179,2.583 -11.54,12.268 -13.961,14.85c-0.324,0.322 -0.404,0.726 -0.404,1.373c0,2.34 0.484,2.824 1.936,3.227l2.986,0.565c0.161,0.161 -0.08,2.018 -0.322,2.26c-1.049,0 -4.843,-0.243 -7.99,-0.243c-2.583,0 -6.134,0.243 -7.505,0.243c-0.243,-0.243 -0.243,-2.099 0,-2.341c0.97,-0.079 2.341,-0.322 2.906,-0.564z" fill="#ffffff"/>
    <path stroke-width="0" id="svg_22" d="m987.5,338.458c2.825,0 5.811,-1.695 5.811,-6.699c0,-3.713 -2.744,-6.538 -7.425,-6.538c-1.452,0 -2.583,0.081 -3.39,0.161c0.324,-0.967 0.726,-2.662 0.969,-3.55c0.726,0.161 1.775,0.161 2.825,0.161c3.47,0 5.569,-1.614 5.569,-5.326c0,-5.004 -2.986,-6.941 -5.811,-6.941c-4.035,0 -5.649,2.906 -7.425,7.586c-0.241,0.243 -2.018,-0.161 -2.179,-0.484c0.161,-1.291 0.969,-6.456 1.049,-7.829c2.18,-0.402 6.215,-1.775 10.089,-1.775c6.779,0 10.814,2.662 10.814,7.99c0,3.954 -3.148,6.053 -5.971,7.101c-0.081,0.081 -0.081,0.161 0,0.243c4.276,0.969 8.07,3.309 8.07,7.748c0,8.231 -8.716,10.895 -14.769,10.895c-3.713,0 -6.86,-0.969 -8.635,-1.938c-0.646,-1.049 -1.695,-6.053 -1.776,-7.909c0.243,-0.243 1.776,-0.969 2.099,-0.808c2.742,6.782 7.1,7.912 10.086,7.912z" fill="#ffffff"/>
    <path stroke-width="0" id="svg_23" d="m1007.754,337.569c1.291,-0.322 1.615,-1.049 1.695,-2.018c0.081,-2.583 0.081,-7.586 0.081,-12.266c0,-4.196 0,-8.313 -0.081,-9.765c0,-0.969 -0.161,-1.534 -0.969,-2.018c-0.887,-0.565 -2.42,-0.887 -3.631,-1.13c-0.404,-0.243 -0.322,-1.775 0,-2.099c5.326,-0.161 11.864,-0.484 16.707,-0.484c3.954,0 10.814,1.049 10.814,7.586c0,3.148 -2.179,5.81 -5.649,6.94c-0.081,0 -0.163,0.161 0,0.243c4.276,0.969 7.585,3.389 7.585,7.828c0,4.278 -2.985,7.103 -6.698,8.716c-3.068,1.291 -6.295,1.614 -10.25,1.614c-2.662,0 -9.926,-0.241 -12.752,-0.241c-0.402,-0.404 -0.484,-1.856 -0.08,-2.26c1.695,-0.242 2.501,-0.404 3.228,-0.646zm18.563,-20.579c0,-5.165 -4.198,-6.86 -10.089,-6.538c-0.322,0 -0.645,0.243 -0.645,0.485c-0.081,0.969 -0.081,7.101 -0.161,10.653c0,0.081 0.08,0.404 0.322,0.404l3.955,0c2.662,0 3.711,-0.322 4.519,-0.808c1.291,-0.806 2.099,-2.501 2.099,-4.196zm-10.492,7.505c-0.243,0 -0.404,0.243 -0.404,0.404c0,4.439 0,7.586 0.08,9.846c0.081,0.806 0.565,1.936 1.291,2.421c1.05,0.565 3.068,0.887 3.794,0.887c4.278,0 7.021,-2.018 7.021,-6.376c0.001,-4.761 -3.55,-7.262 -11.782,-7.182z" fill="#ffffff"/>
    <path stroke-width="0" id="svg_24" d="m1072.959,323.446c0,6.214 -2.501,11.621 -7.505,14.769c-2.179,1.452 -5.973,2.986 -9.361,2.986c-11.784,0 -16.06,-8.959 -16.06,-17.272c0,-6.375 2.905,-10.653 7.021,-13.478c2.905,-1.855 6.779,-3.227 10.571,-3.227c9.685,0.001 15.334,7.183 15.334,16.222zm-21.952,-11.944c-2.097,1.371 -4.116,4.278 -4.116,10.41c0,9.524 4.763,15.98 11.219,15.98c1.694,0 3.55,-0.404 4.922,-1.695c2.179,-2.018 3.066,-5.246 3.066,-10.169c0,-9.361 -4.357,-15.656 -11.218,-15.656c-1.29,0 -2.824,0.404 -3.873,1.13z" fill="#ffffff"/>
    <path stroke-width="0" id="svg_25" d="m1092.566,307.225c0.243,0 0.565,0.161 0.726,0.645c2.825,7.345 9.281,24.212 11.138,28.086c0.322,0.565 0.887,0.969 1.371,0.969l3.633,-0.081c0.161,0.081 0.322,0.485 0.241,0.646c-0.806,2.26 -2.34,7.183 -3.228,13.235c-0.243,0.404 -2.34,0.484 -2.583,0.161c-0.243,-3.874 -0.726,-7.828 -1.373,-9.604c-0.241,-0.726 -0.726,-1.049 -1.371,-1.049l-18.239,0c-0.565,0 -1.13,0.404 -1.291,0.808c-0.726,1.694 -1.615,5.971 -2.017,9.604c-0.161,0.402 -2.421,0.402 -2.583,0.241c-0.243,-4.68 -1.454,-10.653 -2.18,-13.317c0,-0.08 0.163,-0.322 0.243,-0.402c0,0 2.664,-0.161 3.066,-0.161c0.485,-0.081 0.969,-0.404 1.13,-0.808c2.421,-5.408 7.264,-18.239 8.716,-22.355c0.404,-1.13 0.404,-1.695 -0.161,-3.227c-0.081,-0.163 0.081,-0.404 0.161,-0.565c0.889,-0.727 4.197,-2.826 4.601,-2.826zm-9.522,29.295c-0.081,0.243 0.161,0.485 0.241,0.485l14.043,0c0.081,0 0.324,-0.324 0.243,-0.485c-1.21,-3.39 -5.73,-15.738 -7.344,-19.369c-0.161,-0.161 -0.404,-0.161 -0.565,0c-0.727,2.26 -6.135,17.513 -6.618,19.369z" fill="#ffffff"/>
    <path stroke-width="0" id="svg_26" d="m1126.377,341.201c-5.165,0 -8.878,-1.938 -11.54,-5.569c-2.018,-2.905 -3.148,-6.779 -3.148,-10.814c0,-5.973 2.744,-11.056 8.15,-14.285c3.39,-2.099 7.748,-3.309 10.25,-3.309c3.227,0 5.084,0.565 6.618,1.21c1.049,0.565 2.099,1.291 2.421,2.099c0,0.243 -0.081,0.969 -0.161,1.291c-0.485,1.21 -2.018,2.986 -2.744,3.309c-0.161,0.081 -0.646,0.081 -0.808,0c-1.695,-1.695 -4.761,-4.278 -8.878,-4.278c-6.053,0 -8.635,5.408 -8.635,10.895c0,3.794 0.969,7.507 2.986,9.926c2.421,2.986 5.406,4.198 9.119,4.198c2.825,0 6.134,-1.05 9.2,-3.874c0.081,0 0.404,0.241 0.404,0.484c0,0.645 -0.241,2.099 -0.404,2.34c-3.952,4.844 -9.439,6.377 -12.83,6.377z" fill="#ffffff"/>
    <path stroke-width="0" id="svg_27" d="m1152.28,337.569c1.856,-0.402 2.26,-1.452 2.341,-4.196c0.161,-4.439 0.161,-12.025 0.161,-21.548c0,-0.322 -0.243,-0.645 -0.485,-0.645c-0.967,-0.081 -3.389,-0.081 -4.358,0c-0.646,0.08 -1.614,0.564 -2.179,1.452c-0.887,1.291 -1.938,3.55 -2.825,6.053c-0.243,0.161 -2.26,-0.243 -2.421,-0.565c0.565,-2.421 1.05,-7.829 1.291,-10.33c0,-0.161 0.808,-0.322 0.887,-0.243c1.05,0.565 2.503,0.726 4.763,0.726l17.754,0c2.342,0 4.116,-0.161 5.812,-0.726c0.161,0 0.565,0.161 0.726,0.322c-0.646,2.18 -1.211,7.425 -1.373,10.493c-0.241,0.402 -2.179,0.402 -2.421,0.08c-0.161,-1.856 -0.806,-4.357 -1.21,-5.488c-0.323,-0.808 -1.049,-1.614 -2.099,-1.614c-0.967,-0.081 -4.115,-0.161 -5.488,-0.081c-0.161,0.081 -0.323,0.404 -0.323,0.565c0,8.393 0,20.177 0.243,23.162c0.08,1.05 0.484,2.099 1.855,2.503c0.889,0.243 2.18,0.404 4.116,0.645c0.322,0.324 0.081,2.099 -0.323,2.341c-2.664,-0.081 -7.344,-0.243 -9.685,-0.243c-2.744,0 -6.697,0.243 -8.635,0.243c-0.241,-0.324 -0.323,-2.099 0,-2.341c1.616,-0.161 2.909,-0.323 3.876,-0.565z" fill="#ffffff"/>
    <path stroke-width="0" id="svg_28" d="m1180.118,337.569c1.291,-0.322 1.615,-1.049 1.695,-2.018c0.081,-2.583 0.081,-7.586 0.081,-12.266c0,-4.196 0,-8.313 -0.081,-9.765c0,-0.969 -0.161,-1.534 -0.969,-2.018c-0.887,-0.565 -2.42,-0.887 -3.631,-1.13c-0.404,-0.243 -0.322,-1.775 0,-2.099c5.326,-0.161 11.864,-0.484 16.707,-0.484c3.954,0 10.814,1.049 10.814,7.586c0,3.148 -2.179,5.81 -5.649,6.94c-0.081,0 -0.163,0.161 0,0.243c4.276,0.969 7.585,3.389 7.585,7.828c0,4.278 -2.985,7.103 -6.697,8.716c-3.068,1.291 -6.295,1.614 -10.25,1.614c-2.662,0 -9.926,-0.241 -12.751,-0.241c-0.402,-0.404 -0.484,-1.856 -0.08,-2.26c1.694,-0.242 2.5,-0.404 3.226,-0.646zm18.563,-20.579c0,-5.165 -4.198,-6.86 -10.089,-6.538c-0.323,0 -0.645,0.243 -0.645,0.485c-0.081,0.969 -0.081,7.101 -0.161,10.653c0,0.081 0.08,0.404 0.323,0.404l3.955,0c2.662,0 3.711,-0.322 4.519,-0.808c1.291,-0.806 2.098,-2.501 2.098,-4.196zm-10.491,7.505c-0.243,0 -0.404,0.243 -0.404,0.404c0,4.439 0,7.586 0.08,9.846c0.081,0.806 0.565,1.936 1.291,2.421c1.05,0.565 3.068,0.887 3.794,0.887c4.278,0 7.021,-2.018 7.021,-6.376c0.001,-4.761 -3.551,-7.262 -11.782,-7.182z" fill="#ffffff"/>
    <path stroke-width="0" id="svg_29" d="m1240.079,332.969c0.08,0.565 -0.243,1.938 -0.404,2.18c-3.551,4.035 -9.12,6.053 -12.833,6.053c-4.196,0 -7.424,-1.373 -9.845,-3.874c-3.309,-3.309 -4.6,-8.233 -4.6,-12.833c0,-7.101 2.985,-11.863 7.101,-14.608c2.503,-1.614 6.134,-2.662 8.717,-2.662c7.827,0 10.653,6.94 11.299,11.46c0.08,0.322 0.402,0.645 1.21,0.887c0.081,0.322 -0.404,1.695 -0.645,1.856c-3.39,0.969 -14.367,1.614 -21.146,1.775c-0.323,0.081 -0.484,0.485 -0.484,0.889c0.161,2.744 1.371,6.132 3.309,8.231c2.421,2.501 5.165,3.551 8.796,3.551c3.229,0 6.215,-0.969 9.2,-3.39c0.082,0.082 0.243,0.244 0.325,0.485zm-21.468,-13.397c0,0.161 0.161,0.565 0.404,0.565c2.583,0.161 12.105,-0.161 13.719,-0.484c0.161,-0.163 0.404,-0.404 0.404,-0.726c-0.404,-4.036 -3.066,-8.637 -7.425,-8.637c-3.875,0.001 -6.698,3.552 -7.102,9.282z" fill="#ffffff"/>
    <path stroke-width="0" id="svg_30" d="m1247.017,337.65c1.614,-0.404 2.018,-1.049 2.097,-3.066c0.081,-3.39 0.081,-7.586 0.081,-11.219c0,-3.227 -0.081,-7.666 -0.161,-10.088c-0.081,-1.371 -0.565,-2.097 -1.776,-2.421c-0.969,-0.241 -1.775,-0.322 -2.744,-0.484c-0.161,-0.404 -0.161,-2.018 0.243,-2.34c0.806,0 2.986,0.241 7.101,0.241c4.359,0 6.942,-0.241 7.586,-0.241c0.322,0.322 0.404,2.018 0.081,2.34c-0.969,0.08 -1.615,0.243 -2.583,0.484c-1.05,0.243 -1.615,0.887 -1.695,2.179l0,8.637c0,0.161 0.243,0.402 0.404,0.402l6.618,0c3.148,0 6.214,0.081 7.262,0c0.081,0 0.324,-0.161 0.324,-0.402c0.08,-1.776 -0.161,-7.99 -0.161,-8.474c0,-1.211 -0.404,-1.938 -1.695,-2.26c-0.646,-0.161 -2.018,-0.485 -2.825,-0.565c-0.161,-0.485 -0.08,-2.099 0.243,-2.34c1.371,0 4.035,0.241 7.666,0.241s6.052,-0.161 7.586,-0.241c0.243,0.402 0.243,1.936 0,2.259c-0.484,0.161 -1.695,0.324 -2.34,0.485c-1.615,0.404 -2.179,0.887 -2.26,2.583c-0.081,1.856 -0.081,6.053 -0.081,10.088c0,4.439 0.081,9.2 0.163,11.218c0.08,1.938 1.049,2.503 2.501,2.905l2.905,0.565c0.243,0.161 0,2.099 -0.323,2.341c-2.26,0 -4.6,-0.243 -7.909,-0.243c-2.905,0 -7.264,0.161 -7.909,0.243c-0.243,-0.243 -0.243,-2.018 -0.081,-2.26c0.969,-0.161 2.018,-0.322 2.744,-0.565c1.373,-0.322 1.776,-1.13 1.776,-2.501c0.08,-2.664 0.08,-6.215 0,-9.685c0,-0.161 -0.081,-0.243 -0.243,-0.243l-13.961,0c-0.161,0 -0.324,0.243 -0.324,0.404l0,9.12c0.081,1.856 0.726,2.501 2.099,2.905l2.744,0.565c0.161,0.243 0,1.936 -0.322,2.26c-0.969,0 -3.955,-0.243 -7.829,-0.243c-3.228,0 -6.536,0.243 -7.585,0.243c-0.324,-0.243 -0.324,-2.099 -0.081,-2.341l2.664,-0.486z" fill="#ffffff"/>
    <path stroke-width="0" id="svg_31" d="m1287.445,337.65c1.614,-0.404 2.018,-1.049 2.097,-3.066c0.081,-3.39 0.081,-7.586 0.081,-11.219c0,-3.227 -0.081,-7.666 -0.161,-10.088c-0.081,-1.371 -0.565,-2.097 -1.776,-2.421c-0.969,-0.241 -1.775,-0.322 -2.744,-0.484c-0.161,-0.404 -0.161,-2.018 0.243,-2.34c0.806,0 2.986,0.241 7.101,0.241c4.359,0 6.942,-0.241 7.586,-0.241c0.322,0.322 0.404,2.018 0.081,2.34c-0.969,0.08 -1.615,0.243 -2.583,0.484c-1.05,0.243 -1.615,0.887 -1.695,2.179l0,8.637c0,0.161 0.243,0.402 0.404,0.402l6.618,0c3.148,0 6.214,0.081 7.262,0c0.081,0 0.324,-0.161 0.324,-0.402c0.08,-1.776 -0.161,-7.99 -0.161,-8.474c0,-1.211 -0.404,-1.938 -1.695,-2.26c-0.646,-0.161 -2.017,-0.485 -2.825,-0.565c-0.161,-0.485 -0.08,-2.099 0.243,-2.34c1.371,0 4.035,0.241 7.666,0.241s6.053,-0.161 7.586,-0.241c0.243,0.402 0.243,1.936 0,2.259c-0.484,0.161 -1.695,0.324 -2.34,0.485c-1.615,0.404 -2.179,0.887 -2.26,2.583c-0.081,1.856 -0.081,6.053 -0.081,10.088c0,4.439 0.081,9.2 0.163,11.218c0.08,1.938 1.049,2.503 2.501,2.905l2.905,0.565c0.243,0.161 0,2.099 -0.322,2.341c-2.26,0 -4.6,-0.243 -7.909,-0.243c-2.905,0 -7.264,0.161 -7.909,0.243c-0.243,-0.243 -0.243,-2.018 -0.081,-2.26c0.969,-0.161 2.017,-0.322 2.744,-0.565c1.373,-0.322 1.776,-1.13 1.776,-2.501c0.08,-2.664 0.08,-6.215 0,-9.685c0,-0.161 -0.081,-0.243 -0.243,-0.243l-13.961,0c-0.161,0 -0.324,0.243 -0.324,0.404l0,9.12c0.081,1.856 0.726,2.501 2.099,2.905l2.744,0.565c0.161,0.243 0,1.936 -0.322,2.26c-0.969,0 -3.955,-0.243 -7.829,-0.243c-3.227,0 -6.536,0.243 -7.585,0.243c-0.324,-0.243 -0.324,-2.099 -0.081,-2.341l2.663,-0.486z" fill="#ffffff"/>
    <path stroke-width="0" id="svg_32" d="m1341.835,314.489c-1.371,-2.019 -3.713,-3.068 -6.132,-3.068c-1.776,0 -2.825,0.485 -3.229,0.808c-0.887,0.645 -2.34,3.227 -3.39,5.81c-0.241,0.324 -2.42,-0.887 -2.34,-1.614c0.161,-1.13 1.373,-4.278 1.856,-4.761c3.47,-2.421 8.555,-4.439 10.573,-4.439c3.55,0 6.214,1.614 7.989,4.278c1.373,2.26 1.856,5.084 1.856,7.989c0,4.198 -0.322,10.412 -0.322,13.639c0,1.695 0.646,3.229 3.068,3.229c1.29,0 1.855,-0.081 2.824,-0.404c0.081,0.322 -0.08,2.179 -0.323,2.421c-1.938,2.099 -4.761,2.825 -6.618,2.825c-2.26,0 -3.551,-0.887 -4.116,-2.099c-0.322,-0.484 -0.484,-1.371 -0.645,-2.018c0,-0.08 -0.243,-0.161 -0.324,-0.08c-4.115,2.583 -7.505,4.196 -9.604,4.196c-1.532,0 -3.148,-0.808 -4.437,-2.018c-1.615,-1.776 -2.745,-4.278 -2.745,-7.103c0,-1.534 1.05,-4.035 1.453,-4.6c2.664,-1.452 12.186,-3.713 15.254,-5.245c0.161,-0.081 0.484,-0.565 0.484,-0.808c0.161,-0.726 0.081,-1.614 0.081,-2.179c-0.002,-1.613 -0.244,-3.388 -1.213,-4.759zm0.726,10.167c-2.985,1.05 -8.15,2.664 -9.604,3.713c-0.323,0.161 -0.806,1.695 -0.806,2.583c0,3.148 2.179,5.489 5.649,5.489c1.05,0 2.825,-0.404 4.116,-1.291c0.565,-0.324 0.806,-0.969 0.887,-1.856c0.161,-1.695 0.161,-6.941 0.161,-8.313c0.001,-0.082 -0.242,-0.405 -0.403,-0.325z" fill="#ffffff"/>
    <path stroke-width="0" id="svg_33" d="m1390.737,340.475c-1.938,0 -4.196,-0.243 -7.829,-0.243c-3.551,0 -5.971,0.161 -7.989,0.243c-0.243,-0.404 -0.243,-1.938 0,-2.341c1.21,-0.161 2.018,-0.322 2.744,-0.484c1.453,-0.404 1.856,-1.049 1.856,-2.583c0.08,-3.47 0.08,-5.569 0.08,-8.796c-2.501,0.161 -3.792,0.726 -5.569,2.986c-2.018,2.583 -5.326,7.344 -7.424,9.441c-1.05,0.969 -2.664,2.018 -7.99,2.018c-0.969,0 -1.938,-0.08 -2.583,-0.161c-0.404,-0.322 -0.484,-2.26 -0.081,-2.26c3.551,-0.241 4.6,-1.29 6.941,-4.115c1.291,-1.453 2.179,-2.664 3.713,-4.439c1.21,-1.373 2.985,-2.986 4.115,-3.39c0.081,-0.08 0.081,-0.241 0,-0.322c-5.084,-0.887 -8.474,-3.874 -8.474,-8.635c0,-3.631 2.26,-6.699 6.456,-8.233c2.421,-0.967 5.73,-1.291 10.653,-1.291c3.148,0 7.91,0.163 10.895,0.243c0.404,0.161 -0.08,1.938 -0.322,2.34c-0.806,0.163 -2.662,0.243 -3.631,0.404c-0.565,0.081 -0.726,0.565 -0.726,0.969c-0.081,1.938 0,7.264 0,11.783c0,4.439 -0.081,9.604 0.08,11.299c0.081,1.453 0.243,2.179 2.26,2.744c0.808,0.161 1.695,0.322 2.986,0.484c0.243,0.322 0.162,1.935 -0.161,2.339zm-11.137,-16.625c0,-3.633 0,-8.635 -0.08,-11.783c0,-0.565 -0.243,-1.05 -0.565,-1.13c-0.808,-0.161 -2.18,-0.243 -2.744,-0.243c-5.165,0 -7.506,2.503 -7.506,5.811c-0.001,5.246 5.003,7.345 10.895,7.345z" fill="#ffffff"/>
    <path stroke-width="0" id="svg_34" d="m523.663,405.221c1.13,-0.243 1.695,-0.808 1.776,-2.099c0.161,-1.13 0.161,-7.505 0.161,-12.105c0,-4.278 -0.161,-9.2 -0.161,-10.249c-0.081,-1.291 -0.646,-2.019 -1.856,-2.341c-1.05,-0.241 -1.695,-0.322 -2.664,-0.484c-0.161,-0.565 -0.081,-2.018 0.243,-2.34c0.806,0 2.986,0.241 7.101,0.241c4.359,0 7.103,-0.241 7.748,-0.241c0.322,0.322 0.322,2.018 0.161,2.34c-1.049,0.08 -1.856,0.243 -2.824,0.484c-1.13,0.243 -1.695,0.887 -1.776,2.179l0,9.846c3.148,-0.08 4.681,-0.565 5.65,-1.614c1.13,-1.13 2.421,-3.631 3.309,-5.488c3.631,-7.829 6.214,-8.555 8.313,-8.555c1.291,0 2.259,0.484 2.905,1.291c0.161,0.726 -0.565,4.357 -0.888,5.408c-0.081,0.241 -0.322,0.402 -0.565,0.241c-1.211,-0.484 -2.744,-0.887 -3.47,-0.887c-1.291,0 -2.421,0.565 -4.198,4.035c-1.13,2.341 -2.662,4.843 -3.792,5.891c1.13,0.485 2.34,1.695 2.986,2.583c2.097,2.906 4.439,6.456 6.536,9.2c1.938,2.503 3.068,2.825 7.021,3.068c0.243,0.404 0.081,2.018 -0.161,2.26c-1.049,0.161 -3.954,0.402 -6.94,0.402c-2.26,0 -3.713,-0.484 -5.246,-2.42c-2.26,-2.986 -3.792,-5.489 -6.456,-9.604c-1.371,-2.26 -2.744,-3.633 -5.004,-3.713c0,3.148 0,7.989 0.161,10.33c0.081,1.291 0.646,2.018 1.938,2.34c0.969,0.243 1.856,0.322 2.905,0.484c0.161,0.565 -0.08,2.018 -0.322,2.341c-0.887,0 -5.973,-0.243 -7.103,-0.243c-2.905,0 -7.666,0.243 -8.313,0.243c-0.322,-0.324 -0.322,-2.018 -0.161,-2.341c1.05,-0.079 2.017,-0.241 2.986,-0.483z" fill="#ffffff"/>
    <path stroke-width="0" id="svg_35" d="m589.03,391.017c0,6.214 -2.501,11.621 -7.505,14.769c-2.179,1.452 -5.973,2.986 -9.361,2.986c-11.784,0 -16.06,-8.959 -16.06,-17.272c0,-6.375 2.905,-10.653 7.021,-13.478c2.905,-1.856 6.779,-3.227 10.571,-3.227c9.685,0 15.334,7.183 15.334,16.222zm-21.952,-11.944c-2.097,1.371 -4.116,4.278 -4.116,10.41c0,9.524 4.763,15.98 11.219,15.98c1.694,0 3.55,-0.404 4.922,-1.695c2.179,-2.018 3.066,-5.246 3.066,-10.169c0,-9.361 -4.357,-15.656 -11.218,-15.656c-1.29,0 -2.824,0.404 -3.873,1.13z" fill="#ffffff"/>
    <path stroke-width="0" id="svg_36" d="m598.468,401.751c0.243,-3.794 0.726,-15.656 0.726,-20.903c-0.08,-1.291 -0.806,-2.099 -2.018,-2.421c-1.049,-0.241 -1.775,-0.322 -2.744,-0.484c-0.161,-0.565 -0.08,-2.018 0.243,-2.34c0.806,0 3.55,0.241 6.94,0.241c1.13,0 2.905,-0.08 3.551,-0.161c0.243,1.211 0.726,2.018 1.21,2.986c2.179,4.681 7.909,16.464 9.363,18.965c0.08,0.081 0.241,0.081 0.322,0c2.34,-4.439 9.523,-19.53 10.008,-21.87c1.049,0.08 1.936,0.08 3.227,0.08c2.099,0 5.811,-0.241 6.86,-0.241c0.243,0.241 0.243,2.018 0,2.259c-1.291,0.243 -2.34,0.485 -3.148,0.726c-0.726,0.243 -1.453,0.485 -1.453,2.099c-0.081,4.439 0,15.012 0.241,21.629c0,1.371 0.646,2.501 2.341,2.824l2.824,0.565c0.163,0.243 0,2.099 -0.402,2.341c-1.211,0 -5.326,-0.243 -7.668,-0.243c-3.792,0 -6.456,0.161 -7.344,0.243c-0.404,-0.243 -0.322,-2.099 -0.161,-2.26c3.47,-0.726 4.035,-1.13 4.116,-2.34c0.241,-3.309 0.161,-12.994 0.241,-19.612c0,-0.081 -0.241,-0.081 -0.241,0c-1.856,4.357 -7.425,16.221 -10.491,23.323c-0.243,0.243 -1.615,0.565 -1.938,0.565c-2.664,-6.618 -7.264,-16.866 -10.734,-24.453c-0.08,-0.161 -0.404,-0.161 -0.404,0.081c0,5.649 -0.161,14.445 0.081,18.641c0.081,1.534 0.565,2.664 2.34,3.068c0.888,0.243 1.695,0.404 3.148,0.645c0.161,0.243 0.161,2.018 -0.161,2.341c-1.614,0 -4.357,-0.243 -7.101,-0.243c-2.18,0 -5.569,0.243 -6.619,0.243c-0.322,-0.404 -0.322,-2.099 -0.08,-2.341c4.441,-0.726 4.764,-1.371 4.925,-3.953z" fill="#ffffff"/>
    <path stroke-width="0" id="svg_37" d="m642.93,405.139c1.695,-0.484 1.695,-0.806 1.776,-2.905c0.161,-2.421 0.161,-7.666 0.161,-11.299c0,-3.227 0.08,-7.183 -0.161,-10.249c-0.081,-1.373 -0.565,-1.938 -1.776,-2.26c-0.969,-0.241 -1.775,-0.322 -2.744,-0.484c-0.243,-0.646 -0.161,-1.938 0.161,-2.34c0.887,0 3.955,0.241 7.344,0.241l20.581,0c3.148,0 5.81,-0.08 7.909,-0.241c0.243,0.322 0.243,2.018 0,2.259c-0.484,0.161 -1.614,0.324 -2.26,0.485c-1.532,0.241 -2.421,0.726 -2.421,2.501c-0.08,1.938 -0.08,6.376 -0.08,10.088c0,4.278 0.08,9.281 0.161,11.299c0,1.938 0.887,2.503 2.34,2.905c1.05,0.243 1.776,0.324 2.986,0.565c0.243,0.243 0.081,1.938 -0.243,2.341c-2.34,0 -4.761,-0.243 -7.828,-0.243c-2.744,0 -6.86,0.161 -7.425,0.243c-0.404,-0.161 -0.565,-1.938 -0.243,-2.26l2.421,-0.565c1.211,-0.484 1.695,-1.049 1.695,-2.664c0.081,-2.662 0.081,-8.313 0.081,-11.459c0,-2.099 -0.081,-9.443 -0.243,-11.46c0,-0.243 -0.161,-0.565 -0.484,-0.565l-12.913,0c-0.324,0 -0.565,0.322 -0.646,1.049c-0.081,1.13 -0.161,7.668 -0.161,10.33c0,3.309 0.08,10.169 0.08,11.944c0,1.856 0.646,2.503 2.099,2.825l2.825,0.565c0.241,0.243 0.08,1.936 -0.324,2.26c-0.967,0 -4.923,-0.243 -7.989,-0.243c-3.551,0 -6.538,0.243 -7.586,0.243c-0.404,-0.324 -0.322,-2.018 -0.081,-2.341c1.214,-0.161 2.262,-0.322 2.988,-0.565z" fill="#ffffff"/>
    <path stroke-width="0" id="svg_38" d="m696.594,382.059c-1.371,-2.018 -3.713,-3.068 -6.132,-3.068c-1.776,0 -2.825,0.485 -3.229,0.808c-0.888,0.645 -2.34,3.227 -3.39,5.81c-0.241,0.324 -2.42,-0.887 -2.34,-1.614c0.161,-1.13 1.373,-4.278 1.856,-4.761c3.47,-2.421 8.555,-4.439 10.573,-4.439c3.551,0 6.214,1.614 7.989,4.278c1.373,2.259 1.856,5.084 1.856,7.989c0,4.198 -0.322,10.412 -0.322,13.64c0,1.694 0.646,3.227 3.066,3.227c1.293,0 1.856,-0.081 2.825,-0.404c0.081,0.322 -0.08,2.179 -0.322,2.421c-1.938,2.099 -4.761,2.825 -6.618,2.825c-2.26,0 -3.551,-0.887 -4.116,-2.099c-0.322,-0.484 -0.484,-1.371 -0.645,-2.018c0,-0.081 -0.243,-0.161 -0.324,-0.081c-4.115,2.583 -7.505,4.198 -9.604,4.198c-1.532,0 -3.146,-0.808 -4.439,-2.018c-1.614,-1.776 -2.744,-4.278 -2.744,-7.103c0,-1.532 1.05,-4.035 1.454,-4.6c2.662,-1.452 12.185,-3.713 15.253,-5.245c0.161,-0.081 0.484,-0.565 0.484,-0.808c0.161,-0.726 0.081,-1.614 0.081,-2.179c0,-1.611 -0.243,-3.388 -1.212,-4.759zm0.727,10.168c-2.985,1.05 -8.15,2.664 -9.604,3.713c-0.322,0.161 -0.806,1.695 -0.806,2.583c0,3.148 2.179,5.489 5.649,5.489c1.049,0 2.825,-0.404 4.116,-1.291c0.565,-0.324 0.808,-0.969 0.887,-1.856c0.161,-1.695 0.161,-6.941 0.161,-8.313c0,-0.083 -0.241,-0.405 -0.403,-0.325z" fill="#ffffff"/>
    <path stroke-width="0" id="svg_39" d="m714.348,405.221c1.614,-0.404 2.018,-1.049 2.097,-3.066c0.081,-3.39 0.081,-7.586 0.081,-11.219c0,-3.227 -0.081,-7.666 -0.161,-10.088c-0.081,-1.371 -0.565,-2.099 -1.776,-2.421c-0.969,-0.241 -1.775,-0.322 -2.744,-0.484c-0.161,-0.404 -0.161,-2.018 0.243,-2.34c0.806,0 2.986,0.241 7.101,0.241c4.359,0 6.941,-0.241 7.586,-0.241c0.322,0.322 0.404,2.018 0.081,2.34c-0.969,0.08 -1.615,0.243 -2.583,0.484c-1.05,0.243 -1.615,0.887 -1.695,2.179l0,8.637c0,0.161 0.243,0.402 0.404,0.402l6.618,0c3.148,0 6.214,0.081 7.262,0c0.081,0 0.324,-0.161 0.324,-0.402c0.08,-1.776 -0.161,-7.99 -0.161,-8.474c0,-1.211 -0.404,-1.938 -1.695,-2.26c-0.646,-0.161 -2.018,-0.485 -2.825,-0.565c-0.161,-0.484 -0.08,-2.099 0.243,-2.34c1.371,0 4.035,0.241 7.666,0.241s6.053,-0.161 7.586,-0.241c0.243,0.402 0.243,1.936 0,2.259c-0.484,0.161 -1.695,0.324 -2.34,0.485c-1.615,0.402 -2.179,0.887 -2.26,2.583c-0.081,1.856 -0.081,6.053 -0.081,10.088c0,4.439 0.081,9.2 0.163,11.218c0.08,1.938 1.049,2.503 2.501,2.905l2.905,0.565c0.243,0.163 0,2.099 -0.322,2.341c-2.26,0 -4.6,-0.243 -7.909,-0.243c-2.905,0 -7.264,0.161 -7.909,0.243c-0.243,-0.243 -0.243,-2.018 -0.081,-2.26c0.969,-0.161 2.018,-0.322 2.744,-0.565c1.373,-0.322 1.776,-1.13 1.776,-2.501c0.08,-2.664 0.08,-6.215 0,-9.685c0,-0.161 -0.081,-0.243 -0.243,-0.243l-13.961,0c-0.161,0 -0.324,0.243 -0.324,0.404l0,9.12c0.081,1.856 0.726,2.501 2.099,2.905l2.744,0.565c0.161,0.243 0,1.936 -0.322,2.26c-0.969,0 -3.955,-0.243 -7.829,-0.243c-3.227,0 -6.536,0.243 -7.585,0.243c-0.324,-0.243 -0.324,-2.099 -0.081,-2.341l2.663,-0.486z" fill="#ffffff"/>
    <path stroke-width="0" id="svg_40" d="m755.017,405.139c1.695,-0.565 1.856,-1.291 1.856,-3.792c0,-3.551 0.081,-7.344 0.081,-11.138c0,-3.309 0,-6.456 -0.161,-9.441c-0.081,-1.373 -0.646,-2.019 -1.856,-2.341c-1.05,-0.241 -1.695,-0.322 -2.664,-0.484c-0.161,-0.565 -0.08,-2.018 0.243,-2.34c0.806,0 2.986,0.241 7.101,0.241c4.359,0 7.103,-0.241 7.748,-0.241c0.324,0.322 0.324,2.018 0.161,2.34c-1.049,0.08 -1.856,0.243 -2.824,0.484c-1.13,0.243 -1.695,0.887 -1.776,2.503c0,3.066 0,12.025 -0.08,15.414c0,0.161 0.241,0.484 0.404,0.322c2.259,-2.018 11.701,-11.863 13.88,-14.769c0.243,-0.322 0.404,-0.645 0.404,-1.129c0,-1.373 -0.243,-2.019 -1.534,-2.341c-0.564,-0.161 -1.453,-0.322 -2.42,-0.484c-0.163,-0.404 0,-2.099 0.322,-2.34c1.453,0.08 3.954,0.241 6.86,0.241c2.744,0 5.971,-0.161 7.505,-0.241c0.161,0.402 0.243,1.856 0,2.259c-1.291,0.243 -2.34,0.485 -3.148,0.726c-1.049,0.404 -1.373,1.454 -1.373,2.18c-0.161,5.002 0,18.078 0.163,21.709c0.08,1.291 0.564,2.018 1.614,2.421c1.21,0.404 2.583,0.645 3.792,0.806c0.243,0.163 -0.08,2.099 -0.322,2.341c-1.775,0 -5.246,-0.243 -8.313,-0.243c-2.744,0 -5.569,0.161 -6.375,0.243c-0.243,-0.243 -0.243,-1.776 -0.163,-2.018c3.148,-0.889 3.633,-1.534 3.633,-2.825c0.08,-3.551 0,-11.783 0,-17.19c0,-0.243 -0.243,-0.404 -0.404,-0.243c-2.179,2.583 -11.54,12.268 -13.961,14.85c-0.324,0.322 -0.404,0.726 -0.404,1.371c0,2.341 0.484,2.825 1.936,3.229l2.986,0.565c0.161,0.161 -0.08,2.018 -0.322,2.26c-1.049,0 -4.843,-0.243 -7.99,-0.243c-2.583,0 -6.134,0.243 -7.505,0.243c-0.243,-0.243 -0.243,-2.099 0,-2.341c0.969,-0.078 2.341,-0.321 2.906,-0.564z" fill="#ffffff"/>
    <path stroke-width="0" id="svg_41" d="m824.5,408.046c-1.938,0 -4.196,-0.243 -7.829,-0.243c-3.55,0 -5.971,0.161 -7.989,0.243c-0.243,-0.404 -0.243,-1.938 0,-2.341c1.21,-0.161 2.018,-0.322 2.744,-0.484c1.453,-0.404 1.856,-1.049 1.856,-2.583c0.08,-3.47 0.08,-5.569 0.08,-8.796c-2.501,0.161 -3.792,0.726 -5.569,2.985c-2.018,2.583 -5.326,7.345 -7.424,9.443c-1.05,0.969 -2.664,2.018 -7.99,2.018c-0.969,0 -1.938,-0.08 -2.583,-0.161c-0.404,-0.322 -0.484,-2.259 -0.081,-2.259c3.551,-0.243 4.6,-1.293 6.942,-4.116c1.291,-1.453 2.179,-2.664 3.713,-4.439c1.21,-1.373 2.985,-2.986 4.115,-3.39c0.081,-0.08 0.081,-0.241 0,-0.322c-5.084,-0.887 -8.474,-3.874 -8.474,-8.635c0,-3.633 2.26,-6.699 6.456,-8.233c2.421,-0.967 5.73,-1.291 10.654,-1.291c3.146,0 7.909,0.163 10.894,0.243c0.404,0.161 -0.08,1.938 -0.322,2.34c-0.806,0.163 -2.662,0.243 -3.631,0.404c-0.565,0.081 -0.726,0.565 -0.726,0.969c-0.081,1.936 0,7.264 0,11.783c0,4.439 -0.081,9.604 0.08,11.299c0.081,1.453 0.243,2.179 2.26,2.744c0.808,0.161 1.695,0.322 2.986,0.484c0.241,0.32 0.16,1.934 -0.162,2.338zm-11.138,-16.625c0,-3.631 0,-8.635 -0.08,-11.783c0,-0.565 -0.243,-1.05 -0.565,-1.13c-0.808,-0.161 -2.179,-0.243 -2.744,-0.243c-5.165,0 -7.507,2.503 -7.507,5.811c0.001,5.246 5.005,7.345 10.896,7.345z" fill="#ffffff"/>
   </g>
  </g>
  <g id="svg_42">
   <g id="svg_43">
    <defs stroke-width="0" fill="#ffffff">
     <circle stroke-width="0" fill="#ffffff" r="154.38" cy="251.777" cx="266.326" id="SVGID_1_"/>
    </defs>
    <clipPath stroke-width="0" fill="#ffffff" id="SVGID_2_">
     <use stroke-width="0" fill="#ffffff" id="svg_44" xlink:href="#SVGID_1_"/>
    </clipPath>
    <rect stroke-width="0" id="svg_45" height="49.5" width="49.5" fill="#ffffff" clip-path="url(#SVGID_2_)" y="53.746" x="68.322"/>
    <rect stroke-width="0" id="svg_46" height="49.5" width="49.5" fill="#ffffff" clip-path="url(#SVGID_2_)" y="53.746" x="117.807"/>
    <rect stroke-width="0" id="svg_47" height="49.5" width="49.5" fill="#ffffff" clip-path="url(#SVGID_2_)" y="53.746" x="167.291"/>
    <rect stroke-width="0" id="svg_48" height="49.5" width="49.5" stroke-miterlimit="10" stroke="#020203" fill="#ffffff" clip-path="url(#SVGID_2_)" y="53.746" x="216.775"/>
    <rect stroke-width="0" id="svg_49" height="49.5" width="49.5" stroke-miterlimit="10" stroke="#020203" fill="#ffffff" clip-path="url(#SVGID_2_)" y="53.746" x="266.239"/>
    <rect stroke-width="0" id="svg_50" height="49.5" width="49.5" fill="#ffffff" clip-path="url(#SVGID_2_)" y="53.746" x="315.723"/>
    <rect stroke-width="0" id="svg_51" height="49.5" width="49.5" fill="#ffffff" clip-path="url(#SVGID_2_)" y="53.746" x="365.208"/>
    <rect stroke-width="0" id="svg_52" height="49.5" width="49.5" fill="#ffffff" clip-path="url(#SVGID_2_)" y="53.746" x="414.692"/>
    <rect stroke-width="0" id="svg_53" height="49.5" width="49.5" fill="#ffffff" clip-path="url(#SVGID_2_)" y="103.246" x="68.322"/>
    <rect stroke-width="0" id="svg_54" height="49.5" width="49.5" stroke-miterlimit="10" stroke="#020203" fill="#ffffff" clip-path="url(#SVGID_2_)" y="103.246" x="117.807"/>
    <rect stroke-width="0" id="svg_55" height="49.5" width="49.5" stroke-miterlimit="10" stroke="#020203" fill="#ffffff" clip-path="url(#SVGID_2_)" y="103.246" x="216.775"/>
    <rect stroke-width="0" id="svg_56" height="49.5" width="49.5" stroke-miterlimit="10" stroke="#020203" fill="#ffffff" clip-path="url(#SVGID_2_)" y="103.246" x="315.723"/>
    <rect stroke-width="0" id="svg_57" height="49.5" width="49.5" fill="#ffffff" clip-path="url(#SVGID_2_)" y="103.246" x="414.692"/>
    <rect stroke-width="0" id="svg_58" height="49.5" width="49.5" fill="#ffffff" clip-path="url(#SVGID_2_)" y="152.746" x="68.322"/>
    <rect stroke-width="0" id="svg_59" height="49.5" width="49.5" stroke-miterlimit="10" stroke="#020203" fill="#ffffff" clip-path="url(#SVGID_2_)" y="152.746" x="117.807"/>
    <rect stroke-width="0" id="svg_60" height="49.5" width="49.5" stroke-miterlimit="10" stroke="#020203" fill="#ffffff" clip-path="url(#SVGID_2_)" y="152.746" x="167.291"/>
    <rect stroke-width="0" id="svg_61" height="49.5" width="49.5" stroke-miterlimit="10" stroke="#020203" fill="#ffffff" clip-path="url(#SVGID_2_)" y="152.746" x="216.775"/>
    <rect stroke-width="0" id="svg_62" height="49.5" width="49.5" stroke-miterlimit="10" stroke="#020203" fill="#ffffff" clip-path="url(#SVGID_2_)" y="152.746" x="315.723"/>
    <rect stroke-width="0" id="svg_63" height="49.5" width="49.5" stroke-miterlimit="10" stroke="#020203" fill="#ffffff" clip-path="url(#SVGID_2_)" y="152.746" x="365.208"/>
    <rect stroke-width="0" id="svg_64" height="49.5" width="49.5" fill="#ffffff" clip-path="url(#SVGID_2_)" y="152.746" x="414.692"/>
    <rect stroke-width="0" id="svg_65" height="49.5" width="49.5" stroke-miterlimit="10" stroke="#020203" fill="#ffffff" clip-path="url(#SVGID_2_)" y="202.246" x="68.322"/>
    <rect stroke-width="0" id="svg_66" height="49.5" width="49.5" stroke-miterlimit="10" stroke="#020203" fill="#ffffff" clip-path="url(#SVGID_2_)" y="202.246" x="117.807"/>
    <rect stroke-width="0" id="svg_67" height="49.5" width="49.5" stroke-miterlimit="10" stroke="#020203" fill="#ffffff" clip-path="url(#SVGID_2_)" y="202.246" x="167.291"/>
    <rect stroke-width="0" id="svg_68" height="49.5" width="49.5" stroke-miterlimit="10" stroke="#020203" fill="#ffffff" clip-path="url(#SVGID_2_)" y="202.246" x="266.239"/>
    <rect stroke-width="0" id="svg_69" height="49.5" width="49.5" stroke-miterlimit="10" stroke="#020203" fill="#ffffff" clip-path="url(#SVGID_2_)" y="202.246" x="315.723"/>
    <rect stroke-width="0" id="svg_70" height="49.5" width="49.5" stroke-miterlimit="10" stroke="#020203" fill="#ffffff" clip-path="url(#SVGID_2_)" y="251.787" x="167.291"/>
    <rect stroke-width="0" id="svg_71" height="49.5" width="49.5" stroke-miterlimit="10" stroke="#020203" fill="#ffffff" clip-path="url(#SVGID_2_)" y="251.787" x="216.775"/>
    <rect stroke-width="0" id="svg_72" height="49.5" width="49.5" stroke-miterlimit="10" stroke="#020203" fill="#ffffff" clip-path="url(#SVGID_2_)" y="251.787" x="266.239"/>
    <rect stroke-width="0" id="svg_73" height="49.5" width="49.5" stroke-miterlimit="10" stroke="#020203" fill="#ffffff" clip-path="url(#SVGID_2_)" y="251.787" x="315.723"/>
    <rect stroke-width="0" id="svg_74" height="49.5" width="49.5" fill="#ffffff" clip-path="url(#SVGID_2_)" y="301.287" x="68.322"/>
    <rect stroke-width="0" id="svg_75" height="49.5" width="49.5" stroke-miterlimit="10" stroke="#020203" fill="#ffffff" clip-path="url(#SVGID_2_)" y="301.287" x="117.807"/>
    <rect stroke-width="0" id="svg_76" height="49.5" width="49.5" stroke-miterlimit="10" stroke="#020203" fill="#ffffff" clip-path="url(#SVGID_2_)" y="301.287" x="167.291"/>
    <rect stroke-width="0" id="svg_77" height="49.5" width="49.5" stroke-miterlimit="10" stroke="#020203" fill="#ffffff" clip-path="url(#SVGID_2_)" y="301.287" x="315.723"/>
    <rect stroke-width="0" id="svg_78" height="49.5" width="49.5" stroke-miterlimit="10" stroke="#020203" fill="#ffffff" clip-path="url(#SVGID_2_)" y="301.287" x="365.208"/>
    <rect stroke-width="0" id="svg_79" height="49.5" width="49.5" fill="#ffffff" clip-path="url(#SVGID_2_)" y="301.287" x="414.692"/>
    <rect stroke-width="0" id="svg_80" height="49.5" width="49.5" fill="#ffffff" clip-path="url(#SVGID_2_)" y="350.704" x="68.322"/>
    <rect stroke-width="0" id="svg_81" height="49.5" width="49.5" stroke-miterlimit="10" stroke="#020203" fill="#ffffff" clip-path="url(#SVGID_2_)" y="350.704" x="216.775"/>
    <rect stroke-width="0" id="svg_82" height="49.5" width="49.5" stroke-miterlimit="10" stroke="#020203" fill="#ffffff" clip-path="url(#SVGID_2_)" y="350.704" x="266.239"/>
    <rect stroke-width="0" id="svg_83" height="49.5" width="49.5" stroke-miterlimit="10" stroke="#020203" fill="#ffffff" clip-path="url(#SVGID_2_)" y="350.704" x="365.208"/>
    <rect stroke-width="0" id="svg_84" height="49.5" width="49.5" fill="#ffffff" clip-path="url(#SVGID_2_)" y="350.704" x="414.692"/>
    <rect stroke-width="0" id="svg_85" height="49.5" width="49.5" fill="#ffffff" clip-path="url(#SVGID_2_)" y="400.204" x="68.322"/>
    <rect stroke-width="0" id="svg_86" height="49.5" width="49.5" fill="#ffffff" clip-path="url(#SVGID_2_)" y="400.204" x="117.807"/>
    <rect stroke-width="0" id="svg_87" height="49.5" width="49.5" fill="#ffffff" clip-path="url(#SVGID_2_)" y="400.204" x="167.291"/>
    <rect stroke-width="0" id="svg_88" height="49.5" width="49.5" stroke-miterlimit="10" stroke="#020203" fill="#ffffff" clip-path="url(#SVGID_2_)" y="400.204" x="216.775"/>
    <rect stroke-width="0" id="svg_89" height="49.5" width="49.5" stroke-miterlimit="10" stroke="#020203" fill="#ffffff" clip-path="url(#SVGID_2_)" y="400.204" x="266.239"/>
    <rect stroke-width="0" id="svg_90" height="49.5" width="49.5" fill="#ffffff" clip-path="url(#SVGID_2_)" y="400.204" x="315.723"/>
    <rect stroke-width="0" id="svg_91" height="49.5" width="49.5" fill="#ffffff" clip-path="url(#SVGID_2_)" y="400.204" x="365.208"/>
    <rect stroke-width="0" id="svg_92" height="49.5" width="49.5" fill="#ffffff" clip-path="url(#SVGID_2_)" y="400.204" x="414.692"/>
   </g>
   <path stroke-width="0" id="svg_93" d="m428,300.829c-7.942,26.292 -22.292,50.38 -42.261,70.349c-6.59,6.59 -13.634,12.557 -21.053,17.896l0,23.95c40.782,-24.934 71.375,-64.897 84.066,-112.195l-20.752,0z" fill="#ffffff"/>
   <g id="svg_94">
    <path stroke-width="0" id="svg_95" d="m83.882,300.808c4.841,18.039 12.284,35.013 21.904,50.495l24.077,0c-11.265,-15.375 -19.756,-32.414 -25.218,-50.495l-20.763,0z" fill="#ffffff"/>
    <path stroke-width="0" id="svg_96" d="m77.442,251.761c0,0.167 0.004,0.333 0.004,0.5l20,0c0,-0.167 -0.005,-0.333 -0.005,-0.5c0,-45.11 17.566,-87.519 49.464,-119.417c6.556,-6.556 13.562,-12.495 20.938,-17.812l0,-23.97c-54.219,33.194 -90.401,92.969 -90.401,161.199z" fill="#ffffff"/>
   </g>
   <g id="svg_97">
    <path stroke-width="0" id="svg_98" d="m365.697,91.12c-28.867,-17.899 -62.911,-28.239 -99.375,-28.239c-17.33,0 -34.11,2.347 -50.053,6.717l0,20.794c16.001,-4.942 32.829,-7.511 50.053,-7.511c36.214,0 70.683,11.331 99.375,32.3l0,-24.061z" fill="#ffffff"/>
    <path stroke-width="0" id="svg_99" d="m426.84,152.204l-24.06,0c11.283,15.398 19.784,32.466 25.245,50.578l20.75,0c-4.839,-18.073 -12.299,-35.072 -21.935,-50.578z" fill="#ffffff"/>
   </g>
   <rect stroke-width="0" id="svg_100" height="31.432" width="31.432" stroke-miterlimit="10" stroke="#020203" fill="#ffffff" y="211.454" x="375.557"/>
   <rect stroke-width="0" id="svg_101" height="31.432" width="31.432" stroke-miterlimit="10" stroke="#020203" fill="#ffffff" y="137.454" x="275.557"/>
   <rect stroke-width="0" id="svg_102" height="31.432" width="31.432" stroke-miterlimit="10" stroke="#020203" fill="#ffffff" y="88.454" x="176.557"/>
   <rect stroke-width="0" id="svg_103" height="31.432" width="31.432" stroke-miterlimit="10" stroke="#020203" fill="#ffffff" y="211.454" x="226.557"/>
   <rect stroke-width="0" id="svg_104" height="31.432" width="31.432" stroke-miterlimit="10" stroke="#020203" fill="#ffffff" y="260.787" x="103.223"/>
   <rect stroke-width="0" id="svg_105" height="31.432" width="31.432" stroke-miterlimit="10" stroke="#020203" fill="#ffffff" y="310.454" x="250.557"/>
   <rect stroke-width="0" stroke="#020203" id="svg_106" height="31.432" width="31.432" stroke-miterlimit="10" fill="#ffffff" y="380.454" x="324.932"/>
   <rect stroke-width="0" id="svg_107" height="31.432" width="31.432" stroke-miterlimit="10" stroke="#020203" fill="#ffffff" y="261.121" x="375.557"/>
   <rect stroke-width="0" id="svg_108" height="49.5" width="49.5" stroke-miterlimit="10" stroke="#020203" fill="#ffffff" y="252.246" x="21.807"/>
   <rect stroke-width="0" id="svg_109" height="49.5" width="49.5" stroke-miterlimit="10" stroke="#020203" fill="#ffffff" y="228.246" x="423.807"/>
   <rect stroke-width="0" id="svg_110" height="49.5" width="49.5" stroke-miterlimit="10" stroke="#020203" fill="#ffffff" y="85.829" x="382.739"/>
   <rect stroke-width="0" id="svg_111" height="49.5" width="49.5" stroke-miterlimit="10" stroke="#020203" fill="#ffffff" y="16.829" x="166.739"/>
   <rect stroke-width="0" id="svg_112" height="49.5" width="49.5" stroke-miterlimit="10" stroke="#020203" fill="#ffffff" y="373.246" x="144.807"/>
   <path stroke-width="0" id="svg_113" d="m97.584,236.698c2.62,-27.34 11.957,-53.779 27.613,-77.282c5.166,-7.756 10.901,-14.992 17.126,-21.684l-4.707,-23.483c-35.087,32.462 -57.231,77.658 -60.379,126.527l20.347,-4.078z" fill="#ffffff"/>
   <path stroke-width="0" id="svg_114" d="m298.939,418.624c-27.937,5.599 -56.192,4.104 -82.68,-4.054l0,20.773c27.389,7.462 56.88,8.849 86.61,2.891c4.538,-0.909 8.999,-1.987 13.39,-3.202l0,-20.834c-5.655,1.762 -11.431,3.246 -17.32,4.426z" fill="#ffffff"/>
  </g>
 </g>
</svg>