<?xml version="1.0" encoding="utf-8"?>
<!-- Generator: Adobe Illustrator 17.0.0, SVG Export Plug-In . SVG Version: 6.00 Build 0)  -->
<!DOCTYPE svg PUBLIC "-//W3C//DTD SVG 1.1//EN" "http://www.w3.org/Graphics/SVG/1.1/DTD/svg11.dtd">
<svg version="1.1" id="Слой_1" xmlns="http://www.w3.org/2000/svg" xmlns:xlink="http://www.w3.org/1999/xlink" x="0px" y="0px"
	 width="595.28px" height="841.89px" viewBox="0 0 595.28 841.89" enable-background="new 0 0 595.28 841.89" xml:space="preserve">
<path fill="#555555" d="M1314.989,679.252c-1.565-1.647-3.289-3.143-4.848-4.796c-2.011-2.133-3.108-4.64-2.144-7.584
	c1.01-3.084,2.033-6.186,3.363-9.139c2.479-5.503,3.68-11.23,3.703-16.379c-0.229-10.735-2.054-20.305-5.896-29.408
	c-8.24-19.525-21.287-34.405-41.866-41.285c-12.413-4.15-25.413-4.522-38.404-4.141c-10.226,0.299-20.336,1.477-29.78,5.656
	c-20.212,8.945-32.935,24.688-39.937,45.269c-3.536,10.392-5.316,21.16-2.907,32.061c1.052,4.758,3.31,9.261,5.132,13.835
	c1.97,4.945,1.498,9.207-2.866,12.749c-1.597,1.297-3.038,2.848-4.311,4.471c-4.138,5.28-1.14,12.618,5.478,13.746
	c6.456,1.1,12.558-0.799,18.684-2.186c11.354-2.571,22.662-4.472,34.264-1.465c11.922,3.089,24.037,3.373,36.183,1.712
	c5.173-0.707,10.255-2.051,15.415-2.879c9.389-1.506,18.433,0.821,27.542,2.617c5.596,1.103,11.262,2.048,16.941,2.472
	c4.091,0.306,7.059-2.049,8.683-5.93C1318.997,684.874,1317.518,681.915,1314.989,679.252z M1175.188,513.201
	c6.45,11.727,15.643,21.271,24.786,30.858c1.344,1.409,2.493,1.56,4.352,1.23c9.499-1.688,18.99-3.74,28.577-4.521
	c11.089-0.903,22.011,1.264,32.72,4.288c1.137,0.321,2.977,0.403,3.661-0.261c9.371-9.089,18.451-18.47,25.071-29.85
	c1.754-3.015,2.821-6.431,3.581-8.208c0.227-7.115-4.515-10.691-9.813-8.704c-3.284,1.232-6.418,3.079-9.311,5.094
	c-5.985,4.17-11.988,4.468-18.367,1.087c-5.143-2.726-10.325-5.384-15.563-7.92c-4.972-2.407-10.255-4.283-15.65-1.962
	c-3.463,1.489-6.59,3.878-9.647,6.158c-3.315,2.472-6.257,5.444-9.576,7.91c-4.049,3.007-8.494,3.011-12.8,0.525
	c-2.898-1.672-5.572-3.728-8.396-5.532c-2.57-1.642-5.056-3.555-7.849-4.678c-5.262-2.116-9.773,1.831-8.514,7.346
	C1173.011,508.524,1173.968,510.982,1175.188,513.201z M1267.487,551.116c-10.488-3.123-21.222-4.483-31.84-4.662
	c-11.412,0.126-22.408,1.329-32.975,4.84c-2.693,0.895-5.211,3.118-7.123,5.325c-1.764,2.036-2.171,5.055-0.438,7.482
	c1.677,2.349,4.321,1.951,6.804,1.38c0.479-0.11,0.943-0.287,1.418-0.418c16.914-4.648,34.022-5.803,51.326-2.655
	c4.941,0.899,9.801,2.241,14.73,3.217c5.226,1.035,8.044-2.314,6.208-7.359C1274.213,554.462,1271.321,552.257,1267.487,551.116z"/>
<path fill="#555555" d="M1488.455,679.252c-1.565-1.647-3.289-3.143-4.848-4.796c-2.011-2.133-3.108-4.64-2.144-7.584
	c1.01-3.084,2.033-6.186,3.363-9.139c2.479-5.503,3.68-11.23,3.703-16.379c-0.229-10.735-2.054-20.305-5.896-29.408
	c-8.24-19.525-21.287-34.405-41.866-41.285c-12.413-4.15-25.413-4.522-38.404-4.141c-10.226,0.299-20.336,1.477-29.78,5.656
	c-20.212,8.945-32.935,24.688-39.938,45.269c-3.536,10.392-5.316,21.16-2.907,32.061c1.052,4.758,3.31,9.261,5.132,13.835
	c1.97,4.945,1.498,9.207-2.866,12.749c-1.597,1.297-3.038,2.848-4.311,4.471c-4.138,5.28-1.14,12.618,5.478,13.746
	c6.456,1.1,12.558-0.799,18.684-2.186c11.354-2.571,22.662-4.472,34.264-1.465c11.922,3.089,24.037,3.373,36.183,1.712
	c5.173-0.707,10.255-2.051,15.415-2.879c9.389-1.506,18.433,0.821,27.542,2.617c5.596,1.103,11.262,2.048,16.941,2.472
	c4.091,0.306,7.059-2.049,8.683-5.93C1492.462,684.874,1490.984,681.915,1488.455,679.252z M1348.653,513.201
	c6.45,11.727,15.643,21.271,24.786,30.858c1.344,1.409,2.493,1.56,4.352,1.23c9.499-1.688,18.99-3.74,28.577-4.521
	c11.089-0.903,22.01,1.264,32.72,4.288c1.137,0.321,2.977,0.403,3.661-0.261c9.371-9.089,18.451-18.47,25.071-29.85
	c1.754-3.015,2.821-6.431,3.581-8.208c0.227-7.115-4.515-10.691-9.813-8.704c-3.284,1.232-6.418,3.079-9.311,5.094
	c-5.985,4.17-11.988,4.468-18.367,1.087c-5.143-2.726-10.325-5.384-15.563-7.92c-4.972-2.407-10.255-4.283-15.651-1.962
	c-3.463,1.489-6.59,3.878-9.647,6.158c-3.315,2.472-6.257,5.444-9.576,7.91c-4.049,3.007-8.494,3.011-12.8,0.525
	c-2.897-1.672-5.572-3.728-8.396-5.532c-2.57-1.642-5.056-3.555-7.849-4.678c-5.262-2.116-9.773,1.831-8.514,7.346
	C1346.477,508.524,1347.433,510.982,1348.653,513.201z M1440.953,551.116c-10.488-3.123-21.222-4.483-31.84-4.662
	c-11.412,0.126-22.408,1.329-32.975,4.84c-2.693,0.895-5.211,3.118-7.123,5.325c-1.764,2.036-2.171,5.055-0.438,7.482
	c1.677,2.349,4.321,1.951,6.804,1.38c0.479-0.11,0.943-0.287,1.418-0.418c16.914-4.648,34.022-5.803,51.326-2.655
	c4.941,0.899,9.801,2.241,14.73,3.217c5.226,1.035,8.044-2.314,6.208-7.359C1447.679,554.462,1444.787,552.257,1440.953,551.116z"/>
<path fill="#555555" d="M1659.949,679.252c-1.565-1.647-3.289-3.143-4.848-4.796c-2.011-2.133-3.108-4.64-2.144-7.584
	c1.01-3.084,2.033-6.186,3.363-9.139c2.479-5.503,3.68-11.23,3.703-16.379c-0.229-10.735-2.054-20.305-5.896-29.408
	c-8.24-19.525-21.288-34.405-41.866-41.285c-12.413-4.15-25.413-4.522-38.404-4.141c-10.226,0.299-20.336,1.477-29.78,5.656
	c-20.212,8.945-32.935,24.688-39.938,45.269c-3.536,10.392-5.316,21.16-2.907,32.061c1.051,4.758,3.309,9.261,5.132,13.835
	c1.97,4.945,1.498,9.207-2.866,12.749c-1.597,1.297-3.038,2.848-4.311,4.471c-4.138,5.28-1.14,12.618,5.478,13.746
	c6.457,1.1,12.558-0.799,18.684-2.186c11.354-2.571,22.662-4.472,34.264-1.465c11.922,3.089,24.037,3.373,36.183,1.712
	c5.173-0.707,10.255-2.051,15.415-2.879c9.389-1.506,18.433,0.821,27.542,2.617c5.596,1.103,11.262,2.048,16.941,2.472
	c4.09,0.306,7.059-2.049,8.683-5.93C1663.957,684.874,1662.478,681.915,1659.949,679.252z M1520.148,513.201
	c6.45,11.727,15.643,21.271,24.786,30.858c1.343,1.409,2.493,1.56,4.352,1.23c9.499-1.688,18.99-3.74,28.577-4.521
	c11.089-0.903,22.01,1.264,32.72,4.288c1.137,0.321,2.977,0.403,3.661-0.261c9.371-9.089,18.451-18.47,25.071-29.85
	c1.754-3.015,2.821-6.431,3.581-8.208c0.227-7.115-4.515-10.691-9.813-8.704c-3.284,1.232-6.418,3.079-9.311,5.094
	c-5.985,4.17-11.988,4.468-18.367,1.087c-5.143-2.726-10.325-5.384-15.563-7.92c-4.972-2.407-10.255-4.283-15.65-1.962
	c-3.463,1.489-6.59,3.878-9.648,6.158c-3.315,2.472-6.257,5.444-9.576,7.91c-4.049,3.007-8.494,3.011-12.8,0.525
	c-2.897-1.672-5.572-3.728-8.396-5.532c-2.57-1.642-5.056-3.555-7.849-4.678c-5.262-2.116-9.773,1.831-8.514,7.346
	C1517.972,508.524,1518.928,510.982,1520.148,513.201z M1612.447,551.116c-10.488-3.123-21.222-4.483-31.84-4.662
	c-11.412,0.126-22.408,1.329-32.975,4.84c-2.693,0.895-5.211,3.118-7.123,5.325c-1.764,2.036-2.171,5.055-0.438,7.482
	c1.677,2.349,4.321,1.951,6.804,1.38c0.479-0.11,0.943-0.287,1.418-0.418c16.914-4.648,34.022-5.803,51.326-2.655
	c4.941,0.899,9.801,2.241,14.73,3.217c5.226,1.035,8.044-2.314,6.208-7.359C1619.173,554.462,1616.281,552.257,1612.447,551.116z"/>
<path fill="#555555" d="M1663,736v-26h-510.667v26h20v24.667h-20v26H1663v-26h-18V736H1663z M1232.333,736h145.333v24.667h-145.333
	V736z M1585,760.667h-147.333V736H1585V760.667z"/>
<text transform="matrix(1 0 0 1 1189.2561 641.9004)" fill="#FFFFFF" font-family="'SegoeUI-BoldItalic'" font-size="45.2645">55 л</text>
<text transform="matrix(1 0 0 1 1361.8007 641.9004)" fill="#FFFFFF" font-family="'SegoeUI-BoldItalic'" font-size="45.2645">55 л</text>
<text transform="matrix(1 0 0 1 1534.2959 641.9004)" fill="#FFFFFF" font-family="'SegoeUI-BoldItalic'" font-size="45.2645">55 л</text>
</svg>
